<svg width="25" height="25" viewBox="0 0 25 25" fill="none" xmlns="http://www.w3.org/2000/svg">
<g opacity="0.2">
<path fill-rule="evenodd" clip-rule="evenodd" d="M12.7575 8.55998C12.9467 8.40208 13.1652 8.28302 13.4004 8.20962C13.6357 8.13622 13.8831 8.10991 14.1285 8.1322C14.3739 8.15449 14.6125 8.22494 14.8307 8.33952C15.0489 8.45411 15.2423 8.61058 15.4 8.79998L19.5662 13.8C19.8705 14.1834 20.0127 14.6707 19.9626 15.1576C19.9124 15.6445 19.6738 16.0925 19.2978 16.4058C18.9217 16.7192 18.4381 16.8731 17.9501 16.8346C17.4621 16.7962 17.0085 16.5684 16.6862 16.2L12.5187 11.2C12.2006 10.818 12.0472 10.3253 12.0922 9.8303C12.1372 9.33524 12.3757 8.87832 12.7575 8.55998Z" fill="#F5F4EF"/>
<path fill-rule="evenodd" clip-rule="evenodd" d="M12.7575 21.44C12.3757 21.1217 12.136 20.6648 12.091 20.1697C12.046 19.6747 12.1994 19.182 12.5175 18.8L16.685 13.8C16.8404 13.6042 17.0334 13.4414 17.2526 13.3212C17.4719 13.201 17.713 13.1259 17.9617 13.1003C18.2104 13.0747 18.4617 13.0991 18.7008 13.172C18.9399 13.245 19.1621 13.365 19.3542 13.525C19.5462 13.6851 19.7043 13.8819 19.8192 14.104C19.9341 14.3261 20.0034 14.5689 20.023 14.8181C20.0427 15.0674 20.0123 15.318 19.9336 15.5553C19.8549 15.7927 19.7296 16.0119 19.565 16.2L15.3987 21.2C15.2411 21.3892 15.0477 21.5456 14.8297 21.66C14.6116 21.7745 14.3731 21.8449 14.1278 21.8672C13.8826 21.8895 13.6353 21.8632 13.4002 21.7899C13.1651 21.7166 12.9467 21.5977 12.7575 21.44Z" fill="#F5F4EF"/>
<path fill-rule="evenodd" clip-rule="evenodd" d="M17.5 15C17.5 15.4973 17.3025 15.9742 16.9508 16.3258C16.5992 16.6775 16.1223 16.875 15.625 16.875H5.625C5.12772 16.875 4.65081 16.6775 4.29918 16.3258C3.94755 15.9742 3.75 15.4973 3.75 15C3.75 14.5027 3.94755 14.0258 4.29918 13.6742C4.65081 13.3225 5.12772 13.125 5.625 13.125H15.625C16.1223 13.125 16.5992 13.3225 16.9508 13.6742C17.3025 14.0258 17.5 14.5027 17.5 15Z" fill="#F5F4EF"/>
</g>
<path fill-rule="evenodd" clip-rule="evenodd" d="M14.1837 7.01999C14.3111 6.91395 14.4753 6.86281 14.6403 6.87781C14.8053 6.89281 14.9576 6.97273 15.0637 7.09999L19.23 12.1C19.2849 12.1627 19.3266 12.2358 19.3529 12.3149C19.3791 12.394 19.3892 12.4775 19.3827 12.5606C19.3761 12.6437 19.353 12.7246 19.3147 12.7987C19.2764 12.8727 19.2237 12.9383 19.1597 12.9917C19.0957 13.045 19.0216 13.085 18.9419 13.1093C18.8622 13.1336 18.7784 13.1418 18.6955 13.1332C18.6126 13.1247 18.5323 13.0997 18.4592 13.0596C18.3861 13.0195 18.3218 12.9653 18.27 12.9L14.1037 7.89999C13.9977 7.77267 13.9466 7.60845 13.9616 7.44343C13.9766 7.27841 14.0565 7.12611 14.1837 7.01999Z" fill="#F5F4EF"/>
<path fill-rule="evenodd" clip-rule="evenodd" d="M14.1837 17.98C14.0565 17.8739 13.9766 17.7216 13.9616 17.5566C13.9466 17.3916 13.9977 17.2274 14.1037 17.1L18.27 12.1C18.3218 12.0348 18.3861 11.9805 18.4592 11.9404C18.5323 11.9004 18.6126 11.8754 18.6955 11.8668C18.7784 11.8583 18.8622 11.8664 18.9419 11.8907C19.0216 11.915 19.0957 11.955 19.1597 12.0084C19.2237 12.0617 19.2764 12.1274 19.3147 12.2014C19.353 12.2754 19.3761 12.3563 19.3827 12.4394C19.3892 12.5225 19.3791 12.606 19.3529 12.6852C19.3266 12.7643 19.2849 12.8373 19.23 12.9L15.0637 17.9C14.9576 18.0273 14.8053 18.1072 14.6403 18.1222C14.4753 18.1372 14.3111 18.0861 14.1837 17.98Z" fill="#F5F4EF"/>
<path fill-rule="evenodd" clip-rule="evenodd" d="M18.75 12.5C18.75 12.6658 18.6842 12.8247 18.5669 12.9419C18.4497 13.0592 18.2908 13.125 18.125 13.125H6.25C6.08424 13.125 5.92527 13.0592 5.80806 12.9419C5.69085 12.8247 5.625 12.6658 5.625 12.5C5.625 12.3342 5.69085 12.1753 5.80806 12.0581C5.92527 11.9408 6.08424 11.875 6.25 11.875H18.125C18.2908 11.875 18.4497 11.9408 18.5669 12.0581C18.6842 12.1753 18.75 12.3342 18.75 12.5Z" fill="#F5F4EF"/>
</svg>
