<svg width="25" height="25" viewBox="0 0 25 25" fill="none" xmlns="http://www.w3.org/2000/svg">
<g opacity="0.2">
<path fill-rule="evenodd" clip-rule="evenodd" d="M12.2425 16.44C12.0533 16.5979 11.8348 16.717 11.5996 16.7904C11.3643 16.8638 11.1169 16.8901 10.8715 16.8678C10.6261 16.8455 10.3875 16.7751 10.1693 16.6605C9.95111 16.5459 9.75766 16.3894 9.6 16.2L5.43376 11.2C5.12951 10.8166 4.98727 10.3293 5.03743 9.84244C5.0876 9.35553 5.32618 8.90754 5.70222 8.59417C6.07825 8.28081 6.56192 8.12692 7.0499 8.16539C7.53787 8.20385 7.99146 8.43161 8.31375 8.80002L12.4813 13.8C12.7994 14.182 12.9528 14.6747 12.9078 15.1697C12.8628 15.6648 12.6243 16.1217 12.2425 16.44Z" fill="#F5F4EF"/>
<path fill-rule="evenodd" clip-rule="evenodd" d="M12.2425 3.55998C12.6243 3.87832 12.864 4.33524 12.909 4.83029C12.954 5.32534 12.8006 5.81801 12.4825 6.19998L8.315 11.2C8.1596 11.3958 7.9666 11.5586 7.74735 11.6788C7.52811 11.799 7.28704 11.8741 7.03834 11.8997C6.78964 11.9253 6.53833 11.9009 6.29919 11.828C6.06005 11.755 5.83791 11.635 5.64585 11.475C5.45378 11.3149 5.29566 11.1181 5.18079 10.896C5.06593 10.6739 4.99663 10.4311 4.97699 10.1819C4.95734 9.93264 4.98774 9.68198 5.0664 9.44466C5.14506 9.20734 5.27038 8.98815 5.435 8.79998L9.60125 3.79998C9.75889 3.61075 9.95227 3.45444 10.1703 3.33996C10.3884 3.22549 10.6269 3.1551 10.8722 3.13282C11.1174 3.11053 11.3647 3.13678 11.5998 3.21007C11.8349 3.28337 12.0533 3.40226 12.2425 3.55998Z" fill="#F5F4EF"/>
<path fill-rule="evenodd" clip-rule="evenodd" d="M7.5 10C7.5 9.50272 7.69754 9.02581 8.04917 8.67417C8.40081 8.32254 8.87772 8.125 9.375 8.125H19.375C19.8723 8.125 20.3492 8.32254 20.7008 8.67417C21.0525 9.02581 21.25 9.50272 21.25 10C21.25 10.4973 21.0525 10.9742 20.7008 11.3258C20.3492 11.6775 19.8723 11.875 19.375 11.875H9.375C8.87772 11.875 8.40081 11.6775 8.04917 11.3258C7.69754 10.9742 7.5 10.4973 7.5 10Z" fill="#F5F4EF"/>
</g>
<path fill-rule="evenodd" clip-rule="evenodd" d="M10.8163 17.98C10.6889 18.086 10.5247 18.1372 10.3597 18.1222C10.1947 18.1072 10.0424 18.0273 9.93626 17.9L5.77001 12.9C5.71513 12.8373 5.67336 12.7642 5.64714 12.6851C5.62092 12.606 5.61079 12.5225 5.61733 12.4394C5.62388 12.3563 5.64698 12.2754 5.68527 12.2013C5.72356 12.1273 5.77626 12.0617 5.84029 12.0083C5.90431 11.955 5.97836 11.915 6.05807 11.8907C6.13778 11.8664 6.22155 11.8582 6.30445 11.8668C6.38735 11.8753 6.46771 11.9003 6.54079 11.9404C6.61387 11.9805 6.6782 12.0347 6.73001 12.1L10.8963 17.1C11.0023 17.2273 11.0534 17.3916 11.0384 17.5566C11.0234 17.7216 10.9435 17.8739 10.8163 17.98Z" fill="#F5F4EF"/>
<path fill-rule="evenodd" clip-rule="evenodd" d="M10.8163 7.01995C10.9435 7.12607 11.0234 7.27837 11.0384 7.44339C11.0534 7.60841 11.0023 7.77263 10.8963 7.89995L6.73001 12.9C6.6782 12.9652 6.61387 13.0195 6.54079 13.0596C6.46771 13.0996 6.38735 13.1246 6.30445 13.1332C6.22155 13.1417 6.13778 13.1336 6.05807 13.1093C5.97836 13.085 5.90431 13.045 5.84029 12.9916C5.77626 12.9383 5.72356 12.8726 5.68527 12.7986C5.64698 12.7246 5.62388 12.6437 5.61733 12.5606C5.61079 12.4775 5.62092 12.394 5.64714 12.3148C5.67336 12.2357 5.71513 12.1627 5.77001 12.1L9.93626 7.09995C10.0424 6.97269 10.1947 6.89277 10.3597 6.87777C10.5247 6.86277 10.6889 6.91391 10.8163 7.01995Z" fill="#F5F4EF"/>
<path fill-rule="evenodd" clip-rule="evenodd" d="M6.25 12.5C6.25 12.3342 6.31585 12.1753 6.43306 12.0581C6.55027 11.9408 6.70924 11.875 6.875 11.875H18.75C18.9158 11.875 19.0747 11.9408 19.1919 12.0581C19.3092 12.1753 19.375 12.3342 19.375 12.5C19.375 12.6658 19.3092 12.8247 19.1919 12.9419C19.0747 13.0592 18.9158 13.125 18.75 13.125H6.875C6.70924 13.125 6.55027 13.0592 6.43306 12.9419C6.31585 12.8247 6.25 12.6658 6.25 12.5Z" fill="#F5F4EF"/>
</svg>
