<svg width="25" height="26" viewBox="0 0 25 26" fill="none" xmlns="http://www.w3.org/2000/svg">
<path opacity="0.2" d="M8.125 16.5985C7.62772 16.5985 7.15081 16.401 6.79917 16.0493C6.44754 15.6977 6.25 15.2208 6.25 14.7235C6.25 14.2262 6.44754 13.7493 6.79917 13.3977C7.15081 13.0461 7.62772 12.8485 8.125 12.8485H20.625C21.1223 12.8485 21.5992 13.0461 21.9508 13.3977C22.3025 13.7493 22.5 14.2262 22.5 14.7235C22.5 15.2208 22.3025 15.6977 21.9508 16.0493C21.5992 16.401 21.1223 16.5985 20.625 16.5985H8.125Z" fill="#937962"/>
<path d="M6.25 14.0985C6.08424 14.0985 5.92527 14.0327 5.80806 13.9155C5.69085 13.7982 5.625 13.6393 5.625 13.4735C5.625 13.3078 5.69085 13.1488 5.80806 13.0316C5.92527 12.9144 6.08424 12.8485 6.25 12.8485H18.75C18.9158 12.8485 19.0747 12.9144 19.1919 13.0316C19.3092 13.1488 19.375 13.3078 19.375 13.4735C19.375 13.6393 19.3092 13.7982 19.1919 13.9155C19.0747 14.0327 18.9158 14.0985 18.75 14.0985H6.25Z" fill="#937962"/>
</svg>
