<svg width="66" height="79" viewBox="0 0 66 79" fill="none" xmlns="http://www.w3.org/2000/svg">
<path d="M12.6964 52.4094C13.0183 52.9 14.6058 56.4625 14.9526 57.4734C15.737 59.75 16.1058 62.1141 16.0151 64.2656C15.9089 66.7906 15.5948 69.1281 15.2011 70.3438C15.0901 70.6844 15.0354 70.7719 14.9354 70.7719C14.7386 70.7719 14.7479 70.5594 14.9917 69.4391C15.5136 67.0422 15.737 63.7328 15.5089 61.7891C15.3495 60.4375 15.0136 59.0016 14.5214 57.5672C14.2433 56.7594 12.9636 53.775 12.5401 52.9484C12.4011 52.6766 12.3042 52.4125 12.3245 52.3609C12.3776 52.2203 12.5901 52.2484 12.6964 52.4094Z" fill="#BFAE9F"/>
<path d="M8.00576 21.2359C8.18701 21.3438 8.34169 21.5 8.42138 21.6562C8.49169 21.7922 8.68075 22.0578 8.84326 22.2469C9.00576 22.4344 9.3495 22.9031 9.60575 23.2875C10.1854 24.15 10.2479 24.2281 10.5151 24.4234L10.7276 24.5812L11.0589 24.3937C11.6276 24.0734 12.0636 24.1891 12.2448 24.7125L12.3104 24.8969L12.5886 24.6859C12.7417 24.5688 12.9745 24.4375 13.1073 24.3937C13.3729 24.3062 14.3151 23.7172 14.4479 23.5547C14.4948 23.4984 14.6808 23.4219 14.8604 23.3828C15.4214 23.2641 16.6433 22.5172 16.7104 22.2531C16.7308 22.1734 16.8261 22.0781 16.9214 22.0438C17.3433 21.8859 17.6183 21.7188 17.6979 21.5719C17.7714 21.4312 17.7651 21.3781 17.6354 21.1203C17.5073 20.8625 17.4933 20.7641 17.5245 20.3109C17.5651 19.7031 17.962 17.675 18.1151 17.2938C18.1854 17.1172 18.3558 16.9141 18.6214 16.6875C19.0042 16.3641 19.0339 16.35 19.262 16.4016C19.5573 16.4672 19.662 16.6031 19.9526 17.2938C20.137 17.7344 20.1933 17.9688 20.2386 18.4937C20.2698 18.8531 20.3136 19.1641 20.3339 19.1844C20.3839 19.2344 20.5526 19.0063 20.5526 18.8906C20.5526 18.8422 20.6573 18.4547 20.7854 18.0297C21.0323 17.2094 21.1948 16.9156 21.8495 16.1172C22.0448 15.8781 22.3089 15.5078 22.4354 15.2937C22.562 15.0813 22.7292 14.8078 22.8089 14.6844C22.8901 14.5594 22.9667 14.3125 22.9886 14.1141C23.0167 13.8438 23.062 13.7344 23.1854 13.6344C23.3417 13.5094 23.3464 13.4828 23.3464 12.7469C23.3464 11.5469 23.0323 10.1031 22.6011 9.32031L22.4261 9.00313L22.0073 8.9625C21.4839 8.91094 21.3151 8.82344 19.9979 7.93125C19.4136 7.53594 18.7104 7.08906 18.437 6.93906C17.8448 6.61719 17.0464 6.29531 16.9886 6.35625C16.9651 6.38125 16.8995 6.65781 16.8433 6.97187C16.6933 7.8 16.4433 8.54375 16.1995 8.89062C16.0308 9.12813 15.8448 9.27187 15.3323 9.56094C13.5667 10.5562 12.8792 10.7734 11.9589 10.6266C11.6761 10.5797 10.8433 10.5203 10.1104 10.4922C8.38232 10.4281 8.10107 10.3453 7.46982 9.7125C7.07294 9.31562 6.84794 8.93281 6.64951 8.31875C6.48544 7.80625 6.45575 7.81406 6.09013 8.48438C5.76669 9.07969 5.60263 9.53281 5.37763 10.4516C5.19013 11.2203 5.18388 11.2875 4.9995 14.525L4.93388 15.6656L4.6495 16.2297C4.47919 16.5688 4.36513 16.8828 4.36513 17.0109C4.36513 17.4984 5.40732 19.2109 6.1245 19.9016C6.51669 20.2797 7.14794 20.7266 8.00576 21.2359ZM21.8979 7.48906C21.4526 6.54375 20.7151 5.76562 19.7917 5.27031C19.2245 4.96719 19.0104 4.90781 18.1198 4.81406C16.9433 4.68906 17.0339 4.65 17.012 5.29531L16.9933 5.84219L17.3933 5.9875C18.137 6.25625 19.012 6.74062 20.2136 7.54844C20.6417 7.8375 21.1839 8.33594 21.6933 8.475C22.3558 8.65625 22.0339 7.77812 21.8979 7.48906ZM16.512 4.63281C16.4886 4.60937 16.4167 4.59062 16.3526 4.59062C16.2495 4.59062 16.237 4.64844 16.237 5.09219C16.237 5.59062 16.2729 5.67031 16.4964 5.67031C16.562 5.67031 16.5761 4.69844 16.512 4.63281ZM16.362 3.45469C16.1776 2.68437 15.9308 2.26875 15.2901 1.65156C14.3745 0.76875 13.9698 0.635937 11.8558 0.528124C11.0714 0.4875 10.4136 0.439062 10.3964 0.420312C10.3386 0.360937 9.23388 0.448437 8.71357 0.554687C7.66982 0.770312 6.83544 1.34062 6.33544 2.18281C6.18857 2.43125 6.07919 2.64375 6.09325 2.65781C6.10575 2.67187 6.34482 2.59375 6.62294 2.48437C7.04794 2.31719 7.23544 2.28125 7.8245 2.25781C8.44794 2.23281 8.55419 2.21094 8.80888 2.05469C9.81825 1.43594 10.2183 1.275 11.262 1.06719C12.1667 0.8875 12.7183 0.870312 13.3979 0.999999C14.7183 1.25156 15.7683 2.25 16.0448 3.5125C16.1667 4.075 16.1714 4.08281 16.3354 4.08281C16.5214 4.08281 16.5198 4.11562 16.362 3.45469ZM15.6495 3.70937C15.5933 3.3 15.2573 2.65469 14.9042 2.28125C14.537 1.89219 14.0089 1.5875 13.4667 1.45C12.9073 1.30781 11.7401 1.3625 10.9386 1.57031C10.3511 1.72187 9.25107 2.21406 9.20888 2.34375C9.1995 2.375 9.42607 2.46562 9.71357 2.54687C10.0745 2.64687 10.4433 2.81719 10.9042 3.09531C11.8526 3.67031 11.9761 3.70156 13.2386 3.70156C14.1792 3.70312 15.0933 3.79375 15.5636 3.93437C15.6714 3.96719 15.6808 3.94375 15.6495 3.70937ZM6.92763 6.28906C6.98388 6.39844 7.05576 6.50312 7.08544 6.52187C7.11513 6.54063 7.35107 6.39531 7.61044 6.2C8.43388 5.57656 8.95888 5.40781 10.4386 5.29375C12.1729 5.15937 13.7448 5.14531 14.5229 5.25625C14.9245 5.31406 15.3745 5.37656 15.5229 5.39687L15.7917 5.43281V4.95156C15.7917 4.6875 15.7667 4.45625 15.7354 4.43594C15.5104 4.29687 14.6026 4.1875 13.3479 4.14844C11.7495 4.09844 11.6651 4.07812 10.7276 3.49687C10.1089 3.1125 9.79482 2.97969 9.19013 2.85C8.58076 2.72031 8.57294 2.72187 8.23388 3.07031C7.70419 3.61406 7.32138 4.2625 7.03544 5.09687C6.837 5.67812 6.80263 6.04844 6.92763 6.28906ZM15.6651 6.0125C15.6651 5.88594 15.4464 5.81406 14.7276 5.70469C13.9698 5.58906 11.3917 5.62031 10.0745 5.7625C8.99013 5.87812 8.51669 6.04375 7.88544 6.52656C7.62607 6.72656 7.412 6.92812 7.412 6.975C7.412 7.08281 7.937 7.71406 8.31669 8.0625C8.81201 8.51719 9.17451 8.65937 10.0776 8.75625C11.5042 8.90781 12.0417 8.85781 13.3167 8.45C14.1401 8.1875 14.4604 8.01406 14.7714 7.66094C15.0292 7.36875 15.6651 6.19531 15.6651 6.0125ZM14.3042 8.55937C13.8401 8.76562 12.5808 9.12656 11.9839 9.22656C11.5167 9.30469 11.3417 9.3 9.86669 9.16406C8.81513 9.06875 8.262 8.75469 7.46357 7.79687C7.24482 7.53594 7.02919 7.32031 6.98544 7.32031C6.86201 7.32031 6.88701 7.61406 7.05576 8.16094C7.23076 8.725 7.50419 9.18594 7.85732 9.50469C8.35419 9.95312 8.74794 10.05 10.0589 10.05C10.6026 10.05 11.2479 10.0922 11.6261 10.1531C12.7276 10.3297 13.2808 10.2078 14.5229 9.51562C15.8026 8.80469 15.7792 8.82187 15.9839 8.38437C16.3386 7.62969 16.6058 6.22656 16.4198 6.10937C16.2761 6.01719 16.1073 6.04375 16.0745 6.1625C16.0558 6.22344 15.8792 6.6 15.6792 7C15.2526 7.85781 14.8448 8.32031 14.3042 8.55937ZM6.14169 4.48125C6.43544 5.40156 6.45107 5.40625 6.73857 4.67344C7.01825 3.95937 7.29794 3.46875 7.66357 3.05312C7.80419 2.89375 7.91982 2.74531 7.91982 2.725C7.91982 2.63281 7.33232 2.7 6.92294 2.83906C6.37763 3.025 6.16513 3.15781 6.04482 3.39062C5.912 3.64531 5.92763 3.81562 6.14169 4.48125ZM5.48232 3.975C5.44482 3.9875 5.32138 4.29531 5.20575 4.65937C5.09169 5.02344 4.91513 5.73594 4.81357 6.24375C4.63075 7.15937 4.52138 7.48281 3.82919 9.18281C3.29325 10.4953 3.23232 11.3203 3.53857 13.1297C3.60888 13.5484 3.66669 14.0406 3.66669 14.2219C3.66669 15.0563 3.87607 16.3313 4.01982 16.3797C4.05419 16.3906 4.17919 16.2078 4.29482 15.9719C4.537 15.4797 4.57919 15.1469 4.65107 13.1297C4.70263 11.6547 4.80888 10.8344 5.06982 9.90469C5.2995 9.08594 5.6245 8.36562 6.06669 7.69531L6.37607 7.225L6.33388 6.62344C6.29638 6.10312 6.2495 5.92344 5.99638 5.32187C5.83388 4.9375 5.66825 4.47187 5.62607 4.2875C5.58388 4.10312 5.51982 3.9625 5.48232 3.975ZM0.0135671 41.7281C0.141692 39.7922 0.222942 39.3703 0.663567 38.3359C1.25419 36.9516 1.45732 36.6344 2.20107 35.9203C2.56669 35.5703 3.38232 34.7859 4.01513 34.1734C4.64794 33.5641 5.5995 32.6531 6.13232 32.1516C6.66357 31.6516 7.17138 31.1453 7.26044 31.0297C7.3995 30.8453 7.8745 29.825 8.40732 28.5578C8.66357 27.9516 8.9495 26.6 8.94482 26.0328C8.93701 25.2937 8.67294 24.3719 8.21513 23.4781C7.9995 23.0562 7.81982 22.8344 7.16044 22.1766C6.72138 21.7391 6.1495 21.1266 5.88857 20.8125C5.62763 20.4984 5.19482 20.0094 4.92607 19.725C4.28232 19.0406 4.06825 18.5953 3.95419 17.7C3.93075 17.5266 3.81669 17.1547 3.6995 16.875C3.43388 16.2469 3.30732 15.5859 3.25419 14.5578C3.23075 14.1219 3.15419 13.4359 3.08388 13.0344C2.93857 12.2109 2.89794 11.2672 2.97607 10.5547C3.02919 10.0719 3.27607 9.30937 3.68388 8.36875C4.08544 7.44219 4.23232 6.97969 4.40107 6.11562C4.73232 4.40937 5.46044 2.60156 6.2495 1.52812C6.7245 0.881249 7.61044 0.360937 8.59013 0.153124C9.38857 -0.0156256 9.96513 -0.0390627 11.062 0.0546869C11.587 0.0999997 12.2667 0.139062 12.5729 0.142187C13.3167 0.148437 14.0058 0.296874 14.5854 0.574999C14.9683 0.756249 15.1823 0.921874 15.6667 1.41094C16.4526 2.20469 16.6104 2.53125 16.9136 3.98437C16.9776 4.28906 17.0245 4.30469 18.1417 4.39375C19.1776 4.47656 19.7261 4.66719 20.5558 5.22812C21.5151 5.87812 22.5261 7.37656 22.6308 8.30312C22.6526 8.49687 22.7495 8.76562 22.8776 8.9875C23.1542 9.46562 23.4386 10.2812 23.6104 11.0859C23.7229 11.6156 23.7495 11.9578 23.7542 12.9703C23.7558 13.4 23.6464 13.6906 23.4964 14.0813C23.387 14.3672 23.4026 14.6828 23.3854 14.9859C23.337 15.8922 23.2214 16.6281 23.0714 16.9875C23.0167 17.1187 22.8136 17.4359 22.6214 17.6906C22.1042 18.3766 22.0136 18.7094 21.6417 21.2578C21.5823 21.6656 20.9714 23.0297 20.7761 23.1906C20.7183 23.2391 20.6011 23.4156 20.5167 23.5812C20.0292 24.5437 18.9214 25.9234 18.2448 26.4094C18.0651 26.5391 17.7667 26.7844 17.5808 26.9562C17.2573 27.2578 17.2308 27.2688 16.962 27.2313L16.6808 27.1938L16.6839 28.2563C16.687 29.4016 16.7042 29.4797 17.0729 29.9109C17.2917 30.1672 17.8214 30.4531 18.2683 30.5578C18.4604 30.6016 18.6604 30.6609 18.712 30.6891C19.012 30.8484 20.4823 31.0469 22.4261 31.1906C22.8792 31.225 23.5792 31.2969 23.9808 31.35C24.3823 31.4031 24.9261 31.4609 25.187 31.4766C26.3011 31.5453 27.837 32.0828 28.7526 32.7266C29.7558 33.4297 30.6948 35.3641 30.8917 37.1359C30.9698 37.8281 30.9276 38.2375 30.7823 38.2359C30.5776 38.2344 30.5386 38.1312 30.4979 37.5C30.4261 36.3797 30.0698 35.2438 29.4636 34.2047C29.0261 33.4594 28.5901 33.0625 27.7214 32.6281C26.5698 32.0516 25.1745 31.7703 22.8073 31.6344C19.0464 31.4188 17.6026 31.0812 16.7104 30.2062C16.4026 29.9062 16.312 29.7719 16.2792 29.5719C16.1901 29.0234 16.2386 27.6922 16.3933 26.5156C16.4792 25.8578 16.5808 25.075 16.6183 24.7781C16.7495 23.7625 16.7589 23.7313 16.9354 23.7313C17.0886 23.7313 17.0948 23.7469 17.112 24.2078C17.1229 24.4688 17.0979 25.1484 17.0573 25.7172C17.0151 26.2859 17.0011 26.7703 17.0229 26.7922C17.0464 26.8156 17.1854 26.7172 17.3323 26.575C17.4808 26.4328 17.7308 26.2375 17.887 26.1406C18.2667 25.9047 19.0854 25.0516 19.4933 24.4641C20.1729 23.4859 21.1542 21.6625 21.2151 21.2672C21.2308 21.1562 21.3073 20.6219 21.3823 20.0812C21.5386 18.9578 21.812 18.0156 22.0667 17.7141C22.4151 17.3016 22.6058 17.0125 22.7136 16.725C22.8292 16.4219 23.0058 15.4656 22.9558 15.4156C22.9261 15.3859 22.5292 15.8844 21.8261 16.8312C21.4511 17.3359 21.3964 17.4531 21.1761 18.2078C21.0433 18.6625 20.9354 19.0797 20.9354 19.1359C20.9339 19.275 20.3964 19.7641 20.2448 19.7641C20.1792 19.7641 20.0917 19.7234 20.0511 19.675C19.9589 19.5641 19.7917 18.6969 19.7917 18.3266C19.7917 18.0375 19.4214 17.025 19.2526 16.8516C19.1808 16.7766 19.1386 16.7844 18.9761 16.9C18.6042 17.1656 18.4745 17.3859 18.3386 18C17.9698 19.6484 17.8636 20.6891 18.037 20.9391C18.3808 21.4328 18.0651 22.0797 17.3479 22.3516C17.1729 22.4172 17.037 22.5047 17.0448 22.5453C17.0667 22.6438 16.2339 23.2594 15.7589 23.4953C15.5479 23.6016 15.2495 23.7219 15.0933 23.7625C14.937 23.8047 14.7089 23.9188 14.587 24.0141C14.1933 24.3219 13.5276 24.7156 13.2261 24.8188C13.0245 24.8875 12.862 25.0063 12.7042 25.1969C12.5323 25.4094 12.4308 25.4766 12.2948 25.4766C12.1011 25.4766 12.0276 25.3859 11.8558 24.9375C11.7323 24.6172 11.5542 24.5797 11.2292 24.8047C10.6292 25.2203 10.1558 24.9094 9.20419 23.4781C8.64169 22.6281 8.25732 22.2328 7.50732 21.7359L6.99951 21.3984L7.60888 22.025C7.94482 22.3703 8.28076 22.7437 8.35575 22.8547C8.87294 23.6125 9.31044 24.9328 9.36044 25.8891C9.39169 26.4641 9.37294 26.6172 9.16513 27.5047C8.98857 28.2531 8.85107 28.6656 8.57763 29.25C8.38232 29.6719 8.18544 30.1172 8.14169 30.2422C7.90575 30.9047 7.64482 31.2828 6.94325 31.9781C6.0995 32.8141 3.6745 35.1313 2.63075 36.0984C2.11825 36.5734 1.72763 37.1156 1.41669 37.75C0.654192 39.3047 0.538567 39.7891 0.451067 41.7906C0.34013 44.3297 0.869817 45.8766 2.74794 48.4906C3.11669 49.0047 3.71357 49.9156 4.0745 50.5125C4.43388 51.1109 5.00263 51.9859 5.337 52.4578C6.39325 53.9437 7.85732 56.5187 9.50419 59.7891C10.3339 61.4375 10.9261 63.3141 11.0058 64.5422C11.0417 65.0906 11.0261 65.2656 10.9073 65.725C10.8308 66.0219 10.6792 66.4297 10.5714 66.6328C10.337 67.0719 9.33857 68.1937 8.01826 69.5031C7.58388 69.9328 7.14169 70.3641 6.75419 70.8375C6.58388 71.0453 6.44794 71.2891 6.26357 71.4828C6.11513 71.6375 5.99013 71.8531 5.83857 71.9937C5.74325 72.0844 5.51513 72.1719 5.53857 71.9312C5.55419 71.7812 5.7745 71.4734 5.8495 71.3344C5.97294 71.1016 6.15575 70.9078 6.31825 70.7047C6.73075 70.1891 7.20575 69.7219 7.66669 69.2516C9.562 67.3109 10.0526 66.7469 10.2886 66.2422C10.687 65.3906 10.5948 64.6188 10.4245 63.725C10.2933 63.0234 10.0604 62.3406 9.84169 61.6625C9.54794 60.7516 8.48857 58.6453 6.91982 55.8531C5.98857 54.1953 5.62919 53.6125 4.93075 52.6312C4.57763 52.1344 4.01669 51.2703 3.68544 50.7109C3.35419 50.1531 2.81044 49.3156 2.47607 48.85C1.34013 47.2672 0.535442 45.7812 0.27138 44.7812C0.0823172 44.0594 -0.0426825 42.5844 0.0135671 41.7281Z" fill="#BFAE9F"/>
<path d="M16.452 69.5519H19.202V43.6629H16.452V69.5519Z" fill="#EEE3D7"/>
<path d="M43.9904 43.6629C36.217 43.6629 33.8701 54.5551 33.1732 62.9879L24.8123 43.6629H21.7685V69.5519H21.9888V44.3238L23.0154 46.7441L32.917 69.5519H33.2826C33.2826 62.8785 33.8701 47.6238 41.2045 44.5441V69.5519H43.9904V43.6629Z" fill="#EEE3D7"/>
<path d="M48.4248 49.8973C48.4248 54.077 52.2748 56.1676 56.1998 57.9285C64.7435 61.852 65.4029 65.6285 62.9826 67.6457C58.3623 71.5316 50.1482 68.3426 46.5545 59.2473V64.3457C50.6982 69.6613 59.0951 71.1285 63.2764 67.9379C64.5967 66.8754 65.4029 65.3348 65.4029 63.3551C65.4029 59.0285 61.5889 56.9379 57.592 55.2145C48.6451 51.0348 48.3514 47.0004 51.2123 45.1301C54.5857 42.7832 61.2592 43.3332 64.9623 50.8504V47.0004C61.8092 41.9035 48.4248 41.7207 48.4248 49.8973Z" fill="#EEE3D7"/>
<path d="M16.7582 76.3969C17.1473 76.3157 17.4629 76.0751 17.4629 75.6438C17.4629 75.0907 16.8879 74.8751 16.1676 74.8751H15.3379V78.2641H16.4754C17.2145 78.2594 17.7895 78.0954 17.7895 77.3235C17.7895 76.6422 17.3629 76.4407 16.7582 76.3969ZM17.4161 77.3235C17.4161 78.1875 16.8676 78.2251 16.4364 78.2251H15.7161V75.5907C15.7551 75.7782 15.8129 75.9407 15.8989 76.0704C16.0379 76.2907 16.2489 76.4204 16.4754 76.4204C16.8926 76.4204 17.4161 76.4641 17.4161 77.3235ZM17.0895 75.6438C17.0895 76.1672 16.7957 76.3829 16.4754 76.3829C16.2582 76.3829 16.0723 76.2626 15.9379 76.0469C15.7973 75.8454 15.7161 75.5563 15.7161 75.2251V74.9094H16.1676C16.6286 74.9094 17.0895 75.0954 17.0895 75.6438Z" fill="#C9BEB9"/>
<path d="M20.7323 76.0032C20.8714 76.5704 21.4479 76.5407 21.726 76.8579V76.4782C21.0682 76.4782 20.7323 76.3438 20.7323 75.686V74.9094H21.126C21.712 74.9094 21.9604 74.9329 22.3026 75.2594V74.8751H20.3635V78.2641H22.2729L22.3839 77.5532C22.2104 78.0391 21.9604 78.2251 21.5432 78.2251H20.7323V76.0032Z" fill="#C9BEB9"/>
<path d="M27.29 78.2641H27.6931L26.2572 74.8751H26.2243C25.8587 75.4938 25.4275 76.3688 25.1728 77.0547C25.0571 77.361 24.99 77.6297 24.9665 77.8422C24.9415 78.0579 24.9946 78.2016 25.1243 78.2594C25.1587 78.2876 25.1728 78.2876 25.2009 78.2922C25.4165 78.3032 25.4993 78.1251 25.59 77.8844C25.7431 77.5344 25.9306 77.0407 26.7462 76.9626L27.29 78.2641ZM26.7322 76.9297C25.9025 77.011 25.7103 77.5157 25.5509 77.8751C25.4743 78.0954 25.3978 78.2641 25.2056 78.2501C25.1822 78.236 25.1681 78.236 25.1384 78.2251C25.0243 78.1876 24.99 78.0391 24.9993 77.8422C25.0243 77.636 25.0915 77.3719 25.2056 77.0641C25.4072 76.5079 25.7337 75.8547 26.0275 75.2876L26.7322 76.9297Z" fill="#C9BEB9"/>
<path d="M30.6441 74.8704H30.266V77.036C30.266 77.986 31.216 78.5001 32.0753 78.1922C32.5784 78.0047 32.8425 77.5688 32.8425 77.036V74.8704H32.4691C32.7847 75.2829 32.8003 76.3157 32.8003 77.036C32.8003 77.5876 32.5253 77.986 32.066 78.1532C31.2925 78.4422 30.6441 77.8329 30.6441 77.036V74.8704Z" fill="#C9BEB9"/>
<path d="M36.5585 78.2641H36.9273V74.9094C37.4367 74.9141 37.7429 74.9422 38.0695 75.2454V74.8704H35.4164V75.2454C35.732 74.9422 36.0445 74.9141 36.5585 74.9094V78.2641Z" fill="#C9BEB9"/>
<path d="M43.0186 75.1438C43.0529 75.0579 43.2342 74.8797 43.3592 74.8704H42.817C42.9092 74.8797 43.0623 74.9719 42.9607 75.1688L42.1686 76.7047L41.8139 76.1141L41.0748 74.8704H40.6436L41.8139 76.8391V78.2641H42.1936V76.7376L43.0186 75.1438Z" fill="#C9BEB9"/>
</svg>
