<svg width="66" height="79" viewBox="0 0 66 79" fill="none" xmlns="http://www.w3.org/2000/svg">
<path d="M12.6964 52.7021C13.0183 53.1927 14.6058 56.7552 14.9526 57.7662C15.737 60.0427 16.1058 62.4068 16.0151 64.5584C15.9089 67.0834 15.5948 69.4209 15.2011 70.6365C15.0901 70.9771 15.0354 71.0646 14.9354 71.0646C14.7386 71.0646 14.7479 70.8521 14.9917 69.7318C15.5136 67.3349 15.737 64.0255 15.5089 62.0818C15.3495 60.7302 15.0136 59.2943 14.5214 57.8599C14.2433 57.0521 12.9636 54.0677 12.5401 53.2412C12.4011 52.9693 12.3042 52.7052 12.3245 52.6537C12.3776 52.513 12.5901 52.5412 12.6964 52.7021Z" fill="#C9BEB9"/>
<path d="M8.00576 21.5287C8.18701 21.6365 8.34169 21.7927 8.42138 21.949C8.49169 22.0849 8.68075 22.3505 8.84326 22.5396C9.00576 22.7271 9.3495 23.1959 9.60575 23.5802C10.1854 24.4427 10.2479 24.5208 10.5151 24.7162L10.7276 24.874L11.0589 24.6865C11.6276 24.3662 12.0636 24.4818 12.2448 25.0052L12.3104 25.1896L12.5886 24.9787C12.7417 24.8615 12.9745 24.7302 13.1073 24.6865C13.3729 24.599 14.3151 24.0099 14.4479 23.8474C14.4948 23.7912 14.6808 23.7146 14.8604 23.6755C15.4214 23.5568 16.6433 22.8099 16.7104 22.5458C16.7308 22.4662 16.8261 22.3708 16.9214 22.3365C17.3433 22.1787 17.6183 22.0115 17.6979 21.8646C17.7714 21.724 17.7651 21.6708 17.6354 21.413C17.5073 21.1552 17.4933 21.0568 17.5245 20.6037C17.5651 19.9958 17.962 17.9677 18.1151 17.5865C18.1854 17.4099 18.3558 17.2068 18.6214 16.9802C19.0042 16.6568 19.0339 16.6427 19.262 16.6943C19.5573 16.7599 19.662 16.8959 19.9526 17.5865C20.137 18.0271 20.1933 18.2615 20.2386 18.7865C20.2698 19.1458 20.3136 19.4568 20.3339 19.4771C20.3839 19.5271 20.5526 19.299 20.5526 19.1833C20.5526 19.1349 20.6573 18.7474 20.7854 18.3224C21.0323 17.5021 21.1948 17.2083 21.8495 16.4099C22.0448 16.1708 22.3089 15.8005 22.4354 15.5865C22.562 15.374 22.7292 15.1005 22.8089 14.9771C22.8901 14.8521 22.9667 14.6052 22.9886 14.4068C23.0167 14.1365 23.062 14.0271 23.1854 13.9271C23.3417 13.8021 23.3464 13.7755 23.3464 13.0396C23.3464 11.8396 23.0323 10.3958 22.6011 9.61304L22.4261 9.29585L22.0073 9.25522C21.4839 9.20366 21.3151 9.11616 19.9979 8.22397C19.4136 7.82866 18.7104 7.38179 18.437 7.23179C17.8448 6.90991 17.0464 6.58804 16.9886 6.64897C16.9651 6.67397 16.8995 6.95054 16.8433 7.2646C16.6933 8.09272 16.4433 8.83647 16.1995 9.18335C16.0308 9.42085 15.8448 9.5646 15.3323 9.85366C13.5667 10.849 12.8792 11.0662 11.9589 10.9193C11.6761 10.8724 10.8433 10.813 10.1104 10.7849C8.38232 10.7208 8.10107 10.638 7.46982 10.0052C7.07294 9.60835 6.84794 9.22554 6.64951 8.61147C6.48544 8.09897 6.45575 8.10679 6.09013 8.7771C5.76669 9.37241 5.60263 9.82554 5.37763 10.7443C5.19013 11.513 5.18388 11.5802 4.9995 14.8177L4.93388 15.9583L4.6495 16.5224C4.47919 16.8615 4.36513 17.1755 4.36513 17.3037C4.36513 17.7912 5.40732 19.5037 6.1245 20.1943C6.51669 20.5724 7.14794 21.0193 8.00576 21.5287ZM21.8979 7.78179C21.4526 6.83647 20.7151 6.05835 19.7917 5.56304C19.2245 5.25991 19.0104 5.20054 18.1198 5.10679C16.9433 4.98179 17.0339 4.94272 17.012 5.58804L16.9933 6.13491L17.3933 6.28022C18.137 6.54897 19.012 7.03335 20.2136 7.84116C20.6417 8.13022 21.1839 8.62866 21.6933 8.76772C22.3558 8.94897 22.0339 8.07085 21.8979 7.78179ZM16.512 4.92554C16.4886 4.9021 16.4167 4.88335 16.3526 4.88335C16.2495 4.88335 16.237 4.94116 16.237 5.38491C16.237 5.88335 16.2729 5.96304 16.4964 5.96304C16.562 5.96304 16.5761 4.99116 16.512 4.92554ZM16.362 3.74741C16.1776 2.9771 15.9308 2.56147 15.2901 1.94429C14.3745 1.06147 13.9698 0.928662 11.8558 0.820849C11.0714 0.780224 10.4136 0.731787 10.3964 0.713037C10.3386 0.653662 9.23388 0.741162 8.71357 0.847412C7.66982 1.06304 6.83544 1.63335 6.33544 2.47554C6.18857 2.72397 6.07919 2.93647 6.09325 2.95054C6.10575 2.9646 6.34482 2.88647 6.62294 2.7771C7.04794 2.60991 7.23544 2.57397 7.8245 2.55054C8.44794 2.52554 8.55419 2.50366 8.80888 2.34741C9.81825 1.72866 10.2183 1.56772 11.262 1.35991C12.1667 1.18022 12.7183 1.16304 13.3979 1.29272C14.7183 1.54429 15.7683 2.54272 16.0448 3.80522C16.1667 4.36772 16.1714 4.37554 16.3354 4.37554C16.5214 4.37554 16.5198 4.40835 16.362 3.74741ZM15.6495 4.0021C15.5933 3.59272 15.2573 2.94741 14.9042 2.57397C14.537 2.18491 14.0089 1.88022 13.4667 1.74272C12.9073 1.60054 11.7401 1.65522 10.9386 1.86304C10.3511 2.0146 9.25107 2.50679 9.20888 2.63647C9.1995 2.66772 9.42607 2.75835 9.71357 2.8396C10.0745 2.9396 10.4433 3.10991 10.9042 3.38804C11.8526 3.96304 11.9761 3.99429 13.2386 3.99429C14.1792 3.99585 15.0933 4.08647 15.5636 4.2271C15.6714 4.25991 15.6808 4.23647 15.6495 4.0021ZM6.92763 6.58179C6.98388 6.69116 7.05576 6.79585 7.08544 6.8146C7.11513 6.83335 7.35107 6.68804 7.61044 6.49272C8.43388 5.86929 8.95888 5.70054 10.4386 5.58647C12.1729 5.4521 13.7448 5.43804 14.5229 5.54897C14.9245 5.60679 15.3745 5.66929 15.5229 5.6896L15.7917 5.72554V5.24429C15.7917 4.98022 15.7667 4.74897 15.7354 4.72866C15.5104 4.5896 14.6026 4.48022 13.3479 4.44116C11.7495 4.39116 11.6651 4.37085 10.7276 3.7896C10.1089 3.40522 9.79482 3.27241 9.19013 3.14272C8.58076 3.01304 8.57294 3.0146 8.23388 3.36304C7.70419 3.90679 7.32138 4.55522 7.03544 5.3896C6.837 5.97085 6.80263 6.34116 6.92763 6.58179ZM15.6651 6.30522C15.6651 6.17866 15.4464 6.10679 14.7276 5.99741C13.9698 5.88179 11.3917 5.91304 10.0745 6.05522C8.99013 6.17085 8.51669 6.33647 7.88544 6.81929C7.62607 7.01929 7.412 7.22085 7.412 7.26772C7.412 7.37554 7.937 8.00679 8.31669 8.35522C8.81201 8.80991 9.17451 8.9521 10.0776 9.04897C11.5042 9.20054 12.0417 9.15054 13.3167 8.74272C14.1401 8.48022 14.4604 8.30679 14.7714 7.95366C15.0292 7.66147 15.6651 6.48804 15.6651 6.30522ZM14.3042 8.8521C13.8401 9.05835 12.5808 9.41929 11.9839 9.51929C11.5167 9.59741 11.3417 9.59272 9.86669 9.45679C8.81513 9.36147 8.262 9.04741 7.46357 8.0896C7.24482 7.82866 7.02919 7.61304 6.98544 7.61304C6.86201 7.61304 6.88701 7.90679 7.05576 8.45366C7.23076 9.01772 7.50419 9.47866 7.85732 9.79741C8.35419 10.2458 8.74794 10.3427 10.0589 10.3427C10.6026 10.3427 11.2479 10.3849 11.6261 10.4458C12.7276 10.6224 13.2808 10.5005 14.5229 9.80835C15.8026 9.09741 15.7792 9.1146 15.9839 8.6771C16.3386 7.92241 16.6058 6.51929 16.4198 6.4021C16.2761 6.30991 16.1073 6.33647 16.0745 6.45522C16.0558 6.51616 15.8792 6.89272 15.6792 7.29272C15.2526 8.15054 14.8448 8.61304 14.3042 8.8521ZM6.14169 4.77397C6.43544 5.69429 6.45107 5.69897 6.73857 4.96616C7.01825 4.2521 7.29794 3.76147 7.66357 3.34585C7.80419 3.18647 7.91982 3.03804 7.91982 3.01772C7.91982 2.92554 7.33232 2.99272 6.92294 3.13179C6.37763 3.31772 6.16513 3.45054 6.04482 3.68335C5.912 3.93804 5.92763 4.10835 6.14169 4.77397ZM5.48232 4.26772C5.44482 4.28022 5.32138 4.58804 5.20575 4.9521C5.09169 5.31616 4.91513 6.02866 4.81357 6.53647C4.63075 7.4521 4.52138 7.77554 3.82919 9.47554C3.29325 10.788 3.23232 11.613 3.53857 13.4224C3.60888 13.8412 3.66669 14.3334 3.66669 14.5146C3.66669 15.349 3.87607 16.624 4.01982 16.6724C4.05419 16.6833 4.17919 16.5005 4.29482 16.2646C4.537 15.7724 4.57919 15.4396 4.65107 13.4224C4.70263 11.9474 4.80888 11.1271 5.06982 10.1974C5.2995 9.37866 5.6245 8.65835 6.06669 7.98804L6.37607 7.51772L6.33388 6.91616C6.29638 6.39585 6.2495 6.21616 5.99638 5.6146C5.83388 5.23022 5.66825 4.7646 5.62607 4.58022C5.58388 4.39585 5.51982 4.25522 5.48232 4.26772ZM0.0135671 42.0209C0.141692 40.0849 0.222942 39.663 0.663567 38.6287C1.25419 37.2443 1.45732 36.9271 2.20107 36.213C2.56669 35.863 3.38232 35.0787 4.01513 34.4662C4.64794 33.8568 5.5995 32.9459 6.13232 32.4443C6.66357 31.9443 7.17138 31.438 7.26044 31.3224C7.3995 31.138 7.8745 30.1177 8.40732 28.8505C8.66357 28.2443 8.9495 26.8927 8.94482 26.3255C8.93701 25.5865 8.67294 24.6646 8.21513 23.7708C7.9995 23.349 7.81982 23.1271 7.16044 22.4693C6.72138 22.0318 6.1495 21.4193 5.88857 21.1052C5.62763 20.7912 5.19482 20.3021 4.92607 20.0177C4.28232 19.3333 4.06825 18.888 3.95419 17.9927C3.93075 17.8193 3.81669 17.4474 3.6995 17.1677C3.43388 16.5396 3.30732 15.8787 3.25419 14.8505C3.23075 14.4146 3.15419 13.7287 3.08388 13.3271C2.93857 12.5037 2.89794 11.5599 2.97607 10.8474C3.02919 10.3646 3.27607 9.6021 3.68388 8.66147C4.08544 7.73491 4.23232 7.27241 4.40107 6.40835C4.73232 4.7021 5.46044 2.89429 6.2495 1.82085C6.7245 1.17397 7.61044 0.653662 8.59013 0.445849C9.38857 0.277099 9.96513 0.253662 11.062 0.347411C11.587 0.392724 12.2667 0.431787 12.5729 0.434911C13.3167 0.441162 14.0058 0.589599 14.5854 0.867724C14.9683 1.04897 15.1823 1.2146 15.6667 1.70366C16.4526 2.49741 16.6104 2.82397 16.9136 4.2771C16.9776 4.58179 17.0245 4.59741 18.1417 4.68647C19.1776 4.76929 19.7261 4.95991 20.5558 5.52085C21.5151 6.17085 22.5261 7.66929 22.6308 8.59585C22.6526 8.7896 22.7495 9.05835 22.8776 9.28022C23.1542 9.75835 23.4386 10.574 23.6104 11.3787C23.7229 11.9083 23.7495 12.2505 23.7542 13.263C23.7558 13.6927 23.6464 13.9833 23.4964 14.374C23.387 14.6599 23.4026 14.9755 23.3854 15.2787C23.337 16.1849 23.2214 16.9208 23.0714 17.2802C23.0167 17.4115 22.8136 17.7287 22.6214 17.9833C22.1042 18.6693 22.0136 19.0021 21.6417 21.5505C21.5823 21.9583 20.9714 23.3224 20.7761 23.4833C20.7183 23.5318 20.6011 23.7083 20.5167 23.874C20.0292 24.8365 18.9214 26.2162 18.2448 26.7021C18.0651 26.8318 17.7667 27.0771 17.5808 27.249C17.2573 27.5505 17.2308 27.5615 16.962 27.524L16.6808 27.4865L16.6839 28.549C16.687 29.6943 16.7042 29.7724 17.0729 30.2037C17.2917 30.4599 17.8214 30.7458 18.2683 30.8505C18.4604 30.8943 18.6604 30.9537 18.712 30.9818C19.012 31.1412 20.4823 31.3396 22.4261 31.4833C22.8792 31.5177 23.5792 31.5896 23.9808 31.6427C24.3823 31.6959 24.9261 31.7537 25.187 31.7693C26.3011 31.838 27.837 32.3755 28.7526 33.0193C29.7558 33.7224 30.6948 35.6568 30.8917 37.4287C30.9698 38.1208 30.9276 38.5302 30.7823 38.5287C30.5776 38.5271 30.5386 38.424 30.4979 37.7927C30.4261 36.6724 30.0698 35.5365 29.4636 34.4974C29.0261 33.7521 28.5901 33.3552 27.7214 32.9208C26.5698 32.3443 25.1745 32.063 22.8073 31.9271C19.0464 31.7115 17.6026 31.374 16.7104 30.499C16.4026 30.199 16.312 30.0646 16.2792 29.8646C16.1901 29.3162 16.2386 27.9849 16.3933 26.8083C16.4792 26.1505 16.5808 25.3677 16.6183 25.0709C16.7495 24.0552 16.7589 24.024 16.9354 24.024C17.0886 24.024 17.0948 24.0396 17.112 24.5005C17.1229 24.7615 17.0979 25.4412 17.0573 26.0099C17.0151 26.5787 17.0011 27.063 17.0229 27.0849C17.0464 27.1083 17.1854 27.0099 17.3323 26.8677C17.4808 26.7255 17.7308 26.5302 17.887 26.4333C18.2667 26.1974 19.0854 25.3443 19.4933 24.7568C20.1729 23.7787 21.1542 21.9552 21.2151 21.5599C21.2308 21.449 21.3073 20.9146 21.3823 20.374C21.5386 19.2505 21.812 18.3083 22.0667 18.0068C22.4151 17.5943 22.6058 17.3052 22.7136 17.0177C22.8292 16.7146 23.0058 15.7583 22.9558 15.7083C22.9261 15.6787 22.5292 16.1771 21.8261 17.124C21.4511 17.6287 21.3964 17.7458 21.1761 18.5005C21.0433 18.9552 20.9354 19.3724 20.9354 19.4287C20.9339 19.5677 20.3964 20.0568 20.2448 20.0568C20.1792 20.0568 20.0917 20.0162 20.0511 19.9677C19.9589 19.8568 19.7917 18.9896 19.7917 18.6193C19.7917 18.3302 19.4214 17.3177 19.2526 17.1443C19.1808 17.0693 19.1386 17.0771 18.9761 17.1927C18.6042 17.4583 18.4745 17.6787 18.3386 18.2927C17.9698 19.9412 17.8636 20.9818 18.037 21.2318C18.3808 21.7255 18.0651 22.3724 17.3479 22.6443C17.1729 22.7099 17.037 22.7974 17.0448 22.838C17.0667 22.9365 16.2339 23.5521 15.7589 23.788C15.5479 23.8943 15.2495 24.0146 15.0933 24.0552C14.937 24.0974 14.7089 24.2115 14.587 24.3068C14.1933 24.6146 13.5276 25.0084 13.2261 25.1115C13.0245 25.1802 12.862 25.299 12.7042 25.4896C12.5323 25.7021 12.4308 25.7693 12.2948 25.7693C12.1011 25.7693 12.0276 25.6787 11.8558 25.2302C11.7323 24.9099 11.5542 24.8724 11.2292 25.0974C10.6292 25.513 10.1558 25.2021 9.20419 23.7708C8.64169 22.9208 8.25732 22.5255 7.50732 22.0287L6.99951 21.6912L7.60888 22.3177C7.94482 22.663 8.28076 23.0365 8.35575 23.1474C8.87294 23.9052 9.31044 25.2255 9.36044 26.1818C9.39169 26.7568 9.37294 26.9099 9.16513 27.7974C8.98857 28.5459 8.85107 28.9583 8.57763 29.5427C8.38232 29.9646 8.18544 30.4099 8.14169 30.5349C7.90575 31.1974 7.64482 31.5755 6.94325 32.2708C6.0995 33.1068 3.6745 35.424 2.63075 36.3912C2.11825 36.8662 1.72763 37.4083 1.41669 38.0427C0.654192 39.5974 0.538567 40.0818 0.451067 42.0834C0.34013 44.6224 0.869817 46.1693 2.74794 48.7833C3.11669 49.2974 3.71357 50.2084 4.0745 50.8052C4.43388 51.4037 5.00263 52.2787 5.337 52.7505C6.39325 54.2365 7.85732 56.8115 9.50419 60.0818C10.3339 61.7302 10.9261 63.6068 11.0058 64.8349C11.0417 65.3833 11.0261 65.5583 10.9073 66.0177C10.8308 66.3146 10.6792 66.7224 10.5714 66.9255C10.337 67.3646 9.33857 68.4865 8.01826 69.7958C7.58388 70.2255 7.14169 70.6568 6.75419 71.1302C6.58388 71.338 6.44794 71.5818 6.26357 71.7755C6.11513 71.9302 5.99013 72.1458 5.83857 72.2865C5.74325 72.3771 5.51513 72.4646 5.53857 72.224C5.55419 72.074 5.7745 71.7662 5.8495 71.6271C5.97294 71.3943 6.15575 71.2005 6.31825 70.9974C6.73075 70.4818 7.20575 70.0146 7.66669 69.5443C9.562 67.6037 10.0526 67.0396 10.2886 66.5349C10.687 65.6833 10.5948 64.9115 10.4245 64.0177C10.2933 63.3162 10.0604 62.6333 9.84169 61.9552C9.54794 61.0443 8.48857 58.938 6.91982 56.1458C5.98857 54.488 5.62919 53.9052 4.93075 52.924C4.57763 52.4271 4.01669 51.563 3.68544 51.0037C3.35419 50.4459 2.81044 49.6083 2.47607 49.1427C1.34013 47.5599 0.535442 46.074 0.27138 45.074C0.0823172 44.3521 -0.0426825 42.8771 0.0135671 42.0209Z" fill="#C9BEB9"/>
<path d="M16.452 69.8447H19.202V43.9556H16.452V69.8447Z" fill="#BFAE9F"/>
<path d="M43.9904 43.9556C36.217 43.9556 33.8701 54.8478 33.1732 63.2806L24.8123 43.9556H21.7685V69.8447H21.9888V44.6165L23.0154 47.0369L32.917 69.8447H33.2826C33.2826 63.1712 33.8701 47.9165 41.2045 44.8369V69.8447H43.9904V43.9556Z" fill="#BFAE9F"/>
<path d="M48.4248 50.19C48.4248 54.3697 52.2748 56.4603 56.1998 58.2212C64.7435 62.1447 65.4029 65.9212 62.9826 67.9384C58.3623 71.8244 50.1482 68.6353 46.5545 59.54V64.6384C50.6982 69.9541 59.0951 71.4212 63.2764 68.2306C64.5967 67.1681 65.4029 65.6275 65.4029 63.6478C65.4029 59.3212 61.5889 57.2306 57.592 55.5072C48.6451 51.3275 48.3514 47.2931 51.2123 45.4228C54.5857 43.0759 61.2592 43.6259 64.9623 51.1431V47.2931C61.8092 42.1962 48.4248 42.0134 48.4248 50.19Z" fill="#BFAE9F"/>
<path d="M16.7582 76.6897C17.1473 76.6084 17.4629 76.3678 17.4629 75.9365C17.4629 75.3834 16.8879 75.1678 16.1676 75.1678H15.3379V78.5568H16.4754C17.2145 78.5522 17.7895 78.3881 17.7895 77.6162C17.7895 76.935 17.3629 76.7334 16.7582 76.6897ZM17.4161 77.6162C17.4161 78.4803 16.8676 78.5178 16.4364 78.5178H15.7161V75.8834C15.7551 76.0709 15.8129 76.2334 15.8989 76.3631C16.0379 76.5834 16.2489 76.7131 16.4754 76.7131C16.8926 76.7131 17.4161 76.7568 17.4161 77.6162ZM17.0895 75.9365C17.0895 76.46 16.7957 76.6756 16.4754 76.6756C16.2582 76.6756 16.0723 76.5553 15.9379 76.3397C15.7973 76.1381 15.7161 75.849 15.7161 75.5178V75.2021H16.1676C16.6286 75.2021 17.0895 75.3881 17.0895 75.9365Z" fill="#BFAE9F"/>
<path d="M20.7323 76.2959C20.8714 76.8631 21.4479 76.8334 21.726 77.1506V76.7709C21.0682 76.7709 20.7323 76.6365 20.7323 75.9787V75.2021H21.126C21.712 75.2021 21.9604 75.2256 22.3026 75.5522V75.1678H20.3635V78.5568H22.2729L22.3839 77.8459C22.2104 78.3318 21.9604 78.5178 21.5432 78.5178H20.7323V76.2959Z" fill="#BFAE9F"/>
<path d="M27.29 78.5568H27.6931L26.2572 75.1678H26.2243C25.8587 75.7865 25.4275 76.6615 25.1728 77.3475C25.0571 77.6537 24.99 77.9225 24.9665 78.135C24.9415 78.3506 24.9946 78.4943 25.1243 78.5522C25.1587 78.5803 25.1728 78.5803 25.2009 78.585C25.4165 78.5959 25.4993 78.4178 25.59 78.1772C25.7431 77.8272 25.9306 77.3334 26.7462 77.2553L27.29 78.5568ZM26.7322 77.2225C25.9025 77.3037 25.7103 77.8084 25.5509 78.1678C25.4743 78.3881 25.3978 78.5568 25.2056 78.5428C25.1822 78.5287 25.1681 78.5287 25.1384 78.5178C25.0243 78.4803 24.99 78.3318 24.9993 78.135C25.0243 77.9287 25.0915 77.6647 25.2056 77.3568C25.4072 76.8006 25.7337 76.1475 26.0275 75.5803L26.7322 77.2225Z" fill="#BFAE9F"/>
<path d="M30.6441 75.1631H30.266V77.3287C30.266 78.2787 31.216 78.7928 32.0753 78.485C32.5784 78.2975 32.8425 77.8615 32.8425 77.3287V75.1631H32.4691C32.7847 75.5756 32.8003 76.6084 32.8003 77.3287C32.8003 77.8803 32.5253 78.2787 32.066 78.4459C31.2925 78.735 30.6441 78.1256 30.6441 77.3287V75.1631Z" fill="#BFAE9F"/>
<path d="M36.5585 78.5568H36.9273V75.2022C37.4367 75.2068 37.7429 75.235 38.0695 75.5381V75.1631H35.4164V75.5381C35.732 75.235 36.0445 75.2068 36.5585 75.2022V78.5568Z" fill="#BFAE9F"/>
<path d="M43.0186 75.4365C43.0529 75.3506 43.2342 75.1725 43.3592 75.1631H42.817C42.9092 75.1725 43.0623 75.2647 42.9607 75.4615L42.1686 76.9975L41.8139 76.4068L41.0748 75.1631H40.6436L41.8139 77.1318V78.5568H42.1936V77.0303L43.0186 75.4365Z" fill="#BFAE9F"/>
</svg>
