<svg width="25" height="26" viewBox="0 0 25 26" fill="none" xmlns="http://www.w3.org/2000/svg">
<g clip-path="url(#clip0_163_6167)">
<path d="M21.3755 3.51375H20.7621C20.6699 3.51375 20.5923 3.56236 20.5426 3.63201V1.82691C20.5426 1.19063 20.0246 0.67297 19.3883 0.67297C18.752 0.67297 18.2343 1.19063 18.2343 1.82691V3.51375H17.1457C16.9944 3.51375 16.8722 3.636 16.8722 3.78727C16.8722 3.93854 16.9944 4.06079 17.1457 4.06079H18.2343V4.76346C18.2343 5.39974 18.752 5.9174 19.3883 5.9174C20.0249 5.9174 20.5426 5.39974 20.5426 4.76346V3.94253C20.5923 4.01254 20.6699 4.06079 20.7621 4.06079H21.3755C22.2893 4.06079 23.0322 4.80409 23.0322 5.71788V23.4688C23.0322 24.3826 22.2893 25.1256 21.3755 25.1256H3.62416C2.71073 25.1256 1.96744 24.3823 1.96744 23.4688V8.82492C5.04909 8.84197 8.15686 8.85104 11.2559 8.85104C12.7534 8.85104 14.2494 8.84887 15.7378 8.84488C15.8438 8.84451 15.929 8.75854 15.9286 8.65261C15.9283 8.54705 15.8427 8.4618 15.7371 8.4618H15.7364C11.1681 8.47377 6.53713 8.46688 1.96707 8.44185V7.34341C6.97063 7.3191 12.0199 7.31548 16.9785 7.33361H16.9792C17.0848 7.33361 17.1707 7.24837 17.1711 7.1428C17.1715 7.03688 17.0862 6.9509 16.9803 6.95054C12.021 6.9324 6.97099 6.93603 1.96744 6.96033V5.71752C1.96744 4.80372 2.71073 4.06043 3.62416 4.06043H4.5463C4.54703 4.06043 4.54739 4.06006 4.54812 4.06006V4.76309C4.54812 5.39938 5.06577 5.91704 5.70206 5.91704C6.33834 5.91704 6.856 5.39938 6.856 4.76309V4.06043H9.11019V4.76309C9.11019 5.39938 9.62785 5.91704 10.2641 5.91704C10.9004 5.91704 11.4181 5.39938 11.4181 4.76309V1.82655C11.4181 1.19027 10.9004 0.672607 10.2641 0.672607C9.62785 0.672607 9.11019 1.19027 9.11019 1.82655V3.51338H6.856V1.82655C6.856 1.19027 6.33834 0.672607 5.70206 0.672607C5.06577 0.672607 4.54812 1.19027 4.54812 1.82655V3.51375C4.54739 3.51375 4.54666 3.51338 4.5463 3.51338H3.62416C2.40892 3.51338 1.42039 4.50191 1.42039 5.71752V23.4685C1.42039 24.6837 2.40892 25.6726 3.62416 25.6726H21.3755C22.5907 25.6726 23.5796 24.6837 23.5796 23.4685V5.71788C23.5796 4.50227 22.5904 3.51375 21.3755 3.51375ZM19.9952 4.76346C19.9952 5.09792 19.7227 5.37036 19.3883 5.37036C19.0538 5.37036 18.7817 5.09792 18.7817 4.76346V1.82691C18.7817 1.49208 19.0538 1.22001 19.3883 1.22001C19.7231 1.22001 19.9952 1.49208 19.9952 1.82691V4.76346ZM9.65723 1.82691C9.65723 1.49208 9.9293 1.22001 10.2641 1.22001C10.5986 1.22001 10.871 1.49208 10.871 1.82691V4.76346C10.871 5.09792 10.5986 5.37036 10.2641 5.37036C9.9293 5.37036 9.65723 5.09792 9.65723 4.76346V1.82691ZM5.09516 1.82691C5.09516 1.49208 5.36723 1.22001 5.70206 1.22001C6.03688 1.22001 6.30896 1.49208 6.30896 1.82691V4.76346C6.30896 5.09792 6.03688 5.37036 5.70206 5.37036C5.36723 5.37036 5.09516 5.09792 5.09516 4.76346V1.82691Z" fill="#F8F8F8"/>
<path d="M12.4998 4.0608H13.6189C13.6378 4.0608 13.6545 4.0539 13.6723 4.05028V4.76383C13.6723 5.40011 14.1899 5.91777 14.8262 5.91777C15.4625 5.91777 15.9801 5.40011 15.9801 4.76383V1.82728C15.9801 1.191 15.4625 0.67334 14.8262 0.67334C14.1899 0.67334 13.6723 1.191 13.6723 1.82728V3.52464C13.6545 3.52101 13.6378 3.51412 13.6189 3.51412H12.4998C12.3486 3.51412 12.2263 3.63637 12.2263 3.78764C12.2263 3.93855 12.3486 4.0608 12.4998 4.0608ZM14.2193 1.82692C14.2193 1.49209 14.4914 1.22002 14.8262 1.22002C15.161 1.22002 15.4331 1.49209 15.4331 1.82692V4.76346C15.4331 5.09793 15.161 5.37036 14.8262 5.37036C14.4914 5.37036 14.2193 5.09793 14.2193 4.76346V1.82692Z" fill="#F8F8F8"/>
<path d="M20.1526 7.3445H22.8084C22.9143 7.3445 22.9999 7.25853 22.9999 7.15296C22.9999 7.04704 22.9143 6.96143 22.8084 6.96143H20.1526C20.0467 6.96143 19.9611 7.0474 19.9611 7.15296C19.9611 7.25853 20.0467 7.3445 20.1526 7.3445Z" fill="#F8F8F8"/>
<path d="M19.4706 6.96148L17.9833 6.95459H17.9826C17.8774 6.95459 17.7914 7.03984 17.791 7.1454C17.7907 7.25133 17.8759 7.3373 17.9819 7.33766L19.4685 7.34456H19.4695C19.5747 7.34456 19.6604 7.25967 19.6611 7.15411C19.6614 7.04818 19.5762 6.96221 19.4706 6.96148Z" fill="#F8F8F8"/>
<path d="M20.1526 8.85109H20.9427C21.0486 8.85109 21.1342 8.76512 21.1342 8.65956C21.1342 8.55399 21.0486 8.46802 20.9427 8.46802H20.1526C20.0467 8.46802 19.9611 8.55399 19.9611 8.65956C19.9611 8.76512 20.0467 8.85109 20.1526 8.85109Z" fill="#F8F8F8"/>
<path d="M19.5795 8.44116H19.5755L19.171 8.44914C19.0651 8.45096 18.9809 8.53838 18.9831 8.64395C18.9849 8.74842 19.0701 8.83222 19.1746 8.83222H19.1782L19.5842 8.82424C19.6897 8.82206 19.7739 8.73427 19.7717 8.62871C19.7688 8.52423 19.6836 8.44116 19.5795 8.44116Z" fill="#F8F8F8"/>
<path d="M16.6208 8.65083C16.6212 8.7564 16.7068 8.84164 16.8123 8.84164H16.8131L18.1567 8.83657C18.2626 8.8362 18.3479 8.74987 18.3475 8.6443C18.3472 8.53874 18.2616 8.45349 18.156 8.45349H18.1556L16.812 8.45857C16.7057 8.4593 16.6204 8.54527 16.6208 8.65083Z" fill="#F8F8F8"/>
<path d="M3.42139 11.1455V19.9196C3.42139 20.0255 3.50736 20.1111 3.61292 20.1111C3.71885 20.1111 3.80446 20.0255 3.80446 19.9196V11.3371H21.053V14.809C21.053 14.915 21.1386 15.0006 21.2445 15.0006C21.3505 15.0006 21.4361 14.9146 21.4361 14.809V11.1452L21.2445 10.9536H3.61292L3.42139 11.1455Z" fill="#F8F8F8"/>
<path d="M5.12672 21.6986C5.12672 21.8045 5.2127 21.8902 5.31826 21.8902H18.1564C18.2623 21.8902 18.3479 21.8045 18.3479 21.6986C18.3479 21.5927 18.2619 21.5071 18.1564 21.5071H5.31826C5.21234 21.5071 5.12672 21.5927 5.12672 21.6986Z" fill="#F8F8F8"/>
<path d="M19.8606 21.8901H21.2442L21.4357 21.6986V19.703C21.4357 19.5971 21.3501 19.5115 21.2442 19.5115C21.1382 19.5115 21.0526 19.5971 21.0526 19.703V21.507H19.8606C19.7547 21.507 19.6691 21.5926 19.6691 21.6986C19.6691 21.8045 19.7547 21.8901 19.8606 21.8901Z" fill="#F8F8F8"/>
<path d="M7.34355 20.973V19.1893C7.34355 19.0834 7.25758 18.9978 7.15202 18.9978C7.04645 18.9978 6.96048 19.0834 6.96048 19.1893V20.973C6.96048 21.079 7.04645 21.1646 7.15202 21.1646C7.25758 21.1646 7.34355 21.079 7.34355 20.973Z" fill="#F8F8F8"/>
<path d="M20.4602 17.9988C20.4602 17.8929 20.3746 17.8072 20.2687 17.8072H17.8966V14.7847H20.2687C20.3746 14.7847 20.4602 14.6987 20.4602 14.5932C20.4602 14.4876 20.3746 14.4016 20.2687 14.4016H17.8966V11.9788C17.8966 11.8728 17.8106 11.7872 17.7051 11.7872C17.5991 11.7872 17.5135 11.8728 17.5135 11.9788V14.4016H14.3789V11.9788C14.3789 11.8728 14.2929 11.7872 14.1874 11.7872C14.0815 11.7872 13.9958 11.8728 13.9958 11.9788V14.4016H10.8612V11.9788C10.8612 11.8728 10.7753 11.7872 10.6697 11.7872C10.5641 11.7872 10.4782 11.8728 10.4782 11.9788V14.4016H7.34355V11.9788C7.34355 11.8728 7.25757 11.7872 7.15201 11.7872C7.04645 11.7872 6.96047 11.8728 6.96047 11.9788V14.4016H4.41752C4.31159 14.4016 4.22598 14.4876 4.22598 14.5932C4.22598 14.6987 4.31196 14.7847 4.41752 14.7847H6.96083V15.5694C6.96083 15.6753 7.04681 15.7609 7.15237 15.7609C7.25793 15.7609 7.34391 15.6753 7.34391 15.5694V14.7847H10.4785V17.8072H4.82164C4.71571 17.8072 4.6301 17.8925 4.6301 17.9988C4.6301 18.1051 4.71607 18.1903 4.82164 18.1903H10.4782V20.9731C10.4782 21.079 10.5641 21.1646 10.6697 21.1646C10.7753 21.1646 10.8612 21.079 10.8612 20.9731V18.1903H13.9958V20.9731C13.9958 21.079 14.0818 21.1646 14.1874 21.1646C14.2933 21.1646 14.3789 21.079 14.3789 20.9731V18.1903H17.5135V20.9731C17.5135 21.079 17.5991 21.1646 17.7051 21.1646C17.811 21.1646 17.8966 21.079 17.8966 20.9731V18.1903H20.2687C20.3746 18.1903 20.4602 18.1047 20.4602 17.9988ZM13.9958 17.8076H10.8612V14.7851H13.9958V17.8076ZM17.2357 14.7851L15.9482 16.0453L14.6368 14.7851H17.2357ZM14.3789 15.0684L15.6743 16.313L14.3789 17.5812V15.0684ZM14.6956 17.8076L15.9508 16.5789L17.2295 17.8076H14.6956ZM17.5139 17.5493L16.225 16.3109L17.5139 15.0492V17.5493Z" fill="#F8F8F8"/>
</g>
<defs>
<clipPath id="clip0_163_6167">
<rect width="25" height="25" fill="white" transform="translate(0 0.672607)"/>
</clipPath>
</defs>
</svg>
