<svg width="26" height="26" viewBox="0 0 26 26" fill="none" xmlns="http://www.w3.org/2000/svg">
<g clip-path="url(#clip0_114_732)">
<path d="M12.5859 25.4735C12.5187 25.4735 12.4508 25.4493 12.3968 25.4001C12.0422 25.0782 3.71091 17.4227 3.71091 10.3485C3.71091 5.45476 7.69216 1.47351 12.5859 1.47351C17.4797 1.47351 21.4609 5.45476 21.4609 10.3485C21.4609 16.643 13.139 25.0368 12.7843 25.3915C12.7304 25.4454 12.6578 25.4735 12.5859 25.4735ZM12.5859 2.03601C8.00231 2.03601 4.27341 5.76492 4.27341 10.3485C4.27341 16.5829 11.2984 23.5774 12.5773 24.7977C13.8367 23.4884 20.8984 15.8977 20.8984 10.3485C20.8984 5.76492 17.1695 2.03601 12.5859 2.03601ZM12.5859 13.7548C10.7078 13.7548 9.17966 12.2266 9.17966 10.3485C9.17966 8.47039 10.7078 6.94226 12.5859 6.94226C14.464 6.94226 15.9922 8.47039 15.9922 10.3485C15.9922 12.2266 14.464 13.7548 12.5859 13.7548ZM12.5859 7.50476C11.0179 7.50476 9.74216 8.78054 9.74216 10.3485C9.74216 11.9165 11.0179 13.1923 12.5859 13.1923C14.1539 13.1923 15.4297 11.9165 15.4297 10.3485C15.4297 8.78054 14.1539 7.50476 12.5859 7.50476Z" fill="#F8F8F8"/>
</g>
<defs>
<clipPath id="clip0_114_732">
<rect width="25" height="25" fill="white" transform="translate(0.085907 0.973511)"/>
</clipPath>
</defs>
</svg>
