<svg width="26" height="26" viewBox="0 0 26 26" fill="none" xmlns="http://www.w3.org/2000/svg">
<path d="M22.3764 16.8065L17.7651 14.7431C17.5863 14.6657 17.3911 14.6341 17.1971 14.6512C17.003 14.6682 16.8163 14.7334 16.6538 14.8407C16.6408 14.849 16.6284 14.8581 16.6167 14.8681L14.1948 16.9325C14.1409 16.9654 14.0797 16.9845 14.0167 16.988C13.9537 16.9916 13.8907 16.9796 13.8335 16.953C12.2475 16.1874 10.6059 14.5585 9.8403 12.9911C9.81321 12.9343 9.80064 12.8716 9.80371 12.8087C9.80678 12.7458 9.82539 12.6847 9.85787 12.6308L11.9282 10.1688C11.938 10.1571 11.9467 10.1444 11.9555 10.1317C12.0626 9.96943 12.1275 9.78305 12.1446 9.58939C12.1616 9.39573 12.1302 9.20086 12.0532 9.02236L9.98581 4.41885C9.886 4.18569 9.71324 3.9912 9.49348 3.86459C9.27373 3.73798 9.01882 3.68609 8.76705 3.7167C7.53812 3.87873 6.41019 4.48258 5.59394 5.41546C4.77769 6.34835 4.32894 7.54646 4.33151 8.78603C4.33151 16.3251 10.4643 22.4579 18.0034 22.4579C19.243 22.4605 20.4411 22.0117 21.374 21.1955C22.3068 20.3792 22.9107 19.2513 23.0727 18.0224C23.1031 17.7717 23.0517 17.518 22.9263 17.2989C22.8008 17.0799 22.608 16.9072 22.3764 16.8065ZM22.3003 17.9247C22.1624 18.9655 21.6501 19.9204 20.8593 20.6109C20.0685 21.3014 19.0532 21.6803 18.0034 21.6767C10.896 21.6767 5.11276 15.8935 5.11276 8.78603C5.10912 7.73618 5.48798 6.72093 6.17851 5.93012C6.86903 5.1393 7.82394 4.62706 8.86471 4.48916C8.88032 4.48819 8.89598 4.48819 8.91159 4.48916C8.98865 4.48981 9.0638 4.51325 9.12757 4.55652C9.19134 4.59979 9.24089 4.66096 9.26998 4.73232L11.3315 9.33584C11.3556 9.3921 11.3661 9.45323 11.3622 9.51429C11.3583 9.57536 11.3401 9.63465 11.309 9.6874L9.23971 12.1483C9.22995 12.161 9.22018 12.1728 9.21139 12.1864C9.10115 12.355 9.03622 12.5492 9.02287 12.7502C9.00953 12.9512 9.04823 13.1522 9.13522 13.3339C9.98385 15.0712 11.7339 16.8085 13.4907 17.6571C13.6736 17.7436 13.8758 17.7812 14.0776 17.7663C14.2793 17.7514 14.4738 17.6845 14.6421 17.5722L14.6782 17.5448L17.103 15.4823C17.1549 15.4506 17.2135 15.4317 17.2741 15.4271C17.3347 15.4225 17.3956 15.4324 17.4516 15.456L22.062 17.5224C22.1398 17.5547 22.205 17.6114 22.248 17.6839C22.2909 17.7565 22.3093 17.8409 22.3003 17.9247Z" fill="#F8F8F8"/>
</svg>
