<svg width="26" height="26" viewBox="0 0 26 26" fill="none" xmlns="http://www.w3.org/2000/svg">
<path d="M20.1909 5.97351C21.0197 5.97351 21.8145 6.30275 22.4006 6.8888C22.9866 7.47485 23.3159 8.26971 23.3159 9.09851V19.0985C23.3159 19.9273 22.9866 20.7222 22.4006 21.3082C21.8145 21.8943 21.0197 22.2235 20.1909 22.2235H6.44089C5.61209 22.2235 4.81723 21.8943 4.23118 21.3082C3.64513 20.7222 3.31589 19.9273 3.31589 19.0985V9.09851C3.31589 8.26971 3.64513 7.47485 4.23118 6.8888C4.81723 6.30275 5.61209 5.97351 6.44089 5.97351H20.1909ZM22.0659 10.9248L13.6334 15.8873C13.5537 15.9341 13.4646 15.9626 13.3725 15.9708C13.2804 15.979 13.1876 15.9667 13.1009 15.9348L12.9984 15.8873L4.56589 10.9273V19.0985C4.56589 19.5958 4.76343 20.0727 5.11506 20.4243C5.46669 20.776 5.94361 20.9735 6.44089 20.9735H20.1909C20.6882 20.9735 21.1651 20.776 21.5167 20.4243C21.8683 20.0727 22.0659 19.5958 22.0659 19.0985V10.9248ZM20.1909 7.22351H6.44089C5.94361 7.22351 5.46669 7.42105 5.11506 7.77269C4.76343 8.12432 4.56589 8.60123 4.56589 9.09851V9.47601L13.3159 14.6235L22.0659 9.47351V9.09851C22.0659 8.60123 21.8683 8.12432 21.5167 7.77269C21.1651 7.42105 20.6882 7.22351 20.1909 7.22351Z" fill="#F8F8F8"/>
</svg>
