<svg width="20" height="20" viewBox="0 0 26 26" fill="none" xmlns="http://www.w3.org/2000/svg">
<path d="M0.585937 25.1923L0.585937 1.75476C0.585937 1.59929 0.711719 1.47351 0.867188 1.47351L15.7109 1.47351C15.8664 1.47351 15.9922 1.59929 15.9922 1.75476V8.00476H15.4297V2.03601L1.14844 2.03601L1.14844 24.911H15.4297V18.9423H15.9922V25.1923C15.9922 25.3477 15.8664 25.4735 15.7109 25.4735H0.867188C0.711719 25.4735 0.585937 25.3477 0.585937 25.1923Z" fill="#937962"/>
<path d="M5.55469 13.7547V13.1922H23.6258L19.4187 8.9844L19.8156 8.58752L24.7023 13.4735L19.8156 18.3602L19.4187 17.9617L23.6258 13.7547H5.55469Z" fill="#937962"/>
</svg>
