<svg width="25" height="26" viewBox="0 0 25 26" fill="none" xmlns="http://www.w3.org/2000/svg">
<g clip-path="url(#clip0_165_6959)">
<path d="M12.5003 10.4061C10.975 10.4061 9.73401 11.6471 9.73401 13.1725C9.73401 14.6978 10.975 15.9388 12.5003 15.9388C14.0257 15.9388 15.2667 14.6978 15.2667 13.1725C15.2667 11.6468 14.0257 10.4061 12.5003 10.4061ZM12.5003 15.4299C11.2556 15.4299 10.2429 14.4172 10.2429 13.1725C10.2429 11.9277 11.2556 10.915 12.5003 10.915C13.7451 10.915 14.7578 11.9277 14.7578 13.1725C14.7578 14.4172 13.7451 15.4299 12.5003 15.4299Z" fill="#937962"/>
<path d="M22.9065 11.0788C22.8619 11.0788 22.8163 11.0805 22.7701 11.0838C22.5023 9.75707 21.9877 8.51607 21.2387 7.38684C21.2738 7.35679 21.3072 7.32572 21.3386 7.29398C21.7341 6.89855 21.9519 6.37243 21.9519 5.8139C21.9519 5.25469 21.7341 4.72891 21.3386 4.33381C20.5228 3.51728 19.1946 3.51762 18.3791 4.33347C18.3474 4.36488 18.3163 4.39865 18.2856 4.43411C17.1567 3.68444 15.9154 3.17014 14.5886 2.90236C14.592 2.85643 14.5937 2.81084 14.5937 2.76593C14.5937 1.61138 13.6546 0.672607 12.5003 0.672607C11.3458 0.672607 10.407 1.61172 10.407 2.76593C10.407 2.81051 10.4087 2.85576 10.4121 2.90236C9.0853 3.1698 7.84363 3.68444 6.71508 4.43411C6.68502 4.39865 6.65396 4.36556 6.62221 4.33381C5.80535 3.51728 4.47722 3.51796 3.66171 4.33381C2.84552 5.14966 2.84552 6.47745 3.66171 7.29432C3.69345 7.32606 3.72654 7.35713 3.762 7.38718C3.01234 8.51607 2.49804 9.75741 2.23025 11.0842C2.18399 11.0808 2.13874 11.0791 2.09383 11.0791C0.939612 11.0791 0.000503625 12.0182 0.000503625 13.1724C0.000165938 14.3716 1.00647 15.3539 2.23025 15.2607C2.49804 16.5875 3.01267 17.8288 3.762 18.9577C3.72654 18.9878 3.69345 19.0188 3.66171 19.0506C2.84552 19.8671 2.84552 21.1952 3.66171 22.0111C4.05714 22.4068 4.58292 22.6243 5.14179 22.6243C5.70066 22.6243 6.22678 22.4068 6.62188 22.0111C6.65362 21.9797 6.68469 21.9462 6.71474 21.9114C7.84363 22.6608 9.08497 23.1751 10.4117 23.4429C10.4084 23.4891 10.4067 23.5347 10.4067 23.5793C10.4067 24.7338 11.3458 25.6726 12.5 25.6726C13.6542 25.6726 14.5933 24.7335 14.5933 23.5793C14.5933 23.5344 14.5916 23.4891 14.5883 23.4429C15.915 23.1754 17.1567 22.6608 18.2853 21.9114C18.3156 21.9466 18.3471 21.9797 18.3785 22.0111C18.7736 22.4068 19.2993 22.6243 19.8585 22.6243C20.4174 22.6243 20.9432 22.4068 21.3383 22.0111C21.7337 21.616 21.9515 21.0902 21.9515 20.531C21.9515 19.9721 21.7337 19.446 21.3383 19.0509C21.3069 19.0192 21.2735 18.9881 21.2383 18.958C21.9877 17.8288 22.502 16.5878 22.7697 15.261C23.9955 15.3539 24.9995 14.3719 24.9995 13.1728C24.9998 12.0182 24.0607 11.0788 22.9065 11.0788ZM22.9065 14.7569C22.8147 14.7569 22.7188 14.7471 22.6124 14.7272C22.5455 14.715 22.477 14.7288 22.4209 14.7673C22.3652 14.8062 22.327 14.8656 22.3152 14.9325C22.0609 16.3558 21.5125 17.6799 20.6849 18.8679C20.646 18.9236 20.6308 18.9925 20.643 19.0597C20.6555 19.1262 20.694 19.1853 20.7504 19.2238C20.8392 19.2842 20.9145 19.3454 20.979 19.4102C21.2782 19.7097 21.4433 20.1075 21.4433 20.5306C21.4433 20.9541 21.2782 21.3522 20.979 21.6514C20.6798 21.9506 20.2817 22.1157 19.8589 22.1157C19.4354 22.1157 19.0373 21.951 18.7378 21.6511C18.6743 21.5876 18.6131 21.5126 18.551 21.4218C18.5129 21.3661 18.4534 21.3276 18.3869 21.3154C18.32 21.3026 18.2518 21.3178 18.1958 21.357C17.0078 22.1846 15.6841 22.733 14.2604 22.9873C14.1935 22.9991 14.1337 23.0373 14.0952 23.093C14.0567 23.1491 14.0422 23.218 14.055 23.2848C14.075 23.3909 14.0848 23.4868 14.0848 23.5786C14.0848 24.4525 13.3739 25.1634 12.5 25.1634C11.6261 25.1634 10.9152 24.4529 10.9152 23.5786C10.9152 23.4884 10.925 23.3922 10.9449 23.2838C10.9574 23.2173 10.9429 23.1484 10.9041 23.0923C10.8656 23.0366 10.8065 22.9988 10.7396 22.987C9.31594 22.733 7.99221 22.1843 6.80423 21.3566C6.761 21.3266 6.71035 21.3107 6.65868 21.3107C6.64349 21.3107 6.62795 21.3121 6.61242 21.3151C6.5459 21.3272 6.48646 21.3657 6.4483 21.4221C6.38752 21.511 6.32674 21.5863 6.2619 21.6511C5.96237 21.9503 5.56458 22.1154 5.14112 22.1154C4.71799 22.1154 4.31986 21.9506 4.02067 21.6511C3.40304 21.0331 3.40304 20.0278 4.02067 19.4099C4.08517 19.3457 4.1598 19.2849 4.24962 19.2235C4.30602 19.1853 4.34485 19.1259 4.35701 19.059C4.36916 18.9921 4.35397 18.9233 4.31513 18.8675C3.48712 17.6799 2.93872 16.3558 2.68478 14.9321C2.67296 14.8653 2.6348 14.8058 2.57875 14.767C2.52303 14.7285 2.45414 14.7147 2.38728 14.7268C2.28124 14.7467 2.185 14.7565 2.09315 14.7565C1.21922 14.7565 0.508385 14.0457 0.508385 13.1718C0.508385 12.2978 1.21922 11.587 2.09315 11.587C2.18331 11.587 2.27989 11.5968 2.38795 11.6167C2.45481 11.6306 2.52337 11.6144 2.57908 11.5762C2.6348 11.5374 2.67262 11.4783 2.68478 11.4114C2.93872 9.98805 3.48712 8.66364 4.31513 7.47599C4.35397 7.42027 4.36916 7.35139 4.35701 7.28452C4.34485 7.21766 4.30602 7.15857 4.24962 7.12007C4.1598 7.05895 4.08517 6.99783 4.02067 6.93367C3.40304 6.3157 3.40304 5.31007 4.02067 4.69244C4.63864 4.07514 5.6436 4.07514 6.2619 4.69244C6.32606 4.75693 6.38685 4.83156 6.4483 4.92173C6.48646 4.97812 6.5459 5.01662 6.61276 5.02877C6.67793 5.04127 6.74817 5.02641 6.80423 4.98724C7.99187 4.15923 9.31594 3.61082 10.7396 3.35655C10.8065 3.34473 10.8656 3.30691 10.9041 3.25119C10.9429 3.19547 10.9574 3.12624 10.9449 3.05972C10.9247 2.95132 10.9152 2.85508 10.9152 2.76492C10.9152 1.89098 11.6257 1.18015 12.5 1.18015C13.3739 1.18015 14.0848 1.89065 14.0848 2.76492C14.0848 2.85677 14.075 2.95267 14.055 3.05871C14.0422 3.12557 14.0567 3.19446 14.0952 3.25051C14.1337 3.30623 14.1935 3.34439 14.2604 3.35621C15.6837 3.61015 17.0078 4.15889 18.1958 4.9869C18.2515 5.02573 18.3187 5.04059 18.3869 5.02844C18.4538 5.01628 18.5129 4.97812 18.551 4.92206C18.6138 4.83055 18.6746 4.75558 18.7381 4.6921C19.3561 4.07413 20.3607 4.07481 20.979 4.6921C21.2782 4.99129 21.4433 5.38942 21.4433 5.81288C21.4433 6.236 21.2782 6.6338 20.979 6.93333C20.9142 6.99817 20.8392 7.05929 20.7504 7.11973C20.694 7.15789 20.6555 7.21732 20.643 7.28385C20.6308 7.35105 20.646 7.41994 20.6849 7.47565C21.5125 8.66364 22.0609 9.98737 22.3152 11.4111C22.327 11.4779 22.3649 11.537 22.4206 11.5759C22.4763 11.614 22.5452 11.6302 22.612 11.6164C22.7204 11.5965 22.8167 11.5867 22.9068 11.5867C23.7808 11.5867 24.4916 12.2975 24.4916 13.1714C24.4909 14.0464 23.7804 14.7569 22.9065 14.7569Z" fill="#937962"/>
<path d="M19.2419 9.28772C19.1555 9.33432 19.1231 9.44272 19.1697 9.52883C19.6249 10.3717 19.8984 11.2804 19.9953 12.2097L18.7621 11.9747C18.7523 11.973 18.7432 11.9754 18.7337 11.975C18.1718 9.04425 15.5919 6.82159 12.5 6.82159C12.1339 6.82159 11.7773 6.85975 11.4282 6.91918L11.6125 5.62854C11.905 5.59444 12.2011 5.57553 12.5 5.57553C12.5983 5.57553 12.678 5.49617 12.678 5.39757C12.678 5.2993 12.5983 5.2196 12.5 5.2196C9.82416 5.2196 7.34351 6.55313 5.8641 8.78727C5.81007 8.86899 5.83269 8.97975 5.91441 9.03412C5.94447 9.05404 5.97857 9.0635 6.01268 9.0635C6.07009 9.0635 6.12682 9.03547 6.16126 8.9838C6.57898 8.353 7.0818 7.79987 7.64641 7.33015L7.45764 9.14083C7.45258 9.19047 7.46845 9.23741 7.49817 9.27286C6.65631 10.3504 6.14911 11.7022 6.14911 13.1725C6.14911 13.5598 6.18963 13.9377 6.25615 14.3061L4.96247 14.1214C4.92364 13.8087 4.90338 13.4919 4.90338 13.1725C4.90338 13.0742 4.82402 12.9945 4.72542 12.9945C4.62681 12.9945 4.54745 13.0742 4.54745 13.1725C4.54745 13.5122 4.56974 13.8485 4.61195 14.1808C4.60013 14.2004 4.59642 14.1842 4.6464 14.4017C4.98442 16.5679 6.2028 18.5171 8.05366 19.7672C8.08405 19.7878 8.11917 19.7976 8.15328 19.7976C8.21035 19.7976 8.26674 19.7702 8.30085 19.7192C8.35589 19.6378 8.33462 19.5271 8.2529 19.472C7.61467 19.0408 7.0558 18.5218 6.58574 17.9386L7.89461 17.6769C7.92973 17.6698 7.95776 17.6509 7.9814 17.6276C9.13392 18.7967 10.7335 19.5234 12.5007 19.5234C12.8958 19.5234 13.2811 19.4825 13.6566 19.4129L13.3962 20.7117C13.1021 20.7485 12.8046 20.7694 12.5037 20.7694H12.5003C12.4021 20.7694 12.3224 20.8491 12.3224 20.9474C12.3224 21.0457 12.4021 21.1253 12.5003 21.1253H12.5037C15.2268 21.1253 17.7308 19.6534 19.2017 17.1883C20.6842 14.7039 20.7892 11.7772 19.483 9.35931C19.4361 9.27253 19.327 9.24146 19.2419 9.28772ZM9.73737 6.09388C10.2209 5.90545 10.7265 5.76902 11.2451 5.68257L11.0581 6.99314C10.5536 7.11099 10.0724 7.28861 9.62121 7.51892L9.74075 6.12427C9.74142 6.1138 9.73805 6.10401 9.73737 6.09388ZM8.0361 7.02623C8.45483 6.72198 8.90261 6.46094 9.37334 6.24854L9.25178 7.66412C9.25009 7.68405 9.2538 7.70296 9.25819 7.72119C8.73275 8.0349 8.25729 8.42122 7.84396 8.86798L8.0361 7.02623ZM5.02022 14.4888L6.30883 14.6732C6.31761 14.6742 6.32605 14.6748 6.3345 14.6748C6.33517 14.6748 6.33585 14.6745 6.33652 14.6745C6.43175 15.0645 6.56142 15.4404 6.7252 15.799H5.37378C5.2181 15.3759 5.0989 14.9379 5.02022 14.4888ZM6.34632 17.6232C6.01538 17.1656 5.73746 16.6736 5.51628 16.1553L6.88425 16.1576C6.9214 16.1576 6.85251 16.1411 6.88087 16.1218C7.11422 16.5645 7.39956 16.9738 7.72644 17.3473L6.34632 17.6232ZM12.5 19.1671C9.19437 19.1671 6.50537 16.4778 6.50537 13.1725C6.50537 9.86686 9.19437 7.17785 12.5 7.17785C15.8056 7.17785 18.4946 9.86686 18.4946 13.1725C18.4946 16.4781 15.8056 19.1671 12.5 19.1671ZM15.0887 20.2808C14.6632 20.4463 14.2225 20.5712 13.7707 20.6529L14.0358 19.3275C14.4447 19.2252 14.8371 19.0844 15.2103 18.9071L15.0826 20.2214C15.0806 20.242 15.084 20.2615 15.0887 20.2808ZM15.4497 20.1292L15.5868 18.7176C16.0369 18.4661 16.4506 18.1591 16.8251 17.8096L17.1175 19.0854C16.6042 19.5095 16.0444 19.8597 15.4497 20.1292ZM17.4221 18.821L17.1381 17.582C17.1334 17.5611 17.1239 17.5421 17.1125 17.5249C17.4701 17.146 17.7834 16.726 18.0398 16.2684L18.6334 17.321C18.6425 17.3372 18.6577 17.3466 18.6705 17.3588C18.3065 17.9055 17.8864 18.3945 17.4221 18.821ZM18.8961 17.0059C18.8911 17.0147 18.885 17.0231 18.8796 17.0319L18.2859 15.9793C18.2697 15.9506 18.2457 15.931 18.2191 15.9158C18.4629 15.4097 18.6425 14.8683 18.7448 14.299L19.7275 15.0429C19.7319 15.0463 19.7373 15.045 19.742 15.0477C19.5516 15.7183 19.2716 16.3771 18.8961 17.0059ZM19.8393 14.6806L18.8364 13.9218C18.8266 13.9144 18.8154 13.9117 18.8049 13.9066C18.8326 13.6652 18.8509 13.421 18.8509 13.1725C18.8509 12.8905 18.8262 12.615 18.7904 12.3424L19.9517 12.564C19.9629 12.566 19.974 12.567 19.9855 12.567C19.9983 12.567 20.0098 12.5633 20.022 12.5606C20.0608 13.2647 20.0024 13.9775 19.8393 14.6806Z" fill="#937962"/>
<path d="M18.3508 8.32297C18.3862 8.36484 18.4365 8.38679 18.4875 8.38679C18.5277 8.38679 18.5686 8.37295 18.6017 8.34526C18.677 8.28211 18.6871 8.17 18.624 8.09436C18.4061 7.834 18.1688 7.58343 17.9178 7.35009C17.8459 7.28323 17.7331 7.28695 17.6663 7.35921C17.5994 7.43148 17.6035 7.54393 17.6754 7.61079C17.9158 7.834 18.1431 8.07376 18.3508 8.32297Z" fill="#937962"/>
<path d="M15.9613 6.4079C16.377 6.62098 16.7748 6.87357 17.1432 7.15926C17.176 7.18424 17.2141 7.1964 17.2523 7.1964C17.3053 7.1964 17.3583 7.17276 17.3931 7.12751C17.4529 7.04985 17.439 6.93773 17.3613 6.87762C16.9754 6.57877 16.5593 6.31436 16.1241 6.09115C16.0373 6.04658 15.9295 6.08102 15.8843 6.16814C15.8394 6.2556 15.8742 6.36299 15.9613 6.4079Z" fill="#937962"/>
</g>
<defs>
<clipPath id="clip0_165_6959">
<rect width="25" height="25" fill="white" transform="translate(0 0.672607)"/>
</clipPath>
</defs>
</svg>
