<svg width="25" height="26" viewBox="0 0 25 26" fill="none" xmlns="http://www.w3.org/2000/svg">
<g clip-path="url(#clip0_165_7001)">
<path d="M7.8125 6.33667H4.48106C4.37891 6.33667 4.29395 6.41538 4.28633 6.51733L3.09219 22.3376C3.08809 22.3917 3.10684 22.4453 3.14375 22.4851C3.18067 22.525 3.23262 22.5476 3.28692 22.5476H7.42188C7.52969 22.5476 7.61719 22.4601 7.61719 22.3523C7.61719 22.2445 7.52969 22.157 7.42188 22.157H3.49766L4.66231 6.72729H7.8125C7.92031 6.72729 8.00781 6.63979 8.00781 6.53198C8.00781 6.42417 7.92031 6.33667 7.8125 6.33667Z" fill="#F8F8F8"/>
<path d="M20.7137 6.51733C20.7061 6.41538 20.6211 6.33667 20.5189 6.33667H17.3828C17.275 6.33667 17.1875 6.42417 17.1875 6.53198C17.1875 6.63979 17.275 6.72729 17.3828 6.72729H20.3379L21.5025 22.157H17.5781C17.4703 22.157 17.3828 22.2445 17.3828 22.3523C17.3828 22.4601 17.4703 22.5476 17.5781 22.5476H21.7131C21.7674 22.5476 21.8193 22.525 21.8562 22.4851C21.8932 22.4453 21.9119 22.3917 21.9078 22.3376L20.7137 6.51733Z" fill="#F8F8F8"/>
<path d="M16.2109 6.33667H8.78906C8.68125 6.33667 8.59375 6.42417 8.59375 6.53198C8.59375 6.63979 8.68125 6.72729 8.78906 6.72729H16.2109C16.3187 6.72729 16.4062 6.63979 16.4062 6.53198C16.4062 6.42417 16.3187 6.33667 16.2109 6.33667Z" fill="#F8F8F8"/>
<path d="M12.5977 0.672607C9.85137 0.672607 7.61719 2.90327 7.61719 5.64526V9.56929C7.61719 9.96577 7.91758 10.2763 8.30078 10.2763C8.68398 10.2763 8.98438 9.96577 8.98438 9.56929V5.64526C8.98438 3.68335 10.5615 2.08706 12.5002 2.08706C14.4387 2.08706 16.0156 3.68335 16.0156 5.64526V9.56929C16.0156 9.96714 16.3096 10.2671 16.6992 10.2671C17.0889 10.2671 17.3828 9.96714 17.3828 9.56929V5.64526C17.3828 2.85679 15.2809 0.672607 12.5977 0.672607ZM16.9922 9.56929C16.9922 9.74722 16.8689 9.87651 16.6992 9.87651C16.5295 9.87651 16.4062 9.74741 16.4062 9.56929V5.64526C16.4062 3.46792 14.6539 1.69644 12.5002 1.69644C10.3461 1.69644 8.59375 3.46792 8.59375 5.64526V9.56929C8.59375 9.74976 8.46777 9.88569 8.30078 9.88569C8.13379 9.88569 8.00781 9.74976 8.00781 9.56929V5.64526C8.00781 3.1187 10.0668 1.06323 12.5977 1.06323C15.0619 1.06323 16.9922 3.07593 16.9922 5.64526V9.56929Z" fill="#F8F8F8"/>
<path d="M8.85664 7.95387C8.75625 7.91539 8.64297 7.9652 8.6043 8.06598C8.56563 8.16657 8.61562 8.27946 8.71641 8.31832C9.22988 8.51618 9.575 9.01891 9.575 9.5693C9.575 10.3082 8.97383 10.9095 8.23457 10.9095C7.4957 10.9095 6.89453 10.3084 6.89453 9.5693C6.89453 9.00231 7.25352 8.4943 7.78789 8.30543C7.88945 8.2695 7.94277 8.15797 7.90684 8.05622C7.8709 7.95465 7.75918 7.90094 7.65762 7.93727C6.96758 8.18122 6.50391 8.83707 6.50391 9.5693C6.50391 10.5236 7.28027 11.3002 8.23457 11.3002C9.18906 11.3002 9.96562 10.5238 9.96562 9.5693C9.96562 8.85856 9.51992 8.20954 8.85664 7.95387Z" fill="#F8F8F8"/>
<path d="M17.2846 7.89991C17.184 7.86163 17.0709 7.91124 17.0322 8.01202C16.9936 8.11261 17.0436 8.2255 17.1443 8.26437C17.6578 8.46222 18.0027 8.96495 18.0027 9.51534C18.0027 10.2542 17.4016 10.8556 16.6627 10.8556C15.9236 10.8556 15.3223 10.2544 15.3223 9.51534C15.3223 8.94835 15.6814 8.44054 16.2158 8.25167C16.3174 8.21573 16.3707 8.10421 16.3348 8.00245C16.2988 7.90108 16.1879 7.84757 16.0855 7.88351C15.3953 8.12745 14.9316 8.78331 14.9316 9.51554C14.9316 10.4698 15.7082 11.2464 16.6627 11.2464C17.6172 11.2464 18.3936 10.4698 18.3932 9.51534C18.3932 8.8046 17.9477 8.15538 17.2846 7.89991Z" fill="#F8F8F8"/>
<path d="M7.03125 21.1804H3.51562C3.40781 21.1804 3.32031 21.2679 3.32031 21.3757C3.32031 21.4835 3.40781 21.571 3.51562 21.571H7.03125C7.13906 21.571 7.22656 21.4835 7.22656 21.3757C7.22656 21.2679 7.13906 21.1804 7.03125 21.1804Z" fill="#F8F8F8"/>
<path d="M19.9219 21.1804H17.9688C17.8609 21.1804 17.7734 21.2679 17.7734 21.3757C17.7734 21.4835 17.8609 21.571 17.9688 21.571H19.9219C20.0297 21.571 20.1172 21.4835 20.1172 21.3757C20.1172 21.2679 20.0297 21.1804 19.9219 21.1804Z" fill="#F8F8F8"/>
<path d="M14.9949 19.4226H9.92578C9.6043 19.4226 9.34277 19.6855 9.34277 20.0085C9.34277 20.3316 9.6043 20.5945 9.92578 20.5945H14.9949C15.3164 20.5945 15.5777 20.3316 15.5777 20.0085C15.5777 19.6855 15.3164 19.4226 14.9949 19.4226ZM14.9949 20.2039H9.92578C9.81973 20.2039 9.7334 20.1162 9.7334 20.0085C9.7334 19.9009 9.81973 19.8132 9.92578 19.8132H14.9949C15.101 19.8132 15.1871 19.9009 15.1871 20.0085C15.1871 20.1162 15.101 20.2039 14.9949 20.2039Z" fill="#F8F8F8"/>
<path d="M12.4746 14.3527C9.35391 14.3527 6.81485 16.8915 6.81485 20.0124C6.81485 23.1335 9.35391 25.6726 12.4746 25.6726C15.5953 25.6726 18.1344 23.1335 18.1344 20.0124C18.1344 16.8917 15.5953 14.3527 12.4746 14.3527ZM12.4746 25.282C9.56914 25.282 7.20547 22.9181 7.20547 20.0124C7.20547 17.107 9.56934 14.7433 12.4746 14.7433C15.3801 14.7433 17.7438 17.107 17.7438 20.0124C17.7438 22.9181 15.3801 25.282 12.4746 25.282Z" fill="#F8F8F8"/>
<path d="M16.2836 16.9422C16.2154 16.8582 16.0926 16.8455 16.0088 16.9133C15.925 16.9812 15.9121 17.1043 15.9799 17.1881C16.6242 17.9838 16.9789 18.9871 16.9789 20.0127C16.9789 22.4898 14.9637 24.5049 12.4865 24.5049C10.0094 24.5049 7.99414 22.4898 7.99414 20.0127C7.99414 17.5355 10.0094 15.5205 12.4865 15.5205C13.368 15.5205 14.2213 15.7754 14.9539 16.2578C15.0443 16.3176 15.1652 16.2922 15.2244 16.2021C15.2838 16.1121 15.2588 15.991 15.1688 15.9316C14.3723 15.407 13.4447 15.1299 12.4867 15.1299C9.79414 15.1299 7.60371 17.3203 7.60371 20.0127C7.60371 22.7051 9.79414 24.8955 12.4867 24.8955C15.1791 24.8955 17.3697 22.7051 17.3697 20.0127C17.3697 18.8979 16.984 17.8074 16.2836 16.9422Z" fill="#F8F8F8"/>
</g>
<defs>
<clipPath id="clip0_165_7001">
<rect width="25" height="25" fill="white" transform="translate(0 0.672607)"/>
</clipPath>
</defs>
</svg>
