<svg width="25" height="26" viewBox="0 0 25 26" fill="none" xmlns="http://www.w3.org/2000/svg">
<g clip-path="url(#clip0_165_6982)">
<path d="M21.8744 7.4937C21.8668 7.39194 21.7818 7.31323 21.6797 7.31323H17.9688C17.8609 7.31323 17.7734 7.40073 17.7734 7.50854C17.7734 7.61636 17.8609 7.70386 17.9688 7.70386H21.4986L22.8361 25.282H2.16387L3.50137 7.70386H7.03125C7.13906 7.70386 7.22656 7.61636 7.22656 7.50854C7.22656 7.40073 7.13906 7.31323 7.03125 7.31323H3.32031C3.21816 7.31323 3.1332 7.39194 3.12559 7.4939L1.7584 25.4626C1.7543 25.5167 1.77305 25.5703 1.80996 25.6101C1.84688 25.65 1.89883 25.6726 1.95313 25.6726H23.0469C23.1012 25.6726 23.1531 25.65 23.19 25.6099C23.2271 25.5701 23.2457 25.5166 23.2416 25.4625L21.8744 7.4937Z" fill="#F8F8F8"/>
<path d="M16.7969 7.31323H8.20312C8.09531 7.31323 8.00781 7.40073 8.00781 7.50854C8.00781 7.61636 8.09531 7.70386 8.20312 7.70386H16.7969C16.9047 7.70386 16.9922 7.61636 16.9922 7.50854C16.9922 7.40073 16.9047 7.31323 16.7969 7.31323Z" fill="#F8F8F8"/>
<path d="M12.5 0.672607C9.37676 0.672607 6.83594 3.21343 6.83594 6.33667V10.8289C6.83594 11.2597 7.18633 11.6101 7.61719 11.6101C8.04805 11.6101 8.39844 11.2597 8.39844 10.8289V6.33667C8.39844 4.07495 10.2383 2.23511 12.5 2.23511C14.7617 2.23511 16.6016 4.07495 16.6016 6.33667V10.8289C16.6016 11.2597 16.952 11.6101 17.3828 11.6101C17.8137 11.6101 18.1641 11.2597 18.1641 10.8289V6.33667C18.1641 3.21343 15.6232 0.672607 12.5 0.672607ZM17.7734 10.8289C17.7734 11.0443 17.5982 11.2195 17.3828 11.2195C17.1674 11.2195 16.9922 11.0443 16.9922 10.8289V6.33667C16.9922 3.85972 14.977 1.84448 12.5 1.84448C10.023 1.84448 8.00781 3.85972 8.00781 6.33667V10.8289C8.00781 11.0443 7.83262 11.2195 7.61719 11.2195C7.40176 11.2195 7.22656 11.0443 7.22656 10.8289V6.33667C7.22656 3.42886 9.59219 1.06323 12.5 1.06323C15.4078 1.06323 17.7734 3.42886 17.7734 6.33667V10.8289Z" fill="#F8F8F8"/>
<path d="M8.31914 9.00585C8.21895 8.96737 8.10547 9.01718 8.0668 9.11796C8.02812 9.21854 8.07812 9.33143 8.17891 9.3703C8.77754 9.60096 9.17969 10.1871 9.17969 10.8289C9.17969 11.6904 8.47871 12.3914 7.61719 12.3914C6.75566 12.3914 6.05469 11.6904 6.05469 10.8289C6.05469 10.1676 6.47324 9.57557 7.09609 9.35546C7.19785 9.31952 7.25117 9.208 7.21523 9.10624C7.1793 9.00468 7.06777 8.95096 6.96602 8.9871C6.1873 9.26229 5.66406 10.0023 5.66406 10.8289C5.66406 11.9058 6.54023 12.782 7.61719 12.782C8.69414 12.782 9.57031 11.9058 9.57031 10.8289C9.57031 10.0267 9.06758 9.29413 8.31914 9.00585Z" fill="#F8F8F8"/>
<path d="M18.0848 9.00585C17.9844 8.96737 17.8713 9.01718 17.8324 9.11796C17.7938 9.21854 17.8438 9.33143 17.9445 9.3703C18.5432 9.60096 18.9453 10.1871 18.9453 10.8289C18.9453 11.6904 18.2443 12.3914 17.3828 12.3914C16.5213 12.3914 15.8203 11.6904 15.8203 10.8289C15.8203 10.1676 16.2389 9.57557 16.8617 9.35546C16.9635 9.31952 17.0168 9.208 16.9809 9.10624C16.9449 9.00468 16.8332 8.95096 16.7316 8.9871C15.9529 9.26229 15.4297 10.0023 15.4297 10.8289C15.4297 11.9058 16.3059 12.782 17.3828 12.782C18.4598 12.782 19.3359 11.9058 19.3359 10.8289C19.3359 10.0267 18.8332 9.29413 18.0848 9.00585Z" fill="#F8F8F8"/>
<path d="M21.4844 24.3054H2.14844C2.04063 24.3054 1.95312 24.3929 1.95312 24.5007C1.95312 24.6085 2.04063 24.696 2.14844 24.696H21.4844C21.5922 24.696 21.6797 24.6085 21.6797 24.5007C21.6797 24.3929 21.5922 24.3054 21.4844 24.3054Z" fill="#F8F8F8"/>
</g>
<defs>
<clipPath id="clip0_165_6982">
<rect width="25" height="25" fill="white" transform="translate(0 0.672607)"/>
</clipPath>
</defs>
</svg>
