<svg width="25" height="26" viewBox="0 0 25 26" fill="none" xmlns="http://www.w3.org/2000/svg">
<g clip-path="url(#clip0_165_7071)">
<path d="M7.81251 6.33667H4.48107C4.37892 6.33667 4.29396 6.41538 4.28634 6.51733L3.0922 22.3376C3.0881 22.3917 3.10685 22.4453 3.14376 22.4851C3.18068 22.525 3.23263 22.5476 3.28693 22.5476H7.42189C7.5297 22.5476 7.6172 22.4601 7.6172 22.3523C7.6172 22.2445 7.5297 22.157 7.42189 22.157H3.49767L4.66232 6.72729H7.81251C7.92032 6.72729 8.00782 6.63979 8.00782 6.53198C8.00782 6.42417 7.92032 6.33667 7.81251 6.33667Z" fill="#F8F8F8"/>
<path d="M20.7137 6.51733C20.7061 6.41538 20.6211 6.33667 20.5189 6.33667H17.3828C17.275 6.33667 17.1875 6.42417 17.1875 6.53198C17.1875 6.63979 17.275 6.72729 17.3828 6.72729H20.3379L21.5025 22.157H17.5781C17.4703 22.157 17.3828 22.2445 17.3828 22.3523C17.3828 22.4601 17.4703 22.5476 17.5781 22.5476H21.7131C21.7674 22.5476 21.8193 22.525 21.8562 22.4851C21.8932 22.4453 21.9119 22.3917 21.9078 22.3376L20.7137 6.51733Z" fill="#F8F8F8"/>
<path d="M16.2109 6.33667H8.78906C8.68125 6.33667 8.59375 6.42417 8.59375 6.53198C8.59375 6.63979 8.68125 6.72729 8.78906 6.72729H16.2109C16.3187 6.72729 16.4062 6.63979 16.4062 6.53198C16.4062 6.42417 16.3187 6.33667 16.2109 6.33667Z" fill="#F8F8F8"/>
<path d="M12.5977 0.672607C9.85137 0.672607 7.61719 2.90327 7.61719 5.64526V9.56929C7.61719 9.96577 7.91758 10.2763 8.30078 10.2763C8.68398 10.2763 8.98438 9.96577 8.98438 9.56929V5.64526C8.98438 3.68335 10.5615 2.08706 12.5002 2.08706C14.4387 2.08706 16.0156 3.68335 16.0156 5.64526V9.56929C16.0156 9.96577 16.3207 10.2763 16.71 10.2763C17.0936 10.2763 17.3828 9.97241 17.3828 9.56929V5.64526C17.3828 2.85679 15.2809 0.672607 12.5977 0.672607ZM16.9922 9.56929C16.9922 9.72651 16.8953 9.88569 16.71 9.88569C16.5396 9.88569 16.4062 9.74683 16.4062 9.56929V5.64526C16.4062 3.46792 14.6539 1.69644 12.5002 1.69644C10.3461 1.69644 8.59375 3.46792 8.59375 5.64526V9.56929C8.59375 9.74976 8.46777 9.88569 8.30078 9.88569C8.13379 9.88569 8.00781 9.74976 8.00781 9.56929V5.64526C8.00781 3.1187 10.0668 1.06323 12.5977 1.06323C15.0619 1.06323 16.9922 3.07593 16.9922 5.64526V9.56929Z" fill="#F8F8F8"/>
<path d="M8.85664 7.95387C8.75625 7.91539 8.64297 7.96539 8.6043 8.06598C8.56563 8.16657 8.61562 8.27965 8.71641 8.31832C9.22988 8.51618 9.575 9.01891 9.575 9.5693C9.575 10.3082 8.97383 10.9095 8.23457 10.9095C7.4957 10.9095 6.89453 10.3084 6.89453 9.5693C6.89453 9.00231 7.25352 8.4943 7.78789 8.30543C7.88945 8.2695 7.94277 8.15797 7.90684 8.05622C7.8709 7.95465 7.75938 7.90094 7.65762 7.93727C6.96758 8.18122 6.50391 8.83707 6.50391 9.5693C6.50391 10.5236 7.28027 11.3002 8.23457 11.3002C9.18906 11.3002 9.96562 10.5238 9.96562 9.5693C9.96562 8.85856 9.51992 8.20934 8.85664 7.95387Z" fill="#F8F8F8"/>
<path d="M17.4528 7.95368C17.3522 7.9152 17.2391 7.965 17.2004 8.06579C17.1617 8.16637 17.2117 8.27926 17.3125 8.31813C17.8016 8.50661 18.1055 8.9859 18.1055 9.56911C18.1055 10.308 17.5043 10.9093 16.7654 10.9093C16.0264 10.9093 15.425 10.3082 15.425 9.56911C15.425 8.98434 15.7512 8.50582 16.2762 8.32008C16.3778 8.28414 16.4311 8.17262 16.3951 8.07086C16.3592 7.9693 16.2473 7.91559 16.1459 7.95192C15.4707 8.19079 15.0344 8.82555 15.0344 9.5693C15.0344 10.5236 15.811 11.3002 16.7654 11.3002C17.7197 11.3002 18.4961 10.5238 18.4959 9.56911C18.4959 8.82047 18.0961 8.20153 17.4528 7.95368Z" fill="#F8F8F8"/>
<path d="M7.03125 21.1804H3.51562C3.40781 21.1804 3.32031 21.2679 3.32031 21.3757C3.32031 21.4835 3.40781 21.571 3.51562 21.571H7.03125C7.13906 21.571 7.22656 21.4835 7.22656 21.3757C7.22656 21.2679 7.13906 21.1804 7.03125 21.1804Z" fill="#F8F8F8"/>
<path d="M19.9219 21.1804H17.9688C17.8609 21.1804 17.7734 21.2679 17.7734 21.3757C17.7734 21.4835 17.8609 21.571 17.9688 21.571H19.9219C20.0297 21.571 20.1172 21.4835 20.1172 21.3757C20.1172 21.2679 20.0297 21.1804 19.9219 21.1804Z" fill="#F8F8F8"/>
<path d="M14.9949 19.4226H13.0859V17.4779C13.0859 17.1566 12.823 16.8953 12.5 16.8953C12.177 16.8953 11.9141 17.1566 11.9141 17.4779V19.4226H9.92578C9.6043 19.4226 9.34277 19.6855 9.34277 20.0085C9.34277 20.3316 9.6043 20.5945 9.92578 20.5945H11.9141V22.5472C11.9141 22.8687 12.177 23.13 12.5 23.13C12.823 23.13 13.0859 22.8687 13.0859 22.5474V20.5945H14.9949C15.3162 20.5945 15.5777 20.3316 15.5777 20.0085C15.5777 19.6855 15.3164 19.4226 14.9949 19.4226ZM14.9949 20.2039H12.8906C12.7828 20.2039 12.6953 20.2914 12.6953 20.3992V22.5474C12.6953 22.6535 12.6076 22.7396 12.5 22.7396C12.3924 22.7396 12.3047 22.6533 12.3047 22.5474V20.3992C12.3047 20.2914 12.2172 20.2039 12.1094 20.2039H9.92578C9.81973 20.2039 9.7334 20.1162 9.7334 20.0085C9.7334 19.9009 9.81973 19.8132 9.92578 19.8132H12.1094C12.2172 19.8132 12.3047 19.7257 12.3047 19.6179V17.4779C12.3047 17.3738 12.3941 17.2859 12.5 17.2859C12.6076 17.2859 12.6953 17.372 12.6953 17.4779V19.6179C12.6953 19.7257 12.7828 19.8132 12.8906 19.8132H14.9949C15.101 19.8132 15.1871 19.9009 15.1871 20.0085C15.1871 20.1162 15.101 20.2039 14.9949 20.2039Z" fill="#F8F8F8"/>
<path d="M12.5 14.3527C9.3793 14.3527 6.84024 16.8915 6.84024 20.0124C6.84024 23.1335 9.3793 25.6726 12.5 25.6726C15.6207 25.6726 18.1598 23.1335 18.1598 20.0124C18.1598 16.8917 15.6207 14.3527 12.5 14.3527ZM12.5 25.282C9.59473 25.282 7.23087 22.9181 7.23087 20.0124C7.23087 17.107 9.59473 14.7433 12.5 14.7433C15.4053 14.7433 17.7691 17.107 17.7691 20.0124C17.7691 22.9181 15.4053 25.282 12.5 25.282Z" fill="#F8F8F8"/>
<path d="M16.3096 16.9422C16.2416 16.8582 16.1188 16.8455 16.0348 16.9133C15.951 16.9812 15.9381 17.1043 16.0059 17.1881C16.65 17.9836 17.0047 18.9869 17.0047 20.0127C17.0047 22.4898 14.9895 24.5049 12.5123 24.5049C10.0354 24.5049 8.02012 22.4898 8.02012 20.0127C8.02012 17.5355 10.0354 15.5205 12.5123 15.5205C13.3938 15.5205 14.2471 15.7754 14.9795 16.258C15.0693 16.3172 15.1906 16.2922 15.25 16.2023C15.3092 16.1123 15.2844 15.9912 15.1943 15.9318C14.3979 15.4072 13.4703 15.1299 12.5121 15.1299C9.81973 15.1299 7.6293 17.3203 7.6293 20.0127C7.6293 22.7051 9.81973 24.8955 12.5121 24.8955C15.2045 24.8955 17.3949 22.7051 17.3955 20.0127C17.3955 18.8977 17.0098 17.8072 16.3096 16.9422Z" fill="#F8F8F8"/>
</g>
<defs>
<clipPath id="clip0_165_7071">
<rect width="25" height="25" fill="white" transform="translate(0 0.672607)"/>
</clipPath>
</defs>
</svg>
