<svg width="25" height="25" viewBox="0 0 25 25" fill="none" xmlns="http://www.w3.org/2000/svg">
<path d="M19.8125 5.1823C18.3656 3.73604 16.5223 2.75132 14.5158 2.35264C12.5092 1.95396 10.4295 2.15923 8.53965 2.9425C6.64977 3.72577 5.03459 5.05186 3.89836 6.75308C2.76212 8.45429 2.15587 10.4542 2.15625 12.5C2.15625 15.2438 3.24587 17.8753 5.18555 19.816C7.12523 21.7566 9.75619 22.8476 12.5 22.849C13.8578 22.8495 15.2026 22.5841 16.4583 22.0677C17.7101 21.5393 18.8488 20.7755 19.8125 19.8177C20.7736 18.8568 21.536 17.716 22.0561 16.4604C22.5762 15.2048 22.844 13.8591 22.844 12.5C22.844 11.1409 22.5762 9.7952 22.0561 8.53962C21.536 7.28404 20.7736 6.14321 19.8125 5.1823ZM19.0833 19.0781C17.5938 20.574 15.6393 21.5182 13.5417 21.7552V14.9219H15.5C15.7763 14.9219 16.0412 14.8121 16.2366 14.6168C16.4319 14.4214 16.5417 14.1565 16.5417 13.8802C16.5417 13.6039 16.4319 13.339 16.2366 13.1436C16.0412 12.9483 15.7763 12.8385 15.5 12.8385H13.5417V9.98438C13.5417 9.70811 13.6514 9.44316 13.8468 9.24781C14.0421 9.05246 14.3071 8.94271 14.5833 8.94271H15.8333C16.1096 8.94271 16.3746 8.83297 16.5699 8.63761C16.7653 8.44226 16.875 8.17731 16.875 7.90105C16.875 7.62478 16.7653 7.35983 16.5699 7.16448C16.3746 6.96913 16.1096 6.85938 15.8333 6.85938H14.0625C13.3718 6.85938 12.7095 7.13375 12.2211 7.62212C11.7327 8.1105 11.4583 8.77288 11.4583 9.46355V12.8385H9.51042C9.23415 12.8385 8.9692 12.9483 8.77385 13.1436C8.5785 13.339 8.46875 13.6039 8.46875 13.8802C8.46875 14.1565 8.5785 14.4214 8.77385 14.6168C8.9692 14.8121 9.23415 14.9219 9.51042 14.9219H11.4583V21.7552C9.52384 21.5345 7.70758 20.7116 6.26609 19.4028C4.8246 18.0939 3.83074 16.3653 3.4249 14.461C3.01905 12.5568 3.22173 10.5731 4.0043 8.79027C4.78688 7.00743 6.1098 5.5155 7.7862 4.52523C9.4626 3.53496 11.4077 3.0964 13.3469 3.27148C15.286 3.44657 17.1212 4.22646 18.5931 5.50099C20.065 6.77552 21.0993 8.48028 21.5499 10.3745C22.0005 12.2686 21.8445 14.2565 21.1042 16.0573C20.6326 17.1856 19.9463 18.2116 19.0833 19.0781Z" fill="#F8F8F8"/>
</svg>
