<svg width="26" height="26" viewBox="0 0 26 26" fill="none" xmlns="http://www.w3.org/2000/svg">
<path d="M20.0211 22.7829H6.61067C5.92 22.7829 5.25762 22.5086 4.76924 22.0202C4.28087 21.5318 4.0065 20.8694 4.0065 20.1788V6.76835C4.0065 6.07768 4.28087 5.4153 4.76924 4.92693C5.25762 4.43855 5.92 4.16418 6.61067 4.16418H20.0211C20.7118 4.16418 21.3741 4.43855 21.8625 4.92693C22.3509 5.4153 22.6252 6.07768 22.6252 6.76835V20.1788C22.6252 20.8694 22.3509 21.5318 21.8625 22.0202C21.3741 22.5086 20.7118 22.7829 20.0211 22.7829ZM6.61067 5.20585C6.19627 5.20585 5.79884 5.37047 5.50581 5.6635C5.21279 5.95652 5.04817 6.35395 5.04817 6.76835V20.1788C5.04817 20.5932 5.21279 20.9906 5.50581 21.2836C5.79884 21.5766 6.19627 21.7413 6.61067 21.7413H20.0211C20.4355 21.7413 20.8329 21.5766 21.1259 21.2836C21.419 20.9906 21.5836 20.5932 21.5836 20.1788V6.76835C21.5836 6.35395 21.419 5.95652 21.1259 5.6635C20.8329 5.37047 20.4355 5.20585 20.0211 5.20585H6.61067Z" fill="#F8F8F8"/>
<path d="M13.3159 18.259C12.3694 18.2579 11.4445 17.9763 10.658 17.4497C9.87152 16.9231 9.25884 16.1751 8.89739 15.3003C8.53595 14.4256 8.44196 13.4633 8.62732 12.5351C8.81268 11.607 9.26906 10.7546 9.93877 10.0858C10.6085 9.41691 11.4615 8.96165 12.3899 8.7775C13.3183 8.59335 14.2804 8.68859 15.1547 9.05118C16.029 9.41377 16.7762 10.0274 17.3018 10.8146C17.8273 11.6017 18.1078 12.527 18.1076 13.4735C18.1059 14.7433 17.6003 15.9605 16.7019 16.8577C15.8035 17.755 14.5856 18.259 13.3159 18.259ZM13.3159 9.72353C12.5757 9.72456 11.8524 9.94494 11.2374 10.3568C10.6223 10.7687 10.1432 11.3536 9.86037 12.0377C9.57758 12.7217 9.50386 13.4742 9.64852 14.2002C9.79318 14.9261 10.1497 15.5929 10.6731 16.1163C11.1965 16.6397 11.8633 16.9962 12.5893 17.1409C13.3152 17.2856 14.0677 17.2118 14.7518 16.9291C15.4358 16.6463 16.0207 16.1671 16.4326 15.5521C16.8445 14.937 17.0649 14.2137 17.0659 13.4735C17.0659 12.479 16.6708 11.5251 15.9675 10.8219C15.2643 10.1186 14.3105 9.72353 13.3159 9.72353Z" fill="#F8F8F8"/>
<path d="M18.7326 9.20784C19.351 9.20784 19.8523 8.7065 19.8523 8.08805C19.8523 7.46961 19.351 6.96826 18.7326 6.96826C18.1141 6.96826 17.6128 7.46961 17.6128 8.08805C17.6128 8.7065 18.1141 9.20784 18.7326 9.20784Z" fill="#F8F8F8"/>
</svg>
