<svg width="26" height="26" viewBox="0 0 26 26" fill="none" xmlns="http://www.w3.org/2000/svg">
<path d="M1.70874 23.2949V3.65205C1.70874 3.17845 1.89688 2.72424 2.23176 2.38936C2.56665 2.05447 3.02085 1.86633 3.49445 1.86633H23.1373C23.6109 1.86633 24.0651 2.05447 24.4 2.38936C24.7349 2.72424 24.923 3.17845 24.923 3.65205V23.2949C24.923 23.7685 24.7349 24.2227 24.4 24.5576C24.0651 24.8925 23.6109 25.0806 23.1373 25.0806H17.7802V16.6163H19.048C19.3369 16.6163 19.614 16.5016 19.8183 16.2973C20.0225 16.093 20.1373 15.8159 20.1373 15.527V14.152C20.1373 13.8632 20.0225 13.5861 19.8183 13.3818C19.614 13.1775 19.3369 13.0628 19.048 13.0628H17.8516V11.3842C17.8516 9.88419 18.5302 9.88419 19.2087 9.88419H20.0837C20.2275 9.89011 20.3707 9.86439 20.5034 9.80885C20.6361 9.75331 20.755 9.6693 20.8516 9.56276C20.9554 9.46397 21.0375 9.34472 21.0928 9.21255C21.1482 9.08038 21.1755 8.93817 21.173 8.7949V7.47348C21.1778 7.32807 21.1539 7.18314 21.1026 7.04699C21.0513 6.91083 20.9737 6.78612 20.8742 6.67998C20.7747 6.57384 20.6552 6.48836 20.5227 6.42841C20.3901 6.36846 20.247 6.33523 20.1016 6.33062H18.048C17.4488 6.30809 16.8519 6.41591 16.2984 6.64661C15.7449 6.87732 15.2482 7.22542 14.8424 7.66687C14.4366 8.10832 14.1314 8.6326 13.948 9.2035C13.7647 9.77439 13.7074 10.3783 13.7802 10.9735V13.0628H12.6373C12.4928 13.0604 12.3492 13.0868 12.215 13.1405C12.0807 13.1942 11.9585 13.274 11.8555 13.3754C11.7525 13.4768 11.6706 13.5977 11.6148 13.731C11.5589 13.8644 11.5301 14.0075 11.5302 14.152V15.527C11.5301 15.6716 11.5589 15.8147 11.6148 15.9481C11.6706 16.0814 11.7525 16.2023 11.8555 16.3037C11.9585 16.4051 12.0807 16.4849 12.215 16.5386C12.3492 16.5923 12.4928 16.6187 12.6373 16.6163H13.7802V25.0806H3.49445C3.02085 25.0806 2.56665 24.8925 2.23176 24.5576C1.89688 24.2227 1.70874 23.7685 1.70874 23.2949Z" stroke="#F8F8F8" stroke-width="1.78571" stroke-linecap="round" stroke-linejoin="round"/>
</svg>
