<svg width="19" height="26" viewBox="0 0 19 26" fill="none" xmlns="http://www.w3.org/2000/svg">
<path d="M18.0285 21.8787C17.9821 21.0039 16.5978 20.1732 15.1896 19.5504C17.5578 17.5935 18.1192 14.4216 17.8453 11.4637C17.6441 9.28742 17.1309 6.55569 15.7934 4.7013C14.6188 2.78366 12.3747 0.973511 9.64264 0.973511C6.99004 0.973511 4.71722 2.33564 3.77757 4.25951C2.3444 6.59712 1.59791 9.26468 1.43684 12.0011C1.27669 14.7216 1.42313 17.7621 3.5844 19.6866C1.09786 20.7608 0.888182 21.6619 0.876966 21.8787C0.794404 23.4446 0.670715 25.7115 0.670715 25.7115L0.918404 25.9735H17.9868L18.2345 25.7115C18.2345 25.7115 18.1108 23.4449 18.0285 21.8787ZM4.21686 4.48975C4.30316 4.34986 4.38355 4.20685 4.47483 4.06915C4.49913 4.03207 4.51004 3.99593 4.51347 3.96072C5.50235 2.47833 7.43058 1.46982 9.64264 1.46982C12.0111 1.46982 13.9889 2.9438 15.1348 4.59848C15.1416 4.64023 15.156 4.68167 15.1884 4.72061C15.2544 4.80037 15.3164 4.88418 15.3765 4.96955C15.5255 5.21412 15.6573 5.46087 15.7679 5.70513C15.7878 5.74875 15.8208 5.78022 15.8579 5.80515C16.0888 6.28806 16.2726 6.7987 16.4393 7.28349C16.8817 8.57053 17.1886 9.91365 17.33 11.2677C17.635 14.1876 17.1742 17.4639 14.6762 19.3327C13.6091 18.8968 12.6227 18.5946 12.304 18.5005C12.0482 17.9229 11.903 17.3331 11.8855 16.7405C11.8837 16.6745 11.8556 16.6128 11.8126 16.5679C13.6346 15.3145 15.3625 12.7675 15.3625 9.68559C15.3625 9.51424 15.3663 9.39242 15.3691 9.29334C15.3765 9.0416 15.3793 8.91387 15.312 8.53532C15.3557 8.4618 15.4065 8.39076 15.446 8.31599C15.5099 8.1951 15.4635 8.04493 15.3423 7.98106C15.2214 7.91719 15.0715 7.96362 15.0073 8.08481C14.6914 8.68456 14.2163 9.23508 13.6281 9.68559C13.0557 9.32076 12.5772 8.83535 12.0731 8.32346C11.5846 7.82778 11.0792 7.31464 10.4754 6.91585C8.66528 5.72009 5.75533 5.83755 3.92088 7.12771C3.84704 6.82394 3.80966 6.52079 3.80966 6.22294C3.80966 5.61073 3.95734 5.02781 4.21686 4.48975ZM12.5626 19.8794C12.6576 19.9879 12.7529 20.0957 12.8352 20.2084C12.9832 20.4113 13.1268 20.7023 12.9685 20.9372C12.8311 21.1422 12.4641 21.2942 12.0965 21.2992H12.0921C11.8379 21.2992 11.0911 21.0185 10.6779 20.6104C10.4969 20.4318 10.4053 20.2567 10.4053 20.0907C10.4053 20.0869 10.4035 20.0841 10.4031 20.0804C11.0936 19.9754 11.7104 19.7196 12.16 19.3548C12.2694 19.5433 12.4174 19.7143 12.5626 19.8794ZM4.38884 7.4159C6.07156 6.34476 8.60577 6.27497 10.2025 7.3296C10.763 7.70004 11.2497 8.19417 11.7204 8.67179C12.2635 9.22293 12.8252 9.79277 13.5165 10.1981L13.787 10.1856C14.2042 9.8853 14.5668 9.5348 14.8771 9.15595C14.8765 9.19364 14.8752 9.2329 14.874 9.27901C14.8712 9.38183 14.8671 9.50801 14.8671 9.68591C14.8671 13.6748 11.6447 16.9122 9.542 16.9122C9.08682 16.9122 8.44719 16.6492 7.78762 16.19C6.01019 14.9534 4.21655 12.4625 4.21655 9.68622C4.21655 8.83629 4.21655 8.36802 4.41813 7.60937C4.43651 7.54021 4.42311 7.47167 4.38884 7.4159ZM1.95246 11.7064C2.09516 9.79433 2.54255 7.9309 3.31553 6.19833C3.31553 6.20674 3.31397 6.21484 3.31397 6.22326C3.31397 6.6853 3.39279 7.15637 3.54857 7.62339L3.881 7.71842C3.72211 8.40883 3.72086 8.90982 3.72086 9.68559C3.72086 12.6413 5.62105 15.2862 7.50411 16.5966C7.53059 16.6153 7.55676 16.6311 7.58324 16.6489C7.53121 16.6913 7.49632 16.752 7.49258 16.8246C7.46329 17.3994 7.30969 17.973 7.04892 18.5363C5.83322 18.8563 4.85805 19.1763 4.07355 19.4853C4.06077 19.4613 4.04582 19.4377 4.02058 19.4162C1.8079 17.5256 1.75089 14.4066 1.95246 11.7064ZM7.1885 19.3744C7.64524 19.7614 8.2453 20.0203 8.95036 20.1352C8.9354 20.2879 8.84879 20.4474 8.68397 20.61C8.27085 21.0182 7.52405 21.2989 7.27013 21.2989H7.26576C6.89813 21.2939 6.53111 21.1419 6.3934 20.9369C6.23544 20.7023 6.37876 20.411 6.52706 20.2081C6.609 20.0957 6.70434 19.9879 6.79967 19.8791C6.93956 19.7202 7.08039 19.5545 7.1885 19.3744ZM9.08682 25.4769H1.1798C1.21469 24.836 1.30629 23.1492 1.37203 21.9046C1.42313 20.9362 4.69697 19.6972 6.92835 19.0825L6.93489 19.1345C6.9352 19.1348 6.9352 19.1348 6.9352 19.1348C6.92741 19.1442 6.91775 19.1516 6.91152 19.1629C6.81899 19.3277 6.68191 19.4838 6.53672 19.6489C6.43453 19.7651 6.33265 19.8816 6.24448 20.0022C5.94196 20.4166 5.89148 20.8182 6.10303 21.1328C6.30648 21.4351 6.77195 21.6429 7.2614 21.6491H7.26826C7.61409 21.6491 8.44563 21.3375 8.92948 20.8593C8.98961 20.8001 9.04133 20.7403 9.08682 20.6798V25.4769ZM9.22079 19.6766C9.21892 19.6763 9.21736 19.6751 9.21549 19.6748C8.45841 19.5844 7.85554 19.3314 7.42092 18.9217C7.75397 18.2603 7.94091 17.5808 7.98266 16.8978C8.55873 17.2275 9.10053 17.4075 9.54169 17.4075C10.1081 17.4075 10.7502 17.2041 11.3964 16.8318C11.4279 17.5306 11.6064 18.2251 11.9354 18.8983C11.5272 19.2694 10.9063 19.5258 10.2013 19.6096C10.1523 19.6156 10.1118 19.6383 10.0766 19.6673C10.0174 19.6732 9.96261 19.7059 9.93519 19.7632L9.4367 20.8054V19.8386C9.43701 19.7081 9.31955 19.6557 9.22079 19.6766ZM9.43701 25.4766V21.6167L10.0782 20.2761C10.124 20.4748 10.2418 20.6705 10.4327 20.859C10.9169 21.3369 11.7481 21.6488 12.094 21.6488H12.1011C12.5903 21.6425 13.0557 21.4351 13.2595 21.1325C13.4711 20.8179 13.4209 20.4163 13.1181 20.0019C13.0299 19.8813 12.928 19.7648 12.8255 19.6486C12.6803 19.4835 12.5432 19.3274 12.4507 19.1626C12.4414 19.146 12.4283 19.1333 12.4149 19.1208C12.4167 19.1189 12.4189 19.1171 12.4208 19.1152L12.4286 19.056C14.4998 19.6931 17.4824 20.9415 17.5331 21.9043C17.5986 23.1492 17.6902 24.836 17.7247 25.4766H9.43701Z" fill="#F8F8F8"/>
<path d="M14.7843 7.62809C14.8164 7.84992 15.1535 7.75583 15.1217 7.53524C14.9248 6.17 14.3095 4.95181 13.3371 3.97539C13.1782 3.81556 12.9305 4.06294 13.0897 4.22277C14.0241 5.16086 14.5955 6.31892 14.7843 7.62809Z" fill="#F8F8F8"/>
<path d="M15.0466 17.6877C14.8273 18.0008 14.5964 18.3042 14.3521 18.5987C14.2094 18.7706 14.4559 19.0196 14.5998 18.846C14.8628 18.5289 15.1123 18.2017 15.3488 17.8643C15.4781 17.6796 15.175 17.5045 15.0466 17.6877Z" fill="#F8F8F8"/>
<path d="M15.7046 17.4259C16.1953 16.8302 16.5278 16.1513 16.6826 15.3942C16.7275 15.1743 16.3904 15.0805 16.3452 15.3014C16.2025 15.998 15.9099 16.6286 15.4572 17.1785C15.3152 17.3508 15.5613 17.5997 15.7046 17.4259Z" fill="#F8F8F8"/>
</svg>
