<svg width="26" height="26" viewBox="0 0 26 26" fill="none" xmlns="http://www.w3.org/2000/svg">
<g clip-path="url(#clip0_73_204)">
<path d="M6.02315 4.2562C5.915 4.2689 5.83776 4.36709 5.8508 4.47524L6.48286 9.75795L6.87425 9.7116L6.24185 4.42855C6.2288 4.3204 6.12546 4.24007 6.02315 4.2562Z" fill="#F5EFE8"/>
<path d="M23.7836 20.1407L23.4526 17.4783C23.3815 16.9053 23.111 16.3892 22.6908 16.0257C22.265 15.6569 21.7404 15.4897 21.2097 15.5557L20.4403 15.6514L20.3702 15.0894L21.1396 14.9936C21.6684 14.9281 22.1373 14.6373 22.4601 14.1751C22.7783 13.7199 22.9143 13.1527 22.8429 12.5797L22.5112 9.91692C22.4398 9.34391 22.1693 8.8279 21.7494 8.46432C21.3233 8.09524 20.797 7.93045 20.2686 7.99465L19.4996 8.09044L19.4543 7.7272L19.7983 7.68429C21.0404 7.52979 21.9248 6.39339 21.77 5.15159L21.4383 2.48878C21.3638 1.88968 21.0586 1.35376 20.5793 0.980565C20.0997 0.607373 19.5089 0.443264 18.906 0.517422L5.06663 2.23987C3.82517 2.39437 2.94077 3.53042 3.09493 4.77222L3.30092 6.42738C2.59264 6.63612 2.11577 7.32963 2.2095 8.08632C2.28468 8.68816 2.70182 9.16264 3.24049 9.347C2.76396 9.65805 2.47488 10.2187 2.55007 10.8202C2.62045 11.3894 2.99708 11.8454 3.49284 12.0496C3.38229 12.1317 3.2786 12.2237 3.19174 12.3353C2.93974 12.659 2.82885 13.0618 2.87966 13.4686C2.93013 13.8758 3.13647 14.2394 3.46022 14.4914C3.53713 14.5514 3.61952 14.6009 3.70432 14.6448C3.63257 14.708 3.56528 14.7773 3.50554 14.8542C3.25388 15.1783 3.14265 15.5811 3.19346 15.9879C3.24393 16.3951 3.45026 16.7587 3.77402 17.0107C3.88628 17.0979 4.00919 17.1638 4.13725 17.2163C4.02636 17.2987 3.92199 17.3907 3.83479 17.5026C3.58279 17.8264 3.47189 18.2291 3.52271 18.6359C3.57317 19.0431 3.77917 19.4064 4.10292 19.6587C4.16815 19.7095 4.23682 19.7538 4.30789 19.7929C3.96147 20.1177 3.76612 20.5953 3.82895 21.1017C3.92336 21.858 4.55611 22.4142 5.29391 22.4431L5.42643 23.5111C5.56925 24.6578 6.54944 25.5 7.67691 25.5C7.76995 25.5 7.86437 25.4945 7.95912 25.4825L19.2023 24.0831C20.0726 23.975 20.8979 22.6758 20.9484 22.6758C20.9566 22.6758 21.199 22.6645 21.2076 22.6635L22.0803 22.5546C23.168 22.4194 23.9326 21.3362 23.7836 20.1407ZM20.3177 8.3857C20.7325 8.3342 21.151 8.46775 21.4912 8.76232C21.8376 9.06204 22.0608 9.48948 22.1202 9.96601L22.4518 12.6288C22.5112 13.1047 22.3993 13.5736 22.137 13.9496C21.8792 14.3183 21.5077 14.5507 21.0909 14.6022L20.3218 14.698L19.548 8.48148L20.3177 8.3857ZM10.9793 2.07164L12.9648 18.0238L11.3477 16.8733C11.3409 16.8685 11.3326 16.8668 11.3254 16.863L11.1149 15.1704C11.1016 15.0626 11.0054 14.9833 10.8949 14.9991C10.7871 15.0122 10.7102 15.111 10.7236 15.2192L10.9522 17.0594L9.79693 18.4179L7.8115 2.46578L10.9793 2.07164ZM19.1333 23.5245L8.67804 24.8257L7.05653 11.2037C7.04417 11.0959 6.94426 11.0142 6.83749 11.0313C6.729 11.044 6.65175 11.1419 6.66514 11.2504L8.28665 24.8745L7.88977 24.9236C6.9628 25.0403 6.10243 24.3749 5.98605 23.4414L5.85215 22.3613C6.32216 22.2007 6.69329 21.8223 6.83268 21.3307C6.8756 21.181 6.78839 21.0251 6.6387 20.9829C6.48799 20.9393 6.33315 21.0275 6.29092 21.1769C6.18792 21.5394 5.88545 21.8024 5.51673 21.8656C5.51329 21.8659 5.5102 21.8646 5.50677 21.8649C5.49304 21.8666 5.48205 21.8738 5.46935 21.8773C4.93788 21.9387 4.45483 21.5621 4.38857 21.032C4.33329 20.585 4.59319 20.1737 4.99178 20.0127L5.09581 20.848C5.11366 20.9905 5.23486 21.0948 5.37493 21.0948C5.38661 21.0948 5.39828 21.0941 5.4103 21.0924C5.56445 21.0735 5.67431 20.9324 5.65474 20.7779L5.54488 19.8956C6.01523 19.7346 6.38636 19.3562 6.52541 18.8646C6.56764 18.7149 6.48078 18.559 6.33143 18.5168C6.18071 18.4739 6.02587 18.5618 5.98364 18.7108C5.88374 19.0637 5.59363 19.3198 5.2376 19.3916C5.21323 19.3882 5.18954 19.383 5.16448 19.3868C5.12259 19.3919 5.08414 19.406 5.04328 19.4146C4.83008 19.4139 4.62168 19.3477 4.44933 19.2134C4.24437 19.0538 4.11391 18.8241 4.08164 18.5659C4.04936 18.3081 4.11974 18.053 4.27905 17.848C4.38616 17.7103 4.52693 17.6101 4.68451 17.5469L4.77 18.2343C4.78785 18.3767 4.90904 18.4811 5.04946 18.4811C5.06114 18.4811 5.07281 18.4804 5.08483 18.4787C5.23898 18.4598 5.34884 18.3187 5.32961 18.1642L5.21529 17.2472C5.68564 17.0862 6.05677 16.7078 6.19582 16.2162C6.23839 16.0662 6.15119 15.9106 6.00184 15.8684C5.85078 15.8245 5.69628 15.913 5.65405 16.0624C5.54728 16.4394 5.2273 16.7147 4.83798 16.7631C4.30033 16.8297 3.81831 16.4497 3.75205 15.9175C3.71977 15.6597 3.79015 15.4049 3.94946 15.1996C4.05692 15.062 4.19734 14.9617 4.35492 14.8982L4.45414 15.6947C4.47199 15.8372 4.59319 15.9415 4.73326 15.9415C4.74494 15.9415 4.75661 15.9409 4.76862 15.9391C4.92278 15.9199 5.03264 15.7792 5.01341 15.6247L4.90149 14.7276C5.37219 14.5665 5.74298 14.1882 5.88202 13.6966C5.92425 13.5465 5.83739 13.391 5.68804 13.3488C5.53698 13.3055 5.38249 13.3934 5.34026 13.5427C5.24035 13.8957 4.95059 14.1515 4.59525 14.2236C4.58151 14.2232 4.56847 14.2188 4.55439 14.2208C4.52864 14.2242 4.50667 14.2352 4.48367 14.2445C4.24162 14.2651 4.00095 14.1975 3.80595 14.0454C3.60098 13.8861 3.47052 13.656 3.43825 13.3979C3.40598 13.14 3.47636 12.8849 3.63566 12.68C3.74278 12.5423 3.88354 12.4421 4.04112 12.3789L4.13142 13.1054C4.14927 13.2478 4.27046 13.3522 4.41054 13.3522C4.42221 13.3522 4.43388 13.3515 4.4459 13.3498C4.60005 13.3306 4.70992 13.1898 4.69069 13.0353L4.5719 12.0795C5.04225 11.9181 5.41339 11.5401 5.55243 11.0485C5.595 10.8985 5.5078 10.743 5.35845 10.7007C5.20739 10.6568 5.05255 10.7454 5.01067 10.8947C4.90389 11.2717 4.58357 11.547 4.19459 11.5954C3.93675 11.6277 3.68166 11.5573 3.47636 11.3973C3.27139 11.2377 3.14093 11.008 3.10866 10.7498C3.07639 10.492 3.14677 10.2369 3.30607 10.0319C3.41319 9.89426 3.55395 9.79401 3.71153 9.73049L3.82174 10.6152C3.83959 10.7577 3.96079 10.8621 4.10086 10.8621C4.11253 10.8621 4.12421 10.8614 4.13622 10.8597C4.29038 10.8408 4.40024 10.6997 4.38101 10.5452L4.24609 9.45995C4.24094 9.42081 4.22823 9.38477 4.2097 9.35249C4.69069 9.19594 5.07109 8.81279 5.21254 8.3136C5.25546 8.16391 5.16825 8.00804 5.01856 7.96581C4.86785 7.9229 4.71335 8.01044 4.67078 8.15979C4.56366 8.5371 4.243 8.8121 3.85401 8.86051C3.31877 8.92574 2.83503 8.5474 2.76843 8.01525C2.71315 7.56824 2.9727 7.15694 3.37164 6.99592L3.4997 8.02589C3.51859 8.18005 3.65695 8.29094 3.81419 8.27068C3.96834 8.2518 4.0782 8.11069 4.05898 7.9562L3.65351 4.7015C3.53781 3.768 4.20283 2.91382 5.13632 2.79777L7.42011 2.5135L9.46082 18.9113C9.47043 18.9889 9.52468 19.0534 9.60021 19.0761C9.61875 19.0816 9.63763 19.0843 9.65651 19.0843C9.7135 19.0843 9.76878 19.0593 9.80689 19.0146L11.1187 17.4717L11.2633 17.3159L11.3566 17.3632L13.1007 18.6044C13.1646 18.6493 13.2494 18.6524 13.3163 18.6129C13.3836 18.5731 13.4207 18.4969 13.4111 18.4193L11.37 2.02221L16.3771 1.39942L16.4619 1.39564C16.4852 1.39221 16.5068 1.38672 16.5271 1.38019L18.9757 1.07567C19.4251 1.01902 19.8721 1.14399 20.2329 1.42448C20.5934 1.70566 20.8234 2.10804 20.8794 2.55813L21.211 5.22095C21.2667 5.67104 21.1431 6.11736 20.8622 6.47854C20.581 6.83903 20.1783 7.06905 19.7282 7.12501L19.1048 7.20261L18.8603 7.51709L20.6157 21.6198C20.7314 22.5539 20.0664 23.4085 19.1333 23.5245ZM22.0319 22.1636L21.1592 22.2724C21.1544 22.2731 21.151 22.2759 21.1462 22.2769C21.1932 22.0438 21.2056 21.7997 21.1747 21.5508L20.489 16.0428L21.2584 15.947C21.6735 15.8949 22.0917 16.0291 22.4322 16.3237C22.7787 16.6237 23.0018 17.0508 23.0609 17.527L23.3925 20.1898C23.5147 21.1693 22.9043 22.0551 22.0319 22.1636Z" fill="#F5EFE8"/>
<path d="M20.0523 4.35406C19.9442 4.3678 19.8673 4.46599 19.8807 4.57413L19.9837 5.39914C19.996 5.49904 20.0812 5.57183 20.179 5.57183C20.1873 5.57183 20.1955 5.57149 20.2041 5.57011C20.3119 5.55672 20.3888 5.45819 20.3754 5.35004L20.2724 4.52504C20.259 4.41689 20.1632 4.33896 20.0523 4.35406Z" fill="#F5EFE8"/>
<path d="M19.7843 3.99666C19.7966 4.09657 19.8818 4.16969 19.9796 4.16969C19.9879 4.16969 19.9958 4.16935 20.0044 4.16798C20.1122 4.15459 20.1891 4.05605 20.1757 3.94791L19.9439 2.0871C19.9302 1.97895 19.8351 1.9017 19.7239 1.91578C19.6161 1.92917 19.5392 2.0277 19.5525 2.13585L19.7843 3.99666Z" fill="#F5EFE8"/>
</g>
<defs>
<clipPath id="clip0_73_204">
<rect width="25" height="25" fill="white" transform="translate(0.5 0.5)"/>
</clipPath>
</defs>
</svg>
