<svg width="26" height="22" viewBox="0 0 26 22" fill="none" xmlns="http://www.w3.org/2000/svg">
<path d="M25.3617 16.9709L24.2184 15.8531L23.7007 15.3471L23.5989 15.2475L23.4661 15.297C22.8411 15.529 22.3021 15.6418 21.8187 15.6418C21.7001 15.6418 21.5847 15.6347 21.4729 15.6205C21.6833 15.5355 21.9072 15.4469 22.1276 15.3597C22.5403 15.1965 22.93 15.042 23.1824 14.9305L23.4431 14.8155L23.2735 14.5841C23.0463 14.2745 22.8909 14.0419 22.7535 13.8367C22.5771 13.573 22.4378 13.3645 22.2407 13.138L22.157 13.042L22.0323 13.064C21.5301 13.1519 19.2467 13.5717 17.987 14.1372C18.5054 13.5148 20.2863 13.0113 21.2515 12.8375L22.0012 12.7024L21.3003 12.4012C21.2754 12.3906 18.7949 11.3258 17.4222 10.8204L17.344 10.7916L17.2661 10.821C16.6854 11.0391 16.2133 11.3403 15.8016 11.69V7.54715C15.7967 7.55717 15.7886 7.56589 15.7835 7.57559C15.7919 7.53228 15.8016 7.48963 15.8016 7.44439C15.8016 6.61324 14.3393 6.09006 12.6563 5.91426C13.0881 5.43309 13.3753 4.64492 13.4051 3.77758C13.4574 2.21353 12.0462 0.35088 11.9858 0.272677C11.9499 0.22582 11.8846 0.213864 11.8349 0.244886C11.7848 0.275586 11.766 0.339247 11.7916 0.392244C12.1441 1.12321 11.6785 2.01059 11.0341 3.23889L10.8266 3.63604C10.3788 4.50241 10.5775 5.33582 10.9284 5.85739C9.01182 5.92687 7.12785 6.43615 6.97435 7.32773H6.95916V14.4778C6.88807 14.4561 6.82505 14.4548 6.77464 14.4642C6.66024 14.4849 6.50093 14.5709 6.39494 14.8623C6.28539 15.1645 6.22302 15.4844 6.16227 15.7937C6.13318 15.9433 6.10378 16.0929 6.06952 16.2406C6.04367 16.3508 6.05143 16.4358 6.07792 16.5049C5.53891 16.3424 4.954 16.3236 4.32709 16.4542C4.02106 16.5178 3.91313 16.6565 3.87597 16.7615C3.8401 16.8643 3.83719 17.0349 4.02785 17.2643C4.2505 17.5329 4.51581 17.7675 4.77207 17.9943C4.86772 18.079 4.96337 18.1633 5.05676 18.2499C5.14692 18.3333 5.23191 18.3705 5.31141 18.3811C5.08165 18.5977 4.88517 18.8484 4.72004 19.1296C4.72941 18.9292 4.71164 18.787 4.7097 18.7738L4.69419 18.6723L4.69742 18.6713L4.69322 18.6642L4.69128 18.6513L4.68611 18.6526L4.62309 18.5505C4.59724 18.5091 3.98067 17.527 2.89035 17.1541C1.80101 16.7815 0.681611 17.1674 0.634754 17.1842L0.5 17.2297L0.574648 17.3509C0.6005 17.3923 1.2174 18.3744 2.30771 18.7473C2.65995 18.8678 3.01509 18.9088 3.33663 18.9088C3.66043 18.9088 3.94771 18.8668 4.1639 18.8222C3.896 18.9405 3.55443 19.1399 3.31821 19.4621C2.88454 20.0528 2.99085 20.8006 2.9957 20.8322L3.01444 20.9547L3.13498 20.9266C3.1673 20.9189 3.90311 20.7382 4.34098 20.1953C4.35391 20.29 4.3901 20.3595 4.4292 20.4057C4.48931 20.4761 4.59854 20.5511 4.7921 20.5511C4.83702 20.5511 4.88646 20.5472 4.94043 20.5382C5.24387 20.4878 5.54182 20.3966 5.83007 20.3084C5.9422 20.2742 6.05369 20.2399 6.16647 20.2079C6.34905 20.1559 6.47346 20.0725 6.54391 19.9517C6.67188 20.5301 6.95302 21.0649 7.38831 21.5493C7.54697 21.7258 7.69045 21.7723 7.79742 21.7723C7.82165 21.7723 7.84427 21.77 7.86431 21.7658C7.96869 21.7461 8.11346 21.6702 8.2075 21.4201C8.34031 21.0685 8.42078 20.6946 8.49866 20.3336C8.50544 20.3023 8.51255 20.2709 8.51934 20.2399C9.33627 20.4716 10.3713 20.5934 11.3802 20.5934C13.3288 20.5934 15.3824 20.1446 15.7408 19.3092C16.5917 19.4185 17.3078 19.4999 17.3737 19.5073L17.6671 19.5406L17.6222 19.2449C17.5792 18.9622 17.5094 18.3524 17.5114 17.8195C17.8539 18.4316 18.4149 19.1147 19.0302 19.2776L19.0867 19.2924L19.1433 19.2779C19.3747 19.2181 19.5375 19.1793 19.6694 19.1477C20.0833 19.0488 20.2081 19.019 21.1565 18.6548L21.532 18.5107L21.2157 18.2603C21.0767 18.1504 21.0234 18.0961 20.9943 17.8434L21.7327 18.2884L21.806 18.3327L21.8901 18.3168C22.4404 18.2125 25.2092 17.5325 25.3905 17.2669L25.5 17.107L25.3617 16.9709ZM11.0302 3.74042L11.2374 3.34424C11.7353 2.39482 12.1532 1.59825 12.1403 0.902177C12.5574 1.55721 13.2105 2.75158 13.176 3.76918C13.1394 4.84592 12.7265 5.60436 12.2899 5.94625C12.4502 5.7375 12.5684 5.45442 12.6163 5.13417C12.7313 4.36119 12.107 3.31515 12.0805 3.27088C12.0608 3.23857 12.0197 3.22629 11.9861 3.24277C11.9525 3.25892 11.936 3.29803 11.9486 3.33357C12.086 3.71586 11.7997 4.11011 11.4035 4.65559L11.2755 4.83267C11.0348 5.16843 11.0444 5.49675 11.1162 5.74461C10.8599 5.35198 10.5697 4.63103 11.0302 3.74042ZM11.4293 7.18263C11.45 7.2589 11.5027 7.29283 11.5541 7.29283C11.566 7.29283 11.5783 7.29089 11.5902 7.28701C11.6516 7.2673 11.703 7.19362 11.6769 7.09603C11.6374 6.94738 11.631 6.79356 11.6546 6.65234C12.5503 6.69661 13.1934 6.9477 13.1934 7.17649C13.1934 7.42855 12.4182 7.71034 11.3805 7.71034C10.3429 7.71034 9.56764 7.42855 9.56764 7.17649C9.56764 6.92476 10.3429 6.64297 11.3805 6.64297C11.3867 6.64297 11.3922 6.64362 11.3983 6.64362C11.3737 6.81844 11.3812 7.00296 11.4293 7.18263ZM11.588 6.14079C11.536 6.12722 11.4855 6.10622 11.4387 6.07035C11.3915 6.01089 10.995 5.4751 11.3944 4.91831L11.5221 4.74187C11.8174 4.33534 12.0675 3.99054 12.1199 3.65802C12.2967 4.02221 12.5426 4.63555 12.4712 5.11252C12.3988 5.5979 12.148 6.00442 11.8468 6.12367C11.7903 6.14596 11.735 6.1534 11.6811 6.15307C11.6497 6.15049 11.6187 6.14758 11.588 6.14079ZM11.2005 6.17278C11.2929 6.25519 11.3863 6.31723 11.4762 6.3544C11.4623 6.38962 11.4487 6.4242 11.438 6.46104C11.4187 6.46071 11.3993 6.46007 11.3799 6.46007C10.4124 6.46007 9.38377 6.71148 9.38377 7.17682C9.38377 7.64248 10.4124 7.89421 11.3799 7.89421C12.3474 7.89421 13.376 7.6428 13.376 7.17682C13.376 6.76351 12.5649 6.51953 11.7056 6.46976C11.7176 6.44003 11.7347 6.41547 11.7496 6.38833C11.9144 6.38639 12.0808 6.34276 12.2417 6.25454C12.2656 6.24129 12.2876 6.22126 12.3112 6.20639C14.2146 6.35149 15.4778 6.92185 15.4778 7.44309C15.4778 8.0461 13.7948 8.71761 11.3796 8.71761C8.96464 8.71761 7.28167 8.04577 7.28167 7.44309C7.28231 6.85625 8.88385 6.20542 11.2005 6.17278ZM6.2925 16.292C6.32772 16.1414 6.35745 15.9888 6.38718 15.8366C6.44632 15.5358 6.50675 15.2246 6.61016 14.9396C6.6638 14.7919 6.73683 14.7027 6.81536 14.6888C6.82279 14.6875 6.83087 14.6865 6.83895 14.6865C6.91812 14.6865 7.01797 14.7512 7.11718 14.8678C7.7121 15.5671 7.99131 16.3485 7.94736 17.1903C7.93055 17.5099 7.80356 17.7245 7.5502 17.8547C7.56055 17.0753 7.00828 16.7518 6.45472 16.5395C6.28054 16.472 6.26212 16.4212 6.2925 16.292ZM8.24854 16.6439C8.2075 16.395 8.27213 16.3327 8.43241 16.2868C8.55682 16.2512 8.68091 16.2134 8.80436 16.1756C9.13139 16.0758 9.46908 15.973 9.80484 15.9197C9.91665 15.9019 9.99873 15.9165 10.0375 15.9617C10.0802 16.0111 10.0824 16.11 10.0436 16.2331C9.73665 17.2033 9.14302 17.8832 8.27988 18.2541C8.06854 18.3449 7.85978 18.3223 7.64521 18.1856C8.22947 17.8127 8.37683 17.4159 8.24854 16.6439ZM5.21155 18.0806C5.11719 17.9934 5.02057 17.9077 4.92363 17.8221C4.67383 17.6007 4.41531 17.3719 4.20364 17.1173C4.10831 17.0026 4.06857 16.9024 4.09183 16.8362C4.11607 16.7663 4.21625 16.7101 4.3733 16.6772C4.63473 16.6229 4.88808 16.596 5.13335 16.596C5.79161 16.596 6.39106 16.7912 6.922 17.1797C7.15014 17.3467 7.23707 17.5216 7.20443 17.773C6.54682 17.3629 5.97161 17.7077 5.53665 18.0651C5.38089 18.1927 5.31367 18.1746 5.21155 18.0806ZM4.23661 18.4118L3.66075 18.2154C3.6601 18.2131 3.66139 18.2112 3.66043 18.2089L3.41515 17.6676C3.78742 17.91 4.06695 18.2041 4.23661 18.4118ZM2.81571 17.3694C2.95111 17.4156 3.07584 17.475 3.19573 17.5393L3.473 18.1514L2.85772 17.9417C2.85836 17.931 2.86159 17.9203 2.85675 17.91L2.56914 17.3018C2.65155 17.3209 2.73363 17.3416 2.81571 17.3694ZM2.39173 17.2672L2.68224 17.8815L2.12093 17.6899L1.90927 17.2226C2.06438 17.2246 2.22692 17.2401 2.39173 17.2672ZM1.74931 17.2259L1.93027 17.625L1.02318 17.3157C1.2077 17.275 1.4617 17.2352 1.74931 17.2259ZM2.38204 18.5304C1.65979 18.2835 1.15277 17.7339 0.918482 17.4346L4.24242 18.5686C3.86563 18.6584 3.10784 18.7793 2.38204 18.5304ZM4.20267 20.0072C3.91927 20.3928 3.44036 20.5896 3.21189 20.6655C3.20349 20.4416 3.22514 19.9756 3.5024 19.5975C3.78549 19.212 4.2644 19.0152 4.49319 18.9392C4.50159 19.1635 4.47994 19.6292 4.20267 20.0072ZM6.36941 19.5018C6.42047 19.7978 6.35551 19.9158 6.10378 19.9875C5.9897 20.0198 5.8766 20.0547 5.76317 20.0893C5.48203 20.1753 5.19152 20.2641 4.90327 20.312C4.76043 20.3352 4.65412 20.3162 4.60338 20.257C4.55232 20.1969 4.55006 20.0867 4.59692 19.9465C4.89487 19.0594 5.44358 18.4102 6.22819 18.0169C6.36262 17.9494 6.48413 17.9152 6.59885 17.9152C6.73004 17.9152 6.8522 17.9604 6.97338 18.0515C6.45116 18.3485 6.25307 18.8248 6.36941 19.5018ZM8.34548 19.9623C8.32125 20.0696 8.29798 20.1775 8.27439 20.2855C8.19845 20.6387 8.1196 21.0038 7.99292 21.3396C7.94865 21.4572 7.8879 21.5286 7.82165 21.5412C7.75121 21.5542 7.65361 21.5021 7.55893 21.3965C6.92426 20.691 6.63568 19.8735 6.70064 18.9654C6.72067 18.681 6.84735 18.4826 7.08648 18.363C7.12203 19.0362 7.42191 19.3987 8.14286 19.6699C8.35259 19.749 8.37586 19.8305 8.34548 19.9623ZM7.88661 19.1764C7.55505 18.9845 7.41933 18.7712 7.43484 18.4448C8.03299 18.7385 8.48799 18.6603 9.06417 18.184C9.25354 18.0276 9.34208 18.0528 9.46714 18.1701C9.55762 18.2545 9.65037 18.3375 9.74311 18.4202C9.97998 18.6316 10.2249 18.8504 10.4237 19.0934C10.5184 19.2091 10.5555 19.3131 10.5287 19.3861C10.499 19.4666 10.3852 19.5306 10.2159 19.5616C9.37795 19.7158 8.59495 19.5859 7.88661 19.1764ZM15.4797 19.0481C15.4781 19.6259 13.7951 20.27 11.3802 20.27C10.2534 20.27 9.29102 20.1284 8.57977 19.92C8.58558 19.8327 8.57007 19.761 8.54034 19.7028C8.86446 19.8001 9.19925 19.8537 9.54502 19.8537C9.77834 19.8537 10.0159 19.8318 10.2579 19.7872C10.5843 19.7271 10.7026 19.5787 10.7442 19.465C10.784 19.3574 10.7914 19.1803 10.6017 18.9483C10.3917 18.691 10.1396 18.4665 9.89629 18.249C9.80484 18.1675 9.71338 18.0858 9.62387 18.0024C9.52208 17.9074 9.4219 17.8576 9.31914 17.8486C9.74538 17.4508 10.0621 16.9347 10.2624 16.302C10.3448 16.0412 10.2802 15.8916 10.2117 15.8121C10.1458 15.7361 10.0152 15.6537 9.76961 15.6932C9.41802 15.7491 9.07257 15.8547 8.73843 15.9565C8.61596 15.994 8.49348 16.0312 8.37036 16.0664C8.23173 16.1062 8.1448 16.1701 8.09019 16.2451C7.96125 15.7041 7.6953 15.1932 7.29201 14.7195C7.28877 14.716 7.28587 14.7134 7.28296 14.7098V9.2075C7.36956 9.32352 7.46942 9.43371 7.59706 9.53163C8.36907 10.124 9.77284 10.2965 11.0354 10.2965C11.9945 10.2965 12.8715 10.1967 13.3265 10.1055C13.3886 10.0933 13.4287 10.0328 13.4164 9.97079C13.4038 9.90907 13.3446 9.86738 13.2816 9.88128C12.2954 10.0787 9.01634 10.3321 7.73666 9.35001C7.50399 9.17163 7.3547 8.96579 7.28328 8.72698V8.06904C7.9829 8.70371 9.71985 9.0414 11.3812 9.0414C13.0425 9.0414 14.7798 8.70371 15.4794 8.06904V8.68464C15.3294 9.10636 14.8105 9.45439 13.9257 9.7197C13.8649 9.7378 13.8307 9.80178 13.8488 9.86221C13.8639 9.91165 13.9095 9.94364 13.9586 9.94364C13.9693 9.94364 13.9806 9.94203 13.9916 9.9388C14.707 9.72422 15.1999 9.45827 15.4797 9.13512V19.0481ZM21.8484 18.0909C21.5365 17.9032 21.1966 17.6983 20.7409 17.424C20.7671 18.0596 20.7894 18.2134 21.0764 18.4403C19.8377 18.9163 20.0371 18.81 19.0871 19.0556C18.2918 18.8452 17.5004 17.5083 17.3986 16.9599C17.1436 17.6069 17.3986 19.2792 17.3986 19.2792C17.3986 19.2792 16.6718 19.1971 15.7961 19.085C15.7967 19.0724 15.8012 19.0607 15.8012 19.0481V15.676C16.9161 15.9698 18.0274 16.1902 18.7736 16.1902C18.8786 16.1902 18.9759 16.186 19.0654 16.1769C18.5306 16.0406 17.9958 15.9035 17.4606 15.7675C17.0635 15.6667 16.4773 15.4637 15.8012 15.2071V11.9911C16.2291 11.6011 16.7225 11.2686 17.3446 11.0349C18.7274 11.5442 21.2115 12.6116 21.2115 12.6116C21.2115 12.6116 17.3986 13.2976 17.6251 14.5902C18.5193 13.9824 21.0657 13.4654 22.0707 13.2896C22.4042 13.6728 22.5651 14.0031 23.0915 14.7211C22.5674 14.9528 21.4157 15.3816 20.7681 15.6676C21.098 15.8085 21.4503 15.8709 21.8183 15.8709C22.3648 15.8709 22.9468 15.7336 23.5436 15.5122C24.1046 16.0606 24.6443 16.5883 25.2046 17.136C25.1219 17.2566 22.8977 17.8919 21.8484 18.0909Z" fill="#EEE3D7"/>
</svg>
