<svg width="26" height="26" viewBox="0 0 26 26" fill="none" xmlns="http://www.w3.org/2000/svg">
<g clip-path="url(#clip0_165_6738)">
<path d="M23.9738 5.38171C20.4198 4.85397 20.4198 4.85397 18.1277 2.76341C14.9342 -0.150274 10.1845 -0.00310081 7.07829 3.10763C5.79112 4.39686 4.33567 5.07629 2.4979 5.24458C2.30606 5.2619 2.11525 5.29306 1.89674 5.32873C1.7932 5.34535 1.68343 5.36336 1.56327 5.38137C1.40224 5.40561 1.28866 5.55244 1.30597 5.71415C1.37627 6.3773 1.43929 7.03629 1.50163 7.69147C1.66577 9.40492 1.81987 11.0235 2.09101 12.6639C2.2091 13.3762 2.66966 14.1058 3.44397 14.8171C4.17187 15.6011 5.96289 15.9578 8.15975 16.1053L5.46527 24.6746C5.3309 25.0676 5.5411 25.4974 5.93449 25.6321C6.01414 25.6594 6.09655 25.6726 6.17828 25.6726C6.29186 25.6726 6.40475 25.6466 6.50933 25.5954C6.69079 25.5064 6.82619 25.3533 6.8899 25.1674L8.74879 20.0592C8.74879 20.0592 8.74948 20.0596 8.74983 20.0596C8.78065 20.0596 8.81216 20.053 8.8416 20.0388L12.9039 18.1003L16.683 19.9034C16.7003 19.9121 16.719 19.9124 16.7374 19.9159L18.6472 25.1639C18.7545 25.4762 19.0478 25.6726 19.3605 25.6726C19.4415 25.6726 19.5236 25.6591 19.6046 25.6321C19.9973 25.497 20.2079 25.068 20.0753 24.6798L17.3815 16.115C18.6437 16.0613 19.9135 15.8996 21.1463 15.3864C22.5111 14.8181 23.2528 13.9912 23.4142 12.8571C23.6511 11.1945 23.8308 9.48768 24.0043 7.83691C24.0784 7.13429 24.1525 6.42751 24.2318 5.71658C24.2491 5.55382 24.1355 5.40595 23.9738 5.38171ZM6.48751 25.025C6.42934 25.1961 6.24061 25.2872 6.07162 25.2283H6.07127C5.9892 25.2003 5.92237 25.141 5.88393 25.0624C5.84549 24.9835 5.83926 24.8941 5.86973 24.8069L8.59781 16.1306C8.87415 16.1455 9.15395 16.1586 9.43999 16.1676C9.47288 16.1939 9.50786 16.2192 9.53279 16.2483C9.55184 16.2701 9.57608 16.302 9.59339 16.3359C9.58335 16.3802 9.58612 16.4246 9.60344 16.4647L6.48751 25.025ZM8.94548 19.5169L9.9705 16.7009L12.4087 17.8644L8.94548 19.5169ZM12.9032 17.6286L10.0124 16.2493C10.0051 16.2265 9.99578 16.2043 9.98609 16.1822C10.4491 16.1922 10.9204 16.1971 11.3965 16.1971C12.2394 16.1971 13.094 16.1842 13.9341 16.1669C14.4099 16.1569 14.8262 16.1486 15.1583 16.1468L15.5666 16.1455C15.5278 16.222 15.5063 16.3037 15.5021 16.3886L12.9032 17.6286ZM13.3974 17.8644L15.6064 16.8103L16.5348 19.3615L13.3974 17.8644ZM19.6691 24.8121C19.7277 24.9835 19.6362 25.1705 19.4655 25.2287C19.2955 25.2872 19.1075 25.1958 19.0476 25.0216L15.9282 16.4478C15.9043 16.3782 15.9656 16.2933 16.0044 16.2483C16.0376 16.2102 16.0812 16.1752 16.1262 16.1427C16.3964 16.1413 16.6672 16.1382 16.939 16.1316L19.6691 24.8121ZM23.3986 7.77285C23.2175 9.49426 23.0464 11.1194 22.8113 12.7712C22.6804 13.6868 22.0768 14.3392 20.9112 14.824C19.2199 15.5284 17.4798 15.5318 15.6372 15.5363L15.1548 15.5374C14.8203 15.5395 14.4009 15.5481 13.9213 15.5581C11.0665 15.6149 5.12936 15.7386 3.87233 14.386C3.18356 13.7519 2.78602 13.1397 2.69113 12.5648C2.42311 10.9445 2.2697 9.33635 2.10729 7.63329C2.05361 7.07092 1.99959 6.50577 1.94107 5.93716C1.95942 5.93439 1.97743 5.93128 1.99509 5.92851C2.19802 5.89526 2.37497 5.86583 2.55366 5.8499C2.95916 5.81285 3.3432 5.74636 3.7165 5.66221C3.7449 5.92331 3.77398 6.19688 3.8055 6.49261C3.86298 7.03075 3.92531 7.61598 3.99076 8.20675C4.00288 8.31583 4.095 8.39652 4.202 8.39652C4.20996 8.39652 4.21793 8.39583 4.22589 8.39513C4.34294 8.38232 4.42709 8.27705 4.41427 8.16C4.34848 7.56923 4.28649 6.98538 4.22936 6.44794C4.19542 6.12936 4.16356 5.8357 4.13378 5.55798C5.40917 5.19749 6.50795 4.54058 7.50976 3.53703C10.4273 0.613989 14.7213 0.477204 17.7184 3.21221C19.4197 4.76428 19.952 5.23108 21.423 5.56629C21.3991 5.7796 21.3759 6.00469 21.3527 6.24225C18.794 5.85648 18.3753 5.73181 16.7993 4.32137C16.7367 4.26493 16.6397 4.27012 16.5846 4.33315C16.5285 4.39583 16.5337 4.49209 16.5964 4.54785C18.2094 5.99119 18.669 6.14494 21.3243 6.54594C21.3157 6.63736 21.3074 6.72359 21.2987 6.81709C21.2883 6.93413 21.3745 7.03767 21.4919 7.04806C21.4982 7.04841 21.5044 7.04876 21.5113 7.04876C21.6204 7.04876 21.7129 6.9653 21.7229 6.85483C21.7613 6.42301 21.8008 6.02235 21.842 5.65424C22.3178 5.74601 22.8819 5.83397 23.5946 5.94028C23.5267 6.55425 23.4627 7.16511 23.3986 7.77285Z" fill="#F8F8F8"/>
<path d="M6.48128 12.8802C6.59902 12.8802 6.69391 12.7881 6.69391 12.6704C6.79745 12.3622 8.91605 11.8123 12.7685 11.8123C16.6214 11.8123 18.7396 12.3625 18.8421 12.6642C18.8421 12.7819 18.9373 12.8771 19.0551 12.8771C19.1728 12.8771 19.2681 12.7819 19.2681 12.6642C19.2681 11.4012 13.0338 11.3864 12.7682 11.3864C12.5029 11.3864 6.26866 11.4012 6.26866 12.6642C6.26866 12.7819 6.36389 12.8802 6.48128 12.8802Z" fill="#F8F8F8"/>
<path d="M21.4216 7.86328C21.3046 7.85462 21.201 7.93946 21.1917 8.0572L21.1865 8.11711C21.0698 9.50019 20.9496 10.93 20.7966 11.9557C20.693 12.65 20.2131 13.1449 19.2861 13.514C17.9466 14.0473 16.5074 14.0498 15.1157 14.0522L14.7365 14.0532C14.473 14.0546 14.1419 14.0612 13.7634 14.0685C11.5115 14.1142 6.82238 14.2056 5.82368 13.1788C5.27827 12.6999 4.96349 12.2359 4.888 11.8003C4.86168 11.652 4.8364 11.4921 4.81078 11.3245C4.79312 11.2074 4.68265 11.1271 4.56837 11.1458C4.45237 11.1634 4.37203 11.2718 4.38969 11.3882C4.41531 11.5592 4.44163 11.7216 4.4676 11.8733C4.56006 12.4073 4.92194 12.9541 5.53037 13.4877C6.36077 14.3427 8.97596 14.5179 11.7674 14.5179C12.4326 14.5179 13.1082 14.5079 13.7717 14.4947C14.1478 14.4875 14.4764 14.4809 14.7386 14.4795L15.1164 14.4785C16.5479 14.476 18.0287 14.4729 19.4436 13.9099C20.5109 13.4846 21.0913 12.8665 21.2173 12.0188C21.3725 10.9795 21.4937 9.54244 21.6104 8.15312L21.6156 8.09321C21.6256 7.97582 21.5383 7.87297 21.4216 7.86328Z" fill="#F8F8F8"/>
<path d="M14.6641 2.99059C15.0977 3.25308 15.5115 3.56266 15.8941 3.91172C15.9232 3.93873 15.9599 3.95154 15.9963 3.95154C16.0375 3.95154 16.0791 3.93458 16.1085 3.90168C16.1653 3.83969 16.1611 3.74377 16.0985 3.68698C15.7016 3.32476 15.2719 3.00271 14.8217 2.73087C14.75 2.68724 14.6565 2.71009 14.6129 2.78212C14.5692 2.8538 14.5924 2.9473 14.6641 2.99059Z" fill="#F8F8F8"/>
<path d="M17.9772 20.9395C17.9997 21.0011 18.0582 21.0392 18.1202 21.0392C18.1379 21.0392 18.1555 21.0365 18.1728 21.0302C18.2514 21.0008 18.2923 20.9135 18.2632 20.8349L17.9664 20.027C17.9374 19.9481 17.8487 19.9079 17.7711 19.9367C17.6922 19.9657 17.6517 20.053 17.6807 20.132L17.9772 20.9395Z" fill="#F8F8F8"/>
<path d="M16.5978 16.7386C16.5189 16.7677 16.478 16.8553 16.5071 16.9343L17.2848 19.0535C17.3074 19.1152 17.3659 19.1533 17.4279 19.1533C17.4455 19.1533 17.4632 19.1505 17.4802 19.1439C17.5591 19.1152 17.5996 19.0276 17.5709 18.9486L16.7931 16.8293C16.7645 16.7504 16.6758 16.7102 16.5978 16.7386Z" fill="#F8F8F8"/>
</g>
<defs>
<clipPath id="clip0_165_6738">
<rect width="25" height="25" fill="white" transform="translate(0.268921 0.672607)"/>
</clipPath>
</defs>
</svg>
