<svg width="26" height="34" viewBox="0 0 26 34" fill="#4D4D4D" xmlns="http://www.w3.org/2000/svg">
<g clip-path="url(#clip0_165_7179)">
<path d="M25.7693 21.0307C22.182 29.9304 13.5883 24.5463 13.5883 24.5463C10.9516 29.8718 6.59611 33.2963 1.57007 33.3158C0.521892 33.3158 0.48934 31.7273 1.57007 31.7273C5.76278 31.7078 9.41512 28.9473 11.8044 24.5593C9.12866 25.5945 4.08309 26.3757 1.28361 19.2078C8.37996 16.2846 11.6417 19.9369 12.8917 22.17C13.5362 20.5815 13.9985 18.8562 14.2979 16.9812C14.2979 16.9812 5.20288 18.407 4.56486 10.5945C12.3188 7.47599 14.4998 15.588 14.4998 15.588C14.6039 14.5007 14.7146 12.1635 14.7146 12.1114C14.7146 12.1114 7.79403 7.31323 12.2341 1.3562C20.3461 4.15568 16.2315 11.9291 16.2315 11.9291C16.2641 12.0333 16.2641 13.4786 16.2315 14.1036C16.2315 14.1036 19.1742 8.30933 25.1117 10.3601C24.8383 19.0841 15.8735 17.2872 15.8735 17.2872C15.587 19.071 15.1443 20.7638 14.5714 22.3328C14.5714 22.3328 19.975 16.3562 25.7693 21.0307Z" fill="#4D4D4D"/>
</g>
<defs>
<clipPath id="clip0_165_7179">
<rect width="25" height="33.3333" fill="#4D4D4D" transform="translate(0.769287 0.672607)"/>
</clipPath>
</defs>
</svg>
