<svg width="26" height="26" viewBox="0 0 26 26" fill="none" xmlns="http://www.w3.org/2000/svg">
<g clip-path="url(#clip0_184_4825)">
<path d="M14.0505 5.36012C10.2126 5.36012 6.96558 7.87477 5.86206 11.3416C7.50269 10.5115 9.35327 10.0476 11.3162 10.0476H15.613C16.0427 10.0476 16.3943 10.3992 16.3943 10.8289C16.3943 11.2586 16.0427 11.6101 15.613 11.6101H14.8318H11.3162C10.5056 11.6101 9.71948 11.7029 8.96265 11.8738C7.698 12.1619 6.52124 12.6746 5.47632 13.3728C2.6394 15.2625 0.769287 18.49 0.769287 22.157V22.9382C0.769287 23.5877 1.29175 24.1101 1.94116 24.1101C2.59058 24.1101 3.11304 23.5877 3.11304 22.9382V22.157C3.11304 19.7791 4.12378 17.6404 5.73999 16.1414C6.70679 19.8279 10.0613 22.5476 14.0505 22.5476H14.0994C20.5496 22.5134 25.7693 16.156 25.7693 8.31911C25.7693 6.23903 25.4031 4.26149 24.739 2.47926C24.6121 2.14235 24.1189 2.157 23.948 2.47438C23.03 4.19313 21.2136 5.36012 19.1287 5.36012H14.0505Z" fill="#F8F8F8"/>
</g>
<defs>
<clipPath id="clip0_184_4825">
<rect width="25" height="25" fill="white" transform="translate(0.769287 0.672607)"/>
</clipPath>
</defs>
</svg>
