<svg width="26" height="20" viewBox="0 0 26 20" fill="none" xmlns="http://www.w3.org/2000/svg">
<path d="M21.2739 15.9977C21.1615 15.9977 21.0702 16.0889 21.0702 16.2013C21.0702 17.4054 17.733 18.6946 12.7651 18.6946C7.79733 18.6946 4.46046 17.4054 4.46046 16.2013C4.46046 16.0889 4.36922 15.9977 4.2568 15.9977C4.14437 15.9977 4.05313 16.0889 4.05313 16.2013C4.05313 18.0172 8.48287 19.102 12.7651 19.102C17.0474 19.102 21.4776 18.0168 21.4776 16.2013C21.4776 16.0889 21.3863 15.9977 21.2739 15.9977Z" fill="#F8F8F8"/>
<path d="M25.4051 10.4526C25.3138 10.4021 23.9028 9.64406 22.0144 9.32757C22.7244 8.03836 23.0022 6.88235 23.0222 6.79559L22.891 6.55771C22.8051 6.52757 21.632 6.13001 20.1167 6.05303C20.234 4.25751 19.8588 2.83062 19.8324 2.73368L19.5819 2.59111C19.4698 2.62207 17.6772 3.13123 15.9334 4.3683C14.8902 2.39518 13.2373 1.05099 13.1358 0.970337H12.8821C12.779 1.05221 11.0776 2.43632 10.0381 4.45832C8.25517 3.15445 6.37656 2.62288 6.26169 2.59152L6.01118 2.73408C5.9843 2.83225 5.59733 4.29865 5.73094 6.13042C4.04132 6.16871 2.68776 6.65465 2.59733 6.68846L2.47187 6.93449C2.4955 7.018 2.82422 8.14956 3.59285 9.38948C1.88491 9.73531 0.642546 10.4058 0.557413 10.453L0.480835 10.7357C0.565153 10.8771 2.58552 14.2062 6.00426 15.13C6.21688 15.1874 6.42951 15.2306 6.64173 15.2677C6.81688 16.3838 9.86739 17.0485 12.8279 17.0485C15.7448 17.0485 18.7501 16.4037 19.0059 15.317C19.3216 15.2754 19.6393 15.2156 19.9574 15.1296C23.3762 14.2058 25.3965 10.8767 25.4808 10.7353L25.4051 10.4526ZM20.08 6.46932C21.2352 6.52675 22.1949 6.77278 22.577 6.88602C22.467 7.27584 22.1554 8.23999 21.5709 9.26362C20.8527 9.17523 20.0804 9.15975 19.291 9.27217C19.7542 8.33979 19.9835 7.37034 20.08 6.46932ZM19.4878 3.04651C19.6674 3.87217 20.2091 7.03144 18.6572 9.58622C17.0971 12.1545 13.8886 13.3369 13.0535 13.6082C12.8739 12.7826 12.3322 9.62329 13.8841 7.06891C15.4442 4.50028 18.6527 3.31779 19.4878 3.04651ZM12.8629 6.46769C12.9155 6.4628 12.9668 6.45506 13.021 6.45506C13.0715 6.45506 13.1199 6.46117 13.1688 6.46525L12.843 7.9516C12.7819 7.79478 12.7138 7.63877 12.6405 7.48358L12.8629 6.46769ZM12.5012 7.2017C12.4401 7.08602 12.377 6.97074 12.3077 6.8571C12.2686 6.79233 12.223 6.73368 12.1823 6.67095C12.3269 6.59193 12.4857 6.53368 12.6556 6.49783L12.5012 7.2017ZM13.3607 6.49091C13.4837 6.51453 13.6022 6.54793 13.713 6.59478C13.6544 6.68235 13.5916 6.76586 13.5362 6.8571C13.3615 7.14468 13.2193 7.43877 13.0914 7.7349L13.3623 6.50068C13.3627 6.49702 13.3603 6.49417 13.3607 6.49091ZM13.0091 1.396C13.4214 1.75282 14.7419 2.97278 15.6002 4.61474C14.9554 5.11087 14.3358 5.71127 13.825 6.42899C13.5831 6.32105 13.3106 6.25914 13.021 6.25914C12.6702 6.25914 12.3489 6.35445 12.0731 6.50883C11.5851 5.80374 10.9924 5.20903 10.3692 4.71372C11.225 3.02207 12.5888 1.75975 13.0091 1.396ZM6.35619 3.0461C7.19122 3.31738 10.3977 4.49702 11.9594 7.0685C12.3069 7.64081 12.5427 8.24284 12.7073 8.84325C12.1782 10.8498 12.4621 12.7707 12.6242 13.5524C11.5961 13.1984 8.65965 12.0123 7.18593 9.58582C5.63644 7.0347 6.17697 3.87258 6.35619 3.0461ZM2.9232 7.00863C3.34804 6.87461 4.46373 6.57278 5.77248 6.54631C5.8731 7.41922 6.09835 8.35241 6.54112 9.2518C5.66617 9.14264 4.812 9.18459 4.03562 9.30802C3.4067 8.33001 3.05273 7.39437 2.9232 7.00863ZM6.11138 14.7361C3.30202 13.9773 1.42544 11.42 0.950081 10.7105C1.65925 10.3659 4.19041 9.27054 6.78389 9.69824C6.80303 9.73123 6.81811 9.76504 6.83807 9.79804C7.82625 11.4245 9.39733 12.5027 10.6922 13.1703C8.56474 14.0359 6.25477 13.9785 4.57941 12.9964C4.51016 12.9553 4.42218 12.9793 4.38185 13.0477C4.34153 13.1166 4.36475 13.205 4.43318 13.2453C5.368 13.7931 6.48898 14.0677 7.66699 14.0677C8.77289 14.0677 9.92849 13.8229 11.0279 13.3394C11.6128 13.6204 12.1167 13.8123 12.4523 13.9272C11.5151 14.3634 8.77248 15.4555 6.11138 14.7361ZM12.8287 16.8168C9.46413 16.8168 7.15293 16.0604 6.89428 15.3068C7.27228 15.3597 7.64703 15.3862 8.01363 15.3862C10.6218 15.3862 12.8197 14.2086 12.9819 14.1198C13.1436 14.2086 15.3415 15.3862 17.9501 15.3862C18.2157 15.3862 18.4865 15.3699 18.759 15.343C18.4381 16.0848 16.1387 16.8168 12.8287 16.8168ZM19.8519 14.7361C17.1375 15.4701 14.3403 14.319 13.4601 13.9027C14.6193 13.4974 17.4951 12.284 19.0055 9.79763C19.0201 9.7736 19.0311 9.74875 19.0454 9.72431C21.6865 9.23347 24.2926 10.3593 25.0132 10.7101C24.5387 11.4196 22.6649 13.976 19.8519 14.7361Z" fill="#F8F8F8"/>
<path d="M2.23806 10.8412C2.19244 10.776 2.10242 10.7597 2.03724 10.8053C1.97207 10.8509 1.95578 10.941 2.0014 11.0061C2.16515 11.2412 2.34437 11.4681 2.53378 11.6807C2.5623 11.7129 2.60181 11.7292 2.64172 11.7292C2.67594 11.7292 2.71016 11.7169 2.73786 11.6925C2.79733 11.6395 2.80262 11.5483 2.74967 11.4888C2.56718 11.2848 2.39529 11.0668 2.23806 10.8412Z" fill="#F8F8F8"/>
<path d="M4.14234 12.717C3.76719 12.4567 3.41525 12.1663 3.09631 11.8531C3.03969 11.7973 2.94804 11.7981 2.89224 11.8551C2.83643 11.9121 2.83725 12.0034 2.89427 12.0592C3.22462 12.3834 3.58918 12.6848 3.97737 12.9541C4.00262 12.9716 4.03114 12.9797 4.05965 12.9797C4.10527 12.9797 4.15049 12.9582 4.17859 12.9178C4.22421 12.8523 4.20792 12.7622 4.14234 12.717Z" fill="#F8F8F8"/>
<path d="M19.9762 15.9406C19.9762 15.8767 19.9244 15.825 19.8605 15.825C19.7965 15.825 19.7448 15.8767 19.7448 15.9406C19.7448 16.8429 16.9656 17.8091 12.8283 17.8091C8.69103 17.8091 5.9118 16.8429 5.9118 15.9406C5.9118 15.8767 5.86007 15.825 5.79612 15.825C5.73217 15.825 5.68044 15.8767 5.68044 15.9406C5.68044 17.1178 8.82015 18.04 12.8283 18.04C16.8364 18.04 19.9762 17.1178 19.9762 15.9406Z" fill="#F8F8F8"/>
</svg>
