<svg width="85" height="54" viewBox="0 0 85 54" fill="none" xmlns="http://www.w3.org/2000/svg">
<path d="M84.6061 16.2933C84.433 16.1986 80.3289 13.998 75.7821 14.8622C72.5707 15.4719 70.0657 17.4323 68.8228 18.5856C69.57 17.6583 70.5726 16.1152 70.7833 14.3094C71.1212 11.4044 69.2738 9.01953 69.1944 8.91876L68.9531 8.61238L68.6661 8.87702C68.5816 8.9554 66.9225 10.5311 66.1835 12.7348C65.4771 11.1927 64.5518 9.73408 63.3802 8.3803C63.9533 7.70952 64.3869 6.53794 62.9273 4.89203C61.5756 3.36623 58.4079 2.82574 58.2736 2.80334C58.1677 2.78808 58.0567 2.81658 57.9753 2.88884C57.8939 2.96111 57.8491 3.06596 57.8542 3.17487C57.8603 3.31126 58.017 6.52064 59.3688 8.04644C60.0294 8.79152 60.7053 9.20784 61.3781 9.28112C61.4524 9.28927 61.5267 9.29334 61.601 9.29334C61.9532 9.29334 62.2932 9.19155 62.6199 9.00528C64.0795 10.6888 65.129 12.5495 65.8496 14.5252C65.7794 16.1895 66.3626 17.645 66.8553 18.5367C67.5383 22.7894 67.1545 27.3179 66.4146 31.5951C65.8527 29.6041 64.4979 28.2473 63.2184 27.1164C62.9212 26.8548 62.6565 26.6919 62.3837 26.6044C62.283 26.5718 62.1751 26.5718 62.0753 26.6044C61.8056 26.6909 61.5328 26.8589 61.2407 27.1164C60.4121 27.8482 59.554 28.6799 58.8955 29.711C57.7921 29.0341 56.5299 28.4865 55.1202 28.1261C54.7089 28.0213 54.2865 27.9246 53.861 27.832C57.7962 26.7113 60.3093 24.873 60.7134 22.7324C60.9241 21.6168 60.6432 19.9495 58.1066 18.3433C55.8724 16.9284 52.7505 15.8098 49.135 15.0617C49.2572 14.9538 49.3865 14.856 49.5025 14.739C51.3367 12.8926 52.1072 10.1667 51.5647 7.44792C51.0782 5.01214 49.6114 3.06901 47.6408 2.2486C43.9235 0.701424 39.0489 0.934517 38.7578 0.949785C34.1386 1.08516 29.9073 2.73006 27.4379 5.34804C26.0699 6.79954 25.562 8.55945 26.0078 10.3031C26.4394 11.9907 27.7331 13.4717 29.5816 14.4825C27.9733 14.6728 26.3437 14.9222 24.8261 15.2988C21.1505 16.2119 18.5997 18.5571 18.1712 21.4163C17.7986 23.903 19.1371 26.2624 21.8447 27.89C22.1124 28.0508 22.4015 28.1964 22.6916 28.3419C19.1494 29.2672 16.0876 30.508 13.7861 32.0073C11.1865 33.7021 10.5289 35.4335 10.5391 36.77C10.0943 36.6671 9.63829 36.5837 9.16498 36.5399C4.56926 36.1185 0.61887 39.0327 0.451938 39.1569L0 39.4958L0.382722 39.9101C0.52319 40.0618 3.88015 43.6447 8.47486 44.0661C8.78327 44.0946 9.08966 44.1078 9.39095 44.1078C12.0619 44.1078 14.4274 43.0767 15.8351 42.297C14.86 43.094 13.5877 44.402 12.9535 46.1843C11.8705 49.2329 13.1113 52.4015 13.1642 52.5349L13.379 53.0713L13.8839 52.7903C14.0101 52.7211 16.9721 51.0457 18.0562 47.9972C18.6048 46.452 18.5569 44.8784 18.3686 43.6824C19.415 44.0203 20.5326 44.3236 21.7521 44.5669C30.4824 46.3075 37.7989 47.1778 43.7779 47.1778C47.4769 47.1778 50.6344 46.8235 53.3246 46.1558C53.4702 46.3085 53.6269 46.4398 53.7939 46.5111C55.4825 47.2307 57.6465 47.8414 59.6854 46.4103C60.6798 47.7712 61.3313 48.5987 62.0682 48.842C62.1191 48.8593 62.173 48.8674 62.226 48.8674C62.2789 48.8674 62.3329 48.8593 62.3837 48.842C63.1217 48.5987 63.7732 47.7712 64.7676 46.4103C66.8064 47.8435 68.9704 47.2317 70.6591 46.5111C71.223 46.2708 71.7411 45.4402 71.6861 44.8651C71.5253 43.1775 71.0143 41.8705 70.0952 40.814C72.5177 39.6098 73.1885 37.2626 73.6985 34.7546C73.9051 33.7387 73.5448 33.1076 72.5656 32.7687C70.8617 32.1773 69.1699 31.6918 67.353 32.0551C68.0462 28.1119 68.4422 23.9671 68.0472 19.9923L68.0645 20.0014C68.2091 20.0798 71.1049 21.6331 74.7103 21.6331C75.4146 21.6331 76.1465 21.574 76.8895 21.4326C81.4323 20.5694 84.5745 16.9956 84.7058 16.844L85 16.506L84.6061 16.2933ZM62.6189 8.12787C62.2433 8.46071 61.8483 8.60932 61.4554 8.5625C60.9669 8.50855 60.4457 8.17367 59.9072 7.566C59.0044 6.5471 58.7031 4.51949 58.6105 3.60543C59.5062 3.80697 61.4829 4.34848 62.3858 5.36738C63.3772 6.48603 63.4535 7.38889 62.6189 8.12787ZM61.9084 27.8737C62.0255 27.7709 62.1323 27.6915 62.229 27.6365C62.3247 27.6915 62.4306 27.7699 62.5486 27.8737C64.2841 29.4076 66.1326 32.4684 65.6776 33.0781C64.7554 34.1672 62.7023 36.8667 62.7115 37.6148C62.7135 37.8102 62.7563 37.97 62.8418 38.1064C62.9415 38.2632 63.0881 38.369 63.2286 38.4637C63.2785 38.4973 63.3792 38.5858 63.3894 38.5991C64.6424 40.1839 64.9783 41.8797 64.334 43.3027C63.65 42.8141 63.1075 42.2736 62.7889 41.7606C62.7766 41.7403 62.7512 41.7382 62.7349 41.7219C62.7186 41.7056 62.7166 41.6802 62.6962 41.668C62.682 41.6588 62.6647 41.667 62.6494 41.6598C62.6138 41.6446 62.5833 41.6425 62.5436 41.6425C62.5049 41.6425 62.4733 41.6446 62.4377 41.6598C62.4224 41.666 62.4061 41.6588 62.3919 41.667C62.3715 41.6792 62.3695 41.7046 62.3532 41.7209C62.3369 41.7372 62.3115 41.7392 62.2993 41.7606C61.9817 42.2736 61.4392 42.8141 60.7541 43.3027C60.1098 41.8797 60.4447 40.1839 61.6987 38.5991C61.7231 38.5675 62.0081 38.307 62.1059 38.1655C62.2005 38.027 62.2484 37.8621 62.2504 37.6626C62.2606 36.8666 58.8028 33.0262 58.8049 33.0089C58.98 30.8683 60.1729 29.4076 61.9084 27.8737ZM61.3791 38.0321C60.0589 38.8505 55.7696 40.2562 55.4082 40.1656C52.8167 39.5142 52.2609 37.0916 51.7459 34.5561C51.64 34.038 51.7204 33.8985 52.2192 33.7255C54.1562 33.0537 56.0627 32.5274 58.0944 33.4283C58.184 33.4669 61.6468 37.1975 61.6722 37.6545C61.6712 37.738 61.657 37.796 61.6285 37.8377C61.5817 37.9059 61.4646 37.9792 61.3791 38.0321ZM54.8667 29.1135C56.193 29.4524 57.3768 29.9654 58.4018 30.6006C58.1697 31.1065 57.9885 31.6572 57.8817 32.2638C56.2622 31.7253 54.7547 31.9147 53.2656 32.334C53.0406 31.024 52.4116 29.713 51.3805 28.4101C52.5734 28.6045 53.7532 28.8285 54.8667 29.1135ZM59.7128 22.5441C59.3301 24.5727 56.0973 26.4619 51.4772 27.3566C50.7433 27.4991 49.7977 27.6813 48.7035 27.8778C41.276 26.469 36.4238 23.905 34.6618 20.435C33.7946 18.727 33.8384 17.1412 34.0389 16.0724C36.1652 16.6658 38.9349 17.2745 41.6831 17.3142C41.6933 17.3346 41.6994 17.3539 41.7096 17.3743C42.4099 18.7616 44.1403 20.659 48.3981 21.8224C49.7916 22.2031 51.0619 22.3934 52.2029 22.3934C53.6147 22.3934 54.828 22.1013 55.8306 21.5191C56.9819 20.8493 57.5621 19.9607 57.8379 19.3917C58.8934 20.1144 59.9663 21.2015 59.7128 22.5441ZM57.444 19.1352C57.2068 19.6391 56.6745 20.4961 55.5874 21.1252C53.8875 22.1074 51.5087 22.1929 48.5192 21.3766C44.6676 20.3251 42.9463 18.7057 42.189 17.3183C44.291 17.2918 46.342 16.903 48.0327 15.881C51.8456 16.5844 55.1303 17.7 57.444 19.1352ZM47.2489 3.18912C48.906 3.87924 50.1468 5.54551 50.5662 7.64845C51.0425 10.0333 50.3748 12.4172 48.7808 14.0224C47.7599 15.0494 46.4132 15.7223 44.7439 16.0592C49.7376 10.6217 47.8942 5.15871 46.8611 3.04865C46.9883 3.09649 47.1227 3.13619 47.2489 3.18912ZM46.2229 2.81861C46.6026 3.49346 47.3069 4.95005 47.5431 6.85857C47.9645 10.2501 46.7491 13.3842 43.9663 16.1874C41.388 16.5264 38.1023 16.1314 34.0684 15.0077C37.4294 13.8066 39.8265 11.9429 41.1885 9.445C42.8425 6.41172 42.5086 3.34587 42.2613 2.07352C43.496 2.18854 44.9027 2.40535 46.2229 2.81861ZM28.1779 6.04732C30.2188 3.88331 33.5971 2.44301 37.3928 2.06538C37.3918 3.32857 37.0141 6.61937 33.3101 8.31312C31.9227 8.94726 30.7583 9.02156 29.8523 8.534C28.7866 7.96093 28.3204 6.74253 28.1393 6.09414C28.1525 6.07888 28.1637 6.06259 28.1779 6.04732ZM26.9931 10.0517C26.6817 8.83631 26.9626 7.6006 27.781 6.51656C28.0314 7.26674 28.5627 8.363 29.6304 8.93912C30.0946 9.18951 30.6096 9.31471 31.1736 9.31471C31.8759 9.31471 32.6546 9.1203 33.5014 8.73249C37.459 6.9227 37.8529 3.38252 37.8519 2.03281C38.1654 2.0094 39.1446 1.94934 39.682 1.94934C40.2072 1.94934 40.9452 1.9697 41.7799 2.03179C42.0058 3.1484 42.4099 6.23868 40.7823 9.22209C39.3929 11.7709 36.8594 13.6336 33.2724 14.7828C32.7604 14.6321 32.2372 14.4692 31.7028 14.2952C29.2284 13.4941 27.4685 11.9073 26.9931 10.0517ZM31.5023 15.3019C32.0459 15.478 32.7564 15.7039 33.5839 15.9431C33.36 17.0821 33.306 18.7789 34.2455 20.6345C36.0014 24.1045 40.4444 26.6085 47.4464 28.0976C42.8832 28.8712 36.3566 29.7181 30.6514 29.2539C26.8598 26.981 24.7843 24.477 24.5207 21.799C24.2459 19.0029 26.0404 16.7656 26.8557 15.9045C28.3846 15.6205 29.9755 15.4332 31.5023 15.3019ZM22.3689 27.0187C20.0319 25.614 18.8694 23.6271 19.1779 21.569C19.5382 19.1607 21.8518 17.0883 25.0714 16.2882C25.3991 16.2068 25.7442 16.1416 26.0831 16.0704C25.1436 17.1911 23.8092 19.2685 24.0616 21.8407C24.3192 24.475 26.1859 26.9291 29.6009 29.1521C26.8333 28.8386 24.309 28.1862 22.3689 27.0187ZM24.2377 29.0127C26.7183 29.9125 29.8625 30.3695 33.6969 30.3899C32.8062 32.2272 30.6717 34.4258 25.6678 35.8325C21.974 36.8697 19.0231 36.773 16.8988 35.5444C15.3903 34.6721 14.7104 33.4384 14.4417 32.8012C16.9233 31.2072 20.3097 29.9217 24.2377 29.0127ZM9.07133 37.5558C9.54159 37.5985 9.99557 37.6871 10.4383 37.798L12.2512 40.3732L9.50597 40.1249C9.51717 40.0658 9.50699 40.0027 9.46933 39.9488L7.76947 37.5344C8.19698 37.513 8.63059 37.515 9.07133 37.5558ZM11.1498 38.0067C13.2151 38.6846 14.8641 39.9111 15.7608 40.6898L12.8293 40.4252C12.8232 40.4089 12.8283 40.3905 12.8181 40.3753L11.1498 38.0067ZM7.24322 37.5893L8.99601 40.0791L6.47778 39.8521L5.17591 38.0026C5.82227 37.8092 6.51646 37.6657 7.24322 37.5893ZM4.71278 38.1451L5.87621 39.7971L1.89733 39.4378C2.54164 39.0541 3.51881 38.5472 4.71278 38.1451ZM8.56748 43.0533C5.5281 42.7754 3.02412 40.9198 1.85254 39.8969L15.768 41.154C14.4406 41.9438 11.6282 43.3332 8.56748 43.0533ZM17.0973 47.6572C16.4031 49.6115 14.7643 50.9653 13.9164 51.5597C13.6355 50.5632 13.2182 48.4796 13.9134 46.5253C14.572 44.6707 16.0733 43.3668 16.9507 42.7286C16.9986 42.7235 17.0576 42.7164 17.1177 42.7093C17.3966 43.7343 17.7742 45.7537 17.0973 47.6572ZM18.0114 42.1311C17.9248 41.8522 17.8801 41.5418 17.6327 41.1153C17.3854 40.6888 14.8936 38.1756 11.5824 37.0611C11.4379 35.6706 12.2838 34.3006 14.0508 33.0669C14.3643 33.7855 15.0911 35.0273 16.6556 35.9363C17.8811 36.6488 19.358 37.0051 21.0711 37.0051C22.486 37.0051 24.0616 36.7618 25.792 36.2763C31.0616 34.7953 33.2571 32.3809 34.1549 30.3909C36.6233 30.3817 39.3746 30.1934 42.4089 29.8311C42.2236 30.9284 41.787 31.9778 41.0643 32.9631C36.4971 39.1935 22.4575 41.5346 18.0114 42.1311ZM21.9526 43.5704C20.5998 43.3007 19.3651 42.9576 18.2333 42.5688C20.0787 42.3194 23.3674 41.7993 26.9351 40.8771C34.2231 38.992 39.1018 36.4218 41.4378 33.2369C42.2359 32.1488 42.7112 30.9884 42.8914 29.771C45.3618 29.4636 48.0184 29.0422 50.8665 28.5048C51.9546 29.825 52.608 31.1492 52.8228 32.4653C52.5113 32.562 52.2009 32.6628 51.8894 32.7707C50.9102 33.1097 50.5499 33.7418 50.7565 34.7566C50.9509 35.7114 51.1698 36.6417 51.4986 37.4967C48.2922 42.0303 40.6429 45.1227 38.3526 45.9695C31.5512 45.4789 25.166 44.2106 21.9526 43.5704ZM52.8147 45.2418C48.8063 46.1853 44.0874 46.3095 39.4774 46.0398C42.4608 44.8692 48.7065 42.0456 51.7113 37.9812C52.2487 39.1579 53.0386 40.1595 54.3588 40.815C53.4386 41.8716 52.9287 43.1785 52.7678 44.8662C52.7577 44.9822 52.7841 45.1125 52.8147 45.2418ZM70.6835 44.9598C70.6866 45.1206 70.7497 45.3089 70.2662 45.5827C68.0727 46.8235 66.3718 46.4887 64.9966 45.31C64.8908 45.2194 64.7503 45.1756 64.6098 45.1919C64.4694 45.2082 64.3432 45.2825 64.2597 45.3965C63.3792 46.6088 62.7176 47.5188 62.228 47.8099C61.7394 47.5177 61.0778 46.6088 60.1973 45.3965C60.1139 45.2825 59.9877 45.2082 59.8472 45.1919C59.8279 45.1898 59.8075 45.1888 59.7882 45.1888C59.668 45.1888 59.552 45.2316 59.4594 45.311C58.0842 46.4907 56.3243 46.4541 53.972 45.5492C53.6605 45.429 53.7694 45.1216 53.7725 44.9629C53.9374 43.2355 55.6515 40.9127 55.68 40.8557C57.6343 40.5249 59.4482 39.6658 60.7582 38.9625C59.8146 40.585 59.6009 42.4538 60.3928 43.8666C60.4315 43.9368 60.4986 43.9867 60.576 44.0061C60.5984 44.0111 60.6208 44.0142 60.6442 44.0142C60.7002 44.0142 60.7551 43.9979 60.803 43.9664C61.5297 43.4869 62.1262 42.9414 62.5415 42.3998C62.9568 42.9414 63.5533 43.4859 64.2801 43.9664C64.3279 43.9979 64.3829 44.0142 64.4388 44.0142C64.4612 44.0142 64.4846 44.0111 64.507 44.0061C64.5854 43.9867 64.6516 43.9368 64.6903 43.8666C65.4598 42.4945 65.3671 40.8282 64.4958 39.2454C65.9931 40.1076 67.4375 40.6623 68.8066 40.9046C68.832 40.9422 70.5197 43.2365 70.6835 44.9598ZM72.2368 33.7245C72.7366 33.8975 72.816 34.0369 72.7101 34.555C72.1951 37.0916 71.2525 40.0516 68.832 40.3193C67.181 40.0129 65.4089 39.2403 63.5502 37.9823C63.4596 37.9212 63.368 37.857 63.3283 37.795C63.3019 37.7522 63.2886 37.6901 63.2876 37.6056C63.2886 37.1496 65.0363 34.7087 66.1071 33.4618C66.4827 32.7229 70.3008 33.0547 72.2368 33.7245ZM67.7816 18.6822C67.3154 17.9606 66.3443 16.1762 66.5784 14.1629C66.8166 12.1169 68.2386 10.3804 68.8625 9.7066C69.3287 10.4283 70.2998 12.2126 70.0657 14.226C69.8285 16.2709 68.4055 18.0084 67.7816 18.6822ZM68.8493 19.5831C68.8463 19.581 68.8401 19.579 68.8371 19.578C68.8412 19.5729 68.8493 19.5658 68.8544 19.5617C68.8544 19.5688 68.8483 19.5749 68.8493 19.5831ZM75.9164 15.5706C79.0871 14.969 82.0868 15.9798 83.464 16.56L78.7085 17.4689H78.7075L69.1231 19.3001C70.2194 18.2527 72.7213 16.1772 75.9164 15.5706ZM69.2361 19.749L72.2307 19.1769C72.2419 19.1892 74.5678 20.8961 74.5678 20.8961C72.2826 20.8605 70.2978 20.1928 69.2361 19.749ZM76.7552 20.7261C76.2798 20.8167 75.8085 20.8646 75.3454 20.889L72.8282 19.0629L75.4788 18.556C75.494 18.5784 78.0591 20.3872 78.0591 20.3872C77.6387 20.5246 77.2041 20.6406 76.7552 20.7261ZM78.5843 20.1857L76.0773 18.441L78.6891 17.9423L80.5162 19.2685C79.9269 19.6106 79.2785 19.921 78.5843 20.1857ZM80.9448 19.008L79.3121 17.8232L83.5241 17.018C82.9744 17.5402 82.0868 18.2924 80.9448 19.008Z" fill="#937962"/>
</svg>
