<svg width="26" height="26" viewBox="0 0 26 26" fill="none" xmlns="http://www.w3.org/2000/svg">
<g clip-path="url(#clip0_184_4826)">
<path d="M25.7693 2.23511C25.7693 7.78198 21.6384 12.3669 16.2869 13.075C15.9402 10.4675 14.7927 8.11401 13.0984 6.27319C14.9685 2.93335 18.5427 0.672607 22.6443 0.672607H24.2068C25.071 0.672607 25.7693 1.37085 25.7693 2.23511ZM0.769287 5.36011C0.769287 4.49585 1.46753 3.79761 2.33179 3.79761H3.89429C9.93433 3.79761 14.8318 8.69507 14.8318 14.7351V16.2976V24.1101C14.8318 24.9744 14.1335 25.6726 13.2693 25.6726C12.405 25.6726 11.7068 24.9744 11.7068 24.1101V16.2976C5.66675 16.2976 0.769287 11.4001 0.769287 5.36011Z" fill="#F8F8F8"/>
</g>
<defs>
<clipPath id="clip0_184_4826">
<rect width="25" height="25" fill="white" transform="translate(0.769287 0.672607)"/>
</clipPath>
</defs>
</svg>
