<svg width="25" height="31" viewBox="0 0 25 31" fill="none" xmlns="http://www.w3.org/2000/svg">
<path d="M4.85314 20.6187C4.97617 20.8063 5.58299 22.168 5.71558 22.5544C6.01541 23.4246 6.15636 24.3283 6.12172 25.1507C6.0811 26.1159 5.96105 27.0094 5.81055 27.4741C5.76814 27.6043 5.74724 27.6377 5.70901 27.6377C5.63376 27.6377 5.63734 27.5565 5.73051 27.1282C5.93 26.2121 6.01541 24.9471 5.92821 24.2041C5.86729 23.6874 5.73887 23.1386 5.55074 22.5903C5.44443 22.2815 4.95527 21.1407 4.79341 20.8248C4.74026 20.7208 4.70323 20.6199 4.71099 20.6002C4.7313 20.5465 4.81253 20.5572 4.85314 20.6187Z" fill="#BFAE9F"/>
<path d="M3.06017 8.7028C3.12945 8.74401 3.18858 8.80374 3.21904 8.86346C3.24591 8.91542 3.31818 9.01696 3.3803 9.08923C3.44241 9.1609 3.57381 9.34007 3.67176 9.487C3.89334 9.81669 3.91723 9.84655 4.01937 9.92121L4.10059 9.98153L4.22721 9.90986C4.44461 9.78742 4.61125 9.83162 4.68053 10.0317L4.70562 10.1022L4.81193 10.0215C4.87046 9.97675 4.95945 9.92658 5.01022 9.90986C5.11175 9.87641 5.4719 9.65125 5.52267 9.58913C5.54058 9.56763 5.61166 9.53836 5.68034 9.52343C5.89476 9.47804 6.36182 9.19255 6.3875 9.09161C6.39526 9.06115 6.43169 9.02472 6.46813 9.01158C6.62939 8.95126 6.73451 8.88735 6.76497 8.83121C6.79304 8.77746 6.79065 8.75715 6.74108 8.6586C6.6921 8.56005 6.68672 8.52243 6.69867 8.34922C6.7142 8.11689 6.8659 7.34165 6.92443 7.19591C6.95131 7.12842 7.01641 7.05078 7.11795 6.96418C7.26427 6.84055 7.27562 6.83517 7.36282 6.85488C7.4757 6.87996 7.51572 6.93193 7.62681 7.19591C7.69729 7.36434 7.71879 7.45393 7.73611 7.65461C7.74805 7.79198 7.76478 7.91083 7.77254 7.9186C7.79165 7.93771 7.85616 7.85051 7.85616 7.80631C7.85616 7.7878 7.89617 7.63968 7.94515 7.47722C8.03952 7.16366 8.10163 7.05138 8.35188 6.74618C8.42654 6.6548 8.52748 6.51325 8.57586 6.43142C8.62423 6.35019 8.68814 6.24567 8.7186 6.19849C8.74966 6.15071 8.77892 6.05634 8.78729 5.98049C8.79804 5.87717 8.81536 5.83536 8.86254 5.79713C8.92227 5.74935 8.92406 5.7392 8.92406 5.45789C8.92406 4.99919 8.80401 4.44733 8.63916 4.1481L8.57227 4.02686L8.41221 4.01133C8.21212 3.99162 8.14762 3.95817 7.64413 3.61714C7.42076 3.46603 7.15199 3.29521 7.04747 3.23788C6.82111 3.11484 6.51591 2.99181 6.49381 3.0151C6.48485 3.02466 6.45977 3.13037 6.43826 3.25042C6.38093 3.56697 6.28537 3.85126 6.19219 3.98385C6.12769 4.07464 6.05662 4.12959 5.86071 4.24008C5.18581 4.62053 4.92302 4.70355 4.57123 4.64741C4.46313 4.62949 4.14479 4.6068 3.86468 4.59605C3.20411 4.57156 3.0966 4.5399 2.85531 4.29801C2.7036 4.14631 2.6176 3.99998 2.54175 3.76526C2.47903 3.56936 2.46769 3.57234 2.32793 3.82857C2.20429 4.05612 2.14158 4.22933 2.05558 4.58052C1.98391 4.87437 1.98152 4.90005 1.91104 6.13757L1.88596 6.57357L1.77725 6.78918C1.71215 6.91879 1.66855 7.03883 1.66855 7.08781C1.66855 7.27415 2.06692 7.92875 2.34107 8.19274C2.49098 8.33728 2.73227 8.50809 3.06017 8.7028ZM8.3704 3.44811C8.20018 3.08677 7.91827 2.78934 7.56529 2.6C7.34849 2.48414 7.26666 2.46144 6.92623 2.4256C6.47649 2.37782 6.51113 2.36289 6.50277 2.60956L6.4956 2.8186L6.6485 2.87415C6.9328 2.97687 7.26726 3.16203 7.72655 3.47081C7.8902 3.5813 8.09745 3.77183 8.29216 3.82498C8.5454 3.89427 8.42236 3.55861 8.3704 3.44811ZM6.31165 2.35632C6.30269 2.34736 6.27521 2.3402 6.25073 2.3402C6.21131 2.3402 6.20653 2.3623 6.20653 2.53192C6.20653 2.72244 6.22027 2.7529 6.30567 2.7529C6.33076 2.7529 6.33613 2.38141 6.31165 2.35632ZM6.25431 1.90599C6.18383 1.61154 6.08947 1.45267 5.84459 1.21675C5.4946 0.879301 5.33991 0.828534 4.53181 0.787323C4.23199 0.771794 3.98054 0.753279 3.97397 0.746112C3.95187 0.723416 3.52961 0.756863 3.33073 0.797476C2.93176 0.879898 2.61282 1.0979 2.4217 1.41982C2.36555 1.51478 2.32375 1.59601 2.32912 1.60139C2.3339 1.60676 2.42528 1.5769 2.53159 1.53509C2.69405 1.47118 2.76572 1.45745 2.99088 1.44849C3.22919 1.43893 3.2698 1.43057 3.36716 1.37084C3.75299 1.13433 3.90589 1.07281 4.30486 0.993377C4.65067 0.924692 4.8615 0.918122 5.12131 0.967695C5.62599 1.06385 6.02735 1.4455 6.13307 1.92809C6.17965 2.1431 6.18144 2.14609 6.24416 2.14609C6.31523 2.14609 6.31463 2.15863 6.25431 1.90599ZM5.98196 2.00334C5.96046 1.84686 5.83205 1.60019 5.69707 1.45745C5.55671 1.30873 5.35484 1.19226 5.14759 1.13971C4.93377 1.08535 4.48762 1.10626 4.18122 1.18569C3.95665 1.24363 3.53618 1.43177 3.52006 1.48134C3.51647 1.49328 3.60308 1.52792 3.71297 1.55898C3.85094 1.59721 3.99189 1.66231 4.16808 1.76862C4.53062 1.98841 4.5778 2.00036 5.06039 2.00036C5.41994 2.00095 5.76933 2.03559 5.94911 2.08935C5.99032 2.10189 5.9939 2.09293 5.98196 2.00334ZM2.64806 2.98942C2.66956 3.03123 2.69703 3.07124 2.70838 3.07841C2.71973 3.08558 2.80992 3.03003 2.90906 2.95537C3.22382 2.71707 3.4245 2.65256 3.9901 2.60896C4.65306 2.5576 5.2539 2.55222 5.55133 2.59463C5.70483 2.61673 5.87684 2.64062 5.93358 2.64838L6.03631 2.66212V2.47816C6.03631 2.37723 6.02675 2.28883 6.01481 2.28107C5.9288 2.22791 5.5818 2.1861 5.1022 2.17117C4.4912 2.15206 4.45895 2.1443 4.10059 1.92212C3.86408 1.77519 3.74403 1.72442 3.51289 1.67485C3.27996 1.62528 3.27697 1.62587 3.14737 1.75906C2.9449 1.96691 2.79857 2.21477 2.68927 2.53371C2.61342 2.75589 2.60028 2.89744 2.64806 2.98942ZM5.98793 2.8837C5.98793 2.83532 5.90432 2.80785 5.62958 2.76604C5.33991 2.72185 4.35443 2.73379 3.85094 2.78814C3.43644 2.83234 3.25547 2.89565 3.01418 3.0802C2.91503 3.15665 2.83321 3.2337 2.83321 3.25161C2.83321 3.29283 3.03389 3.53412 3.17902 3.66731C3.36835 3.84111 3.50692 3.89546 3.85213 3.93249C4.39743 3.99042 4.60289 3.97131 5.09025 3.81543C5.40501 3.71509 5.52744 3.64879 5.6463 3.51381C5.74485 3.40212 5.98793 2.95358 5.98793 2.8837ZM5.46772 3.85724C5.29033 3.93607 4.80894 4.07404 4.58079 4.11226C4.40221 4.14213 4.33532 4.14034 3.7715 4.08837C3.36955 4.05194 3.15812 3.93189 2.85292 3.56577C2.7693 3.46603 2.68688 3.38361 2.67016 3.38361C2.62297 3.38361 2.63253 3.49589 2.69703 3.70493C2.76393 3.92054 2.86845 4.09674 3.00343 4.21858C3.19336 4.38999 3.34386 4.42702 3.84497 4.42702C4.05281 4.42702 4.29948 4.44315 4.44402 4.46644C4.86508 4.53393 5.07651 4.48734 5.55133 4.22276C6.04049 3.951 6.03153 3.95757 6.10977 3.79034C6.24535 3.50187 6.34748 2.96553 6.27641 2.92073C6.22146 2.88549 6.15696 2.89565 6.14441 2.94104C6.13725 2.96433 6.06976 3.10827 5.99331 3.26117C5.83026 3.58907 5.67437 3.76585 5.46772 3.85724ZM2.34764 2.29839C2.45992 2.65017 2.46589 2.65197 2.57579 2.37185C2.6827 2.0989 2.78961 1.91136 2.92937 1.75249C2.98312 1.69157 3.02732 1.63483 3.02732 1.62707C3.02732 1.59183 2.80275 1.61751 2.64627 1.67067C2.43782 1.74174 2.3566 1.79251 2.31061 1.8815C2.25984 1.97885 2.26581 2.04396 2.34764 2.29839ZM2.09559 2.10488C2.08126 2.10965 2.03408 2.22731 1.98988 2.36648C1.94628 2.50564 1.87879 2.77799 1.83997 2.9721C1.77009 3.32209 1.72828 3.44572 1.46369 4.09554C1.25883 4.59724 1.23554 4.91259 1.3526 5.60422C1.37948 5.76428 1.40158 5.95242 1.40158 6.0217C1.40158 6.34064 1.48161 6.828 1.53656 6.84652C1.5497 6.8507 1.59748 6.78082 1.64168 6.69063C1.73425 6.5025 1.75038 6.37528 1.77785 5.60422C1.79756 5.04041 1.83817 4.72684 1.93792 4.37148C2.02571 4.05851 2.14994 3.78317 2.31897 3.52695L2.43723 3.34718L2.4211 3.11723C2.40677 2.91834 2.38885 2.84966 2.29209 2.61971C2.22998 2.47279 2.16667 2.2948 2.15054 2.22433C2.13442 2.15385 2.10993 2.1001 2.09559 2.10488ZM0.00518596 16.5359C0.0541613 15.7958 0.0852188 15.6346 0.253646 15.2392C0.47941 14.71 0.557054 14.5888 0.841349 14.3158C0.981108 14.1821 1.29288 13.8822 1.53477 13.6481C1.77666 13.4152 2.14039 13.067 2.34405 12.8753C2.54712 12.6841 2.74123 12.4906 2.77527 12.4464C2.82843 12.3759 3.01 11.9859 3.21366 11.5016C3.31161 11.2698 3.42091 10.7532 3.41912 10.5364C3.41613 10.2539 3.3152 9.9015 3.1402 9.55987C3.05778 9.39861 2.98909 9.3138 2.73705 9.06235C2.56922 8.89512 2.35062 8.66099 2.25088 8.54094C2.15114 8.42089 1.9857 8.23395 1.88297 8.12525C1.6369 7.86365 1.55507 7.69343 1.51147 7.3512C1.50251 7.28491 1.45891 7.14276 1.41412 7.03585C1.31259 6.79575 1.26421 6.54311 1.2439 6.15011C1.23494 5.98348 1.20568 5.72128 1.1788 5.56779C1.12326 5.25303 1.10773 4.89229 1.13759 4.61994C1.1579 4.43538 1.25226 4.14392 1.40815 3.78437C1.56164 3.43019 1.61779 3.25341 1.68229 2.92312C1.80891 2.27091 2.08723 1.57989 2.38885 1.16957C2.57041 0.922303 2.90906 0.723416 3.28354 0.64398C3.58874 0.579476 3.80913 0.570518 4.22841 0.606353C4.42909 0.623674 4.68889 0.638605 4.80596 0.6398C5.09025 0.642189 5.35364 0.698928 5.57523 0.80524C5.72155 0.874522 5.80338 0.937832 5.98853 1.12477C6.28895 1.42818 6.34927 1.55301 6.46514 2.10846C6.48963 2.22493 6.50755 2.2309 6.93459 2.26494C7.33057 2.2966 7.54021 2.36946 7.85735 2.58388C8.22407 2.83234 8.6105 3.40511 8.65051 3.75928C8.65887 3.83334 8.6959 3.93607 8.74488 4.02088C8.8506 4.20365 8.9593 4.51541 9.02499 4.823C9.068 5.02547 9.07815 5.15627 9.07994 5.5433C9.08054 5.70754 9.03873 5.81863 8.98139 5.96795C8.93959 6.07725 8.94556 6.19789 8.93899 6.31376C8.92047 6.66017 8.87628 6.94148 8.81894 7.07885C8.79804 7.12902 8.72039 7.25026 8.64693 7.34762C8.44924 7.60981 8.4146 7.73703 8.27245 8.71116C8.24975 8.86705 8.01622 9.38845 7.94157 9.44997C7.91947 9.46848 7.87467 9.53598 7.84242 9.59929C7.65608 9.9672 7.23262 10.4946 6.97401 10.6803C6.90532 10.7299 6.79125 10.8237 6.72017 10.8894C6.59654 11.0046 6.58638 11.0088 6.48366 10.9945L6.37615 10.9801L6.37734 11.3863C6.37854 11.8241 6.38511 11.8539 6.52606 12.0188C6.60968 12.1167 6.81215 12.226 6.98297 12.266C7.05643 12.2828 7.13288 12.3055 7.15259 12.3162C7.26726 12.3771 7.82928 12.453 8.57227 12.5079C8.74548 12.5211 9.01305 12.5486 9.16654 12.5689C9.32004 12.5892 9.52789 12.6113 9.62763 12.6172C10.0535 12.6435 10.6406 12.849 10.9906 13.095C11.374 13.3638 11.733 14.1032 11.8082 14.7805C11.8381 15.0451 11.822 15.2016 11.7664 15.201C11.6882 15.2004 11.6732 15.161 11.6577 14.9197C11.6302 14.4914 11.4941 14.0572 11.2623 13.6601C11.0951 13.3752 10.9285 13.2235 10.5964 13.0574C10.1562 12.837 9.62285 12.7295 8.718 12.6776C7.2804 12.5951 6.72853 12.4661 6.3875 12.1317C6.26984 12.017 6.2352 11.9656 6.22265 11.8892C6.18861 11.6795 6.20713 11.1707 6.26625 10.7209C6.2991 10.4695 6.33792 10.1703 6.35226 10.0568C6.40243 9.66857 6.40601 9.65662 6.4735 9.65662C6.53203 9.65662 6.53442 9.66259 6.54099 9.83879C6.54517 9.93853 6.53562 10.1983 6.52009 10.4157C6.50396 10.6331 6.49859 10.8183 6.50695 10.8267C6.51591 10.8356 6.56906 10.798 6.62521 10.7436C6.68195 10.6893 6.77751 10.6146 6.83723 10.5776C6.98237 10.4874 7.29533 10.1613 7.45122 9.93674C7.71102 9.56285 8.0861 8.86585 8.1094 8.71474C8.11537 8.67234 8.14463 8.46808 8.1733 8.26142C8.23303 7.832 8.33755 7.47185 8.4349 7.35658C8.56809 7.1989 8.64096 7.08841 8.68217 6.97851C8.72637 6.86264 8.79386 6.49712 8.77474 6.47801C8.7634 6.46666 8.61169 6.65719 8.34292 7.01912C8.19958 7.21204 8.17868 7.25683 8.09447 7.54531C8.0437 7.71911 8.00249 7.87858 8.00249 7.90008C8.00189 7.95324 7.79643 8.14018 7.7385 8.14018C7.71341 8.14018 7.67997 8.12465 7.66444 8.10614C7.6292 8.06373 7.56529 7.73225 7.56529 7.5907C7.56529 7.48021 7.42374 7.09319 7.35924 7.02689C7.33176 6.99822 7.31564 7.00121 7.25352 7.0454C7.11138 7.14694 7.0618 7.23115 7.00984 7.46588C6.86889 8.09598 6.82828 8.49376 6.89457 8.58932C7.02597 8.77805 6.90532 9.02532 6.63118 9.12924C6.56429 9.15433 6.51232 9.18777 6.51531 9.2033C6.52367 9.24093 6.20533 9.47625 6.02377 9.56644C5.94314 9.60705 5.82906 9.65304 5.76933 9.66857C5.70961 9.68469 5.62241 9.72829 5.57582 9.76473C5.42531 9.88239 5.17088 10.0329 5.05561 10.0723C4.97856 10.0986 4.91645 10.144 4.85613 10.2169C4.79043 10.2981 4.75161 10.3238 4.69964 10.3238C4.62558 10.3238 4.59751 10.2891 4.53181 10.1177C4.48463 9.99527 4.41654 9.98093 4.29231 10.0669C4.06297 10.2258 3.882 10.107 3.51826 9.55987C3.30325 9.23496 3.15633 9.08385 2.86964 8.89392L2.67553 8.76491L2.90846 9.00441C3.03687 9.13641 3.16528 9.27915 3.19395 9.32156C3.39165 9.61123 3.55888 10.1159 3.57799 10.4814C3.58994 10.7012 3.58277 10.7598 3.50333 11.099C3.43584 11.3851 3.38328 11.5428 3.27876 11.7661C3.20411 11.9274 3.12885 12.0976 3.11213 12.1454C3.02194 12.3986 2.9222 12.5432 2.65403 12.809C2.33151 13.1285 1.40456 14.0142 1.0056 14.3839C0.809694 14.5655 0.660379 14.7727 0.541525 15.0152C0.250062 15.6095 0.205865 15.7947 0.172419 16.5597C0.130013 17.5303 0.332484 18.1216 1.05039 19.1208C1.19134 19.3173 1.4195 19.6655 1.55746 19.8936C1.69483 20.1224 1.91223 20.4569 2.04005 20.6372C2.4438 21.2052 3.00343 22.1895 3.63294 23.4396C3.95008 24.0697 4.17644 24.787 4.2069 25.2564C4.22064 25.4661 4.21467 25.533 4.16928 25.7086C4.14001 25.822 4.08208 25.9779 4.04087 26.0556C3.95128 26.2234 3.56963 26.6522 3.06495 27.1527C2.89891 27.317 2.72988 27.4818 2.58176 27.6628C2.51666 27.7422 2.4647 27.8354 2.39422 27.9095C2.33748 27.9686 2.2897 28.051 2.23177 28.1048C2.19534 28.1394 2.10814 28.1728 2.11709 28.0809C2.12307 28.0235 2.20728 27.9059 2.23595 27.8527C2.28313 27.7637 2.35301 27.6897 2.41513 27.612C2.5728 27.4149 2.75437 27.2363 2.93056 27.0566C3.65504 26.3148 3.84258 26.0992 3.93276 25.9063C4.08506 25.5807 4.04983 25.2857 3.98472 24.9441C3.93455 24.6759 3.84556 24.4149 3.76195 24.1557C3.64966 23.8075 3.24472 23.0024 2.64507 21.9351C2.28911 21.3014 2.15174 21.0786 1.88476 20.7035C1.74978 20.5136 1.53536 20.1833 1.40875 19.9695C1.28213 19.7563 1.07428 19.4361 0.946467 19.2582C0.512259 18.6531 0.20467 18.0851 0.103734 17.7029C0.0314654 17.427 -0.0163152 16.8632 0.00518596 16.5359Z" fill="#BFAE9F"/>
</svg>
